<?xml version="1.0" encoding="utf-8" standalone="no"?>
<!DOCTYPE svg PUBLIC "-//W3C//DTD SVG 1.1//EN"
  "http://www.w3.org/Graphics/SVG/1.1/DTD/svg11.dtd">
<!-- Created with matplotlib (https://matplotlib.org/) -->
<svg height="576pt" version="1.1" viewBox="0 0 576 576" width="576pt" xmlns="http://www.w3.org/2000/svg" xmlns:xlink="http://www.w3.org/1999/xlink">
 <defs>
  <style type="text/css">
*{stroke-linecap:butt;stroke-linejoin:round;}
  </style>
 </defs>
 <g id="figure_1">
  <g id="patch_1">
   <path d="M 0 576 
L 576 576 
L 576 0 
L 0 0 
z
" style="fill:#ffffff;"/>
  </g>
  <g id="axes_1">
   <g id="patch_2">
    <path d="M 475.733174 305.312737 
C 475.733174 259.369639 460.02832 214.778596 431.237531 178.975542 
C 402.446741 143.172487 362.264578 118.264711 317.391757 108.405795 
C 272.518936 98.54688 225.596573 104.317099 184.44937 124.75422 
C 143.302166 145.191341 110.351956 179.09248 91.093466 220.804335 
L 164.307974 254.607696 
C 175.863068 229.580583 195.633194 209.2399 220.321516 196.977627 
C 245.009838 184.715354 273.163256 181.253223 300.086948 187.168572 
C 327.010641 193.083922 351.119939 208.028587 368.394413 229.51042 
C 385.668887 250.992253 395.091799 277.746878 395.091799 305.312737 
L 475.733174 305.312737 
z
" style="fill:#1f77b4;stroke:#1f77b4;stroke-linejoin:miter;"/>
   </g>
   <g id="patch_3">
    <path d="M 91.093466 220.804335 
C 78.153388 248.831174 71.821818 279.459266 72.588481 310.319622 
C 73.355144 341.179978 81.199751 371.455891 95.515547 398.805614 
C 109.831343 426.155337 130.239466 449.85507 155.16141 468.071712 
C 180.083354 486.288354 208.85957 498.539809 239.264308 503.878465 
L 253.210479 424.452174 
C 234.967636 421.24898 217.701907 413.898107 202.74874 402.968122 
C 187.795574 392.038137 175.5507 377.818297 166.961223 361.408463 
C 158.371745 344.99863 153.664981 326.833082 153.204983 308.316868 
C 152.744985 289.800655 156.543927 271.4238 164.307974 254.607696 
L 91.093466 220.804335 
z
" style="fill:#aec7e8;stroke:#aec7e8;stroke-linejoin:miter;"/>
   </g>
   <g id="patch_4">
    <path d="M 239.264308 503.878465 
C 265.72995 508.52547 292.859525 507.834751 319.054406 501.84701 
C 345.249288 495.859268 369.984651 484.694471 391.802951 469.01051 
L 344.733665 403.531401 
C 331.642685 412.941778 316.801467 419.640656 301.084538 423.233301 
C 285.367609 426.825946 269.089864 427.240377 253.210479 424.452174 
L 239.264308 503.878465 
z
" style="fill:#ff7f0e;stroke:#ff7f0e;stroke-linejoin:miter;"/>
   </g>
   <g id="patch_5">
    <path d="M 391.802951 469.01051 
C 411.714231 454.697399 428.848011 436.870808 442.361028 416.408095 
C 455.874045 395.945383 465.540916 373.187848 470.885871 349.255534 
L 392.183417 331.678415 
C 388.976444 346.037804 383.176321 359.692325 375.068511 371.969952 
C 366.960701 384.24758 356.680433 394.943534 344.733665 403.531401 
L 391.802951 469.01051 
z
" style="fill:#ffbb78;stroke:#ffbb78;stroke-linejoin:miter;"/>
   </g>
   <g id="patch_6">
    <path d="M 470.885871 349.255534 
C 472.495537 342.048173 473.707969 334.757809 474.517684 327.417412 
C 475.327398 320.077015 475.733173 312.697668 475.733174 305.312747 
L 395.091799 305.312743 
C 395.091798 309.743696 394.848333 314.171304 394.362504 318.575542 
C 393.876676 322.97978 393.149216 327.353999 392.183417 331.678415 
L 470.885871 349.255534 
z
" style="fill:#2ca02c;stroke:#2ca02c;stroke-linejoin:miter;"/>
   </g>
   <g id="matplotlib.axis_1"/>
   <g id="matplotlib.axis_2"/>
   <g id="text_1">
    <!-- 0.4.3 -->
    <defs>
     <path d="M 46 36.53125 
Q 46 50.203125 43.4375 55.78125 
Q 40.875 61.375 34.8125 61.375 
Q 28.765625 61.375 26.171875 55.78125 
Q 23.578125 50.203125 23.578125 36.53125 
Q 23.578125 22.703125 26.171875 17.03125 
Q 28.765625 11.375 34.8125 11.375 
Q 40.828125 11.375 43.40625 17.03125 
Q 46 22.703125 46 36.53125 
z
M 64.796875 36.375 
Q 64.796875 18.265625 56.984375 8.421875 
Q 49.171875 -1.421875 34.8125 -1.421875 
Q 20.40625 -1.421875 12.59375 8.421875 
Q 4.78125 18.265625 4.78125 36.375 
Q 4.78125 54.546875 12.59375 64.375 
Q 20.40625 74.21875 34.8125 74.21875 
Q 49.171875 74.21875 56.984375 64.375 
Q 64.796875 54.546875 64.796875 36.375 
z
" id="DejaVuSans-Bold-48"/>
     <path d="M 10.203125 18.890625 
L 27.78125 18.890625 
L 27.78125 0 
L 10.203125 0 
z
" id="DejaVuSans-Bold-46"/>
     <path d="M 36.8125 57.421875 
L 16.21875 26.90625 
L 36.8125 26.90625 
z
M 33.6875 72.90625 
L 54.59375 72.90625 
L 54.59375 26.90625 
L 64.984375 26.90625 
L 64.984375 13.28125 
L 54.59375 13.28125 
L 54.59375 0 
L 36.8125 0 
L 36.8125 13.28125 
L 4.5 13.28125 
L 4.5 29.390625 
z
" id="DejaVuSans-Bold-52"/>
     <path d="M 46.578125 39.3125 
Q 53.953125 37.40625 57.78125 32.6875 
Q 61.625 27.984375 61.625 20.703125 
Q 61.625 9.859375 53.3125 4.21875 
Q 45.015625 -1.421875 29.109375 -1.421875 
Q 23.484375 -1.421875 17.84375 -0.515625 
Q 12.203125 0.390625 6.6875 2.203125 
L 6.6875 16.703125 
Q 11.96875 14.0625 17.15625 12.71875 
Q 22.359375 11.375 27.390625 11.375 
Q 34.859375 11.375 38.84375 13.953125 
Q 42.828125 16.546875 42.828125 21.390625 
Q 42.828125 26.375 38.75 28.9375 
Q 34.671875 31.5 26.703125 31.5 
L 19.1875 31.5 
L 19.1875 43.609375 
L 27.09375 43.609375 
Q 34.1875 43.609375 37.640625 45.828125 
Q 41.109375 48.046875 41.109375 52.59375 
Q 41.109375 56.78125 37.734375 59.078125 
Q 34.375 61.375 28.21875 61.375 
Q 23.6875 61.375 19.046875 60.34375 
Q 14.40625 59.328125 9.8125 57.328125 
L 9.8125 71.09375 
Q 15.375 72.65625 20.84375 73.4375 
Q 26.3125 74.21875 31.59375 74.21875 
Q 45.796875 74.21875 52.84375 69.546875 
Q 59.90625 64.890625 59.90625 55.515625 
Q 59.90625 49.125 56.53125 45.046875 
Q 53.171875 40.96875 46.578125 39.3125 
z
" id="DejaVuSans-Bold-51"/>
    </defs>
    <g style="fill:#808080;" transform="translate(321.717959 94.785726)scale(0.22 -0.22)">
     <use xlink:href="#DejaVuSans-Bold-48"/>
     <use x="69.580078" xlink:href="#DejaVuSans-Bold-46"/>
     <use x="107.568359" xlink:href="#DejaVuSans-Bold-52"/>
     <use x="177.148438" xlink:href="#DejaVuSans-Bold-46"/>
     <use x="215.136719" xlink:href="#DejaVuSans-Bold-51"/>
    </g>
   </g>
   <g id="text_2">
    <path d="M 278.676696 141.224996 
L 274.146071 147.938434 
L 278.676696 147.938434 
z
M 277.989196 137.818434 
L 282.588571 137.818434 
L 282.588571 147.938434 
L 284.874509 147.938434 
L 284.874509 150.935934 
L 282.588571 150.935934 
L 282.588571 153.857809 
L 278.676696 153.857809 
L 278.676696 150.935934 
L 271.567946 150.935934 
L 271.567946 147.391871 
z
M 296.132751 145.209059 
Q 297.755251 145.628434 298.597438 146.666559 
Q 299.443063 147.701246 299.443063 149.303121 
Q 299.443063 151.688746 297.614313 152.929684 
Q 295.789001 154.170621 292.289626 154.170621 
Q 291.052126 154.170621 289.811188 153.971246 
Q 288.570251 153.771871 287.356813 153.373121 
L 287.356813 150.183121 
Q 288.518688 150.764059 289.659938 151.059684 
Q 290.804626 151.355309 291.911501 151.355309 
Q 293.554626 151.355309 294.431188 150.788121 
Q 295.307751 150.217496 295.307751 149.151871 
Q 295.307751 148.055309 294.410563 147.491559 
Q 293.513376 146.927809 291.760251 146.927809 
L 290.106813 146.927809 
L 290.106813 144.263746 
L 291.846188 144.263746 
Q 293.406813 144.263746 294.166501 143.775621 
Q 294.929626 143.287496 294.929626 142.287184 
Q 294.929626 141.365934 294.187126 140.860621 
Q 293.448063 140.355309 292.093688 140.355309 
Q 291.096813 140.355309 290.075876 140.582184 
Q 289.054938 140.805621 288.044313 141.245621 
L 288.044313 138.217184 
Q 289.268063 137.873434 290.471188 137.701559 
Q 291.674313 137.529684 292.836188 137.529684 
Q 295.960876 137.529684 297.511188 138.557496 
Q 299.064938 139.581871 299.064938 141.644371 
Q 299.064938 143.050309 298.322438 143.947496 
Q 297.583376 144.844684 296.132751 145.209059 
z
M 303.437868 149.701871 
L 307.305056 149.701871 
L 307.305056 153.857809 
L 303.437868 153.857809 
z
M 312.128728 151.001246 
L 315.78279 151.001246 
L 315.78279 140.633746 
L 312.032478 141.407184 
L 312.032478 138.591871 
L 315.758728 137.818434 
L 319.691228 137.818434 
L 319.691228 151.001246 
L 323.34529 151.001246 
L 323.34529 153.857809 
L 312.128728 153.857809 
z
M 341.904782 147.240621 
Q 341.145095 147.240621 340.72572 147.900621 
Q 340.306345 148.560621 340.306345 149.787809 
Q 340.306345 151.021871 340.718845 151.681871 
Q 341.131345 152.341871 341.904782 152.341871 
Q 342.67822 152.341871 343.087282 151.681871 
Q 343.496345 151.021871 343.496345 149.787809 
Q 343.496345 148.560621 343.080407 147.900621 
Q 342.667907 147.240621 341.904782 147.240621 
z
M 341.904782 145.435934 
Q 343.905407 145.435934 345.053532 146.597809 
Q 346.201657 147.756246 346.201657 149.787809 
Q 346.201657 151.815934 345.053532 152.994996 
Q 343.905407 154.170621 341.904782 154.170621 
Q 339.907595 154.170621 338.752595 152.994996 
Q 337.597595 151.815934 337.597595 149.787809 
Q 337.597595 147.766559 338.752595 146.601246 
Q 339.907595 145.435934 341.904782 145.435934 
z
M 332.056345 154.170621 
L 329.681032 154.170621 
L 339.704782 137.529684 
L 342.090407 137.529684 
z
M 329.852907 137.529684 
Q 331.850095 137.529684 332.994782 138.694996 
Q 334.13947 139.860309 334.13947 141.891871 
Q 334.13947 143.919996 332.994782 145.092184 
Q 331.850095 146.264371 329.852907 146.264371 
Q 327.85572 146.264371 326.711032 145.092184 
Q 325.566345 143.919996 325.566345 141.891871 
Q 325.566345 139.860309 326.711032 138.694996 
Q 327.85572 137.529684 329.852907 137.529684 
z
M 329.852907 139.334371 
Q 329.07947 139.334371 328.660095 140.001246 
Q 328.24072 140.664684 328.24072 141.891871 
Q 328.24072 143.125934 328.660095 143.799684 
Q 329.07947 144.469996 329.852907 144.469996 
Q 330.626345 144.469996 331.038845 143.799684 
Q 331.454782 143.125934 331.454782 141.891871 
Q 331.454782 140.664684 331.035407 140.001246 
Q 330.616032 139.334371 329.852907 139.334371 
z
" style="fill:#ffffff;stroke:#808080;"/>
    <path d="M 278.676696 141.224996 
L 274.146071 147.938434 
L 278.676696 147.938434 
z
M 277.989196 137.818434 
L 282.588571 137.818434 
L 282.588571 147.938434 
L 284.874509 147.938434 
L 284.874509 150.935934 
L 282.588571 150.935934 
L 282.588571 153.857809 
L 278.676696 153.857809 
L 278.676696 150.935934 
L 271.567946 150.935934 
L 271.567946 147.391871 
z
M 296.132751 145.209059 
Q 297.755251 145.628434 298.597438 146.666559 
Q 299.443063 147.701246 299.443063 149.303121 
Q 299.443063 151.688746 297.614313 152.929684 
Q 295.789001 154.170621 292.289626 154.170621 
Q 291.052126 154.170621 289.811188 153.971246 
Q 288.570251 153.771871 287.356813 153.373121 
L 287.356813 150.183121 
Q 288.518688 150.764059 289.659938 151.059684 
Q 290.804626 151.355309 291.911501 151.355309 
Q 293.554626 151.355309 294.431188 150.788121 
Q 295.307751 150.217496 295.307751 149.151871 
Q 295.307751 148.055309 294.410563 147.491559 
Q 293.513376 146.927809 291.760251 146.927809 
L 290.106813 146.927809 
L 290.106813 144.263746 
L 291.846188 144.263746 
Q 293.406813 144.263746 294.166501 143.775621 
Q 294.929626 143.287496 294.929626 142.287184 
Q 294.929626 141.365934 294.187126 140.860621 
Q 293.448063 140.355309 292.093688 140.355309 
Q 291.096813 140.355309 290.075876 140.582184 
Q 289.054938 140.805621 288.044313 141.245621 
L 288.044313 138.217184 
Q 289.268063 137.873434 290.471188 137.701559 
Q 291.674313 137.529684 292.836188 137.529684 
Q 295.960876 137.529684 297.511188 138.557496 
Q 299.064938 139.581871 299.064938 141.644371 
Q 299.064938 143.050309 298.322438 143.947496 
Q 297.583376 144.844684 296.132751 145.209059 
z
M 303.437868 149.701871 
L 307.305056 149.701871 
L 307.305056 153.857809 
L 303.437868 153.857809 
z
M 312.128728 151.001246 
L 315.78279 151.001246 
L 315.78279 140.633746 
L 312.032478 141.407184 
L 312.032478 138.591871 
L 315.758728 137.818434 
L 319.691228 137.818434 
L 319.691228 151.001246 
L 323.34529 151.001246 
L 323.34529 153.857809 
L 312.128728 153.857809 
z
M 341.904782 147.240621 
Q 341.145095 147.240621 340.72572 147.900621 
Q 340.306345 148.560621 340.306345 149.787809 
Q 340.306345 151.021871 340.718845 151.681871 
Q 341.131345 152.341871 341.904782 152.341871 
Q 342.67822 152.341871 343.087282 151.681871 
Q 343.496345 151.021871 343.496345 149.787809 
Q 343.496345 148.560621 343.080407 147.900621 
Q 342.667907 147.240621 341.904782 147.240621 
z
M 341.904782 145.435934 
Q 343.905407 145.435934 345.053532 146.597809 
Q 346.201657 147.756246 346.201657 149.787809 
Q 346.201657 151.815934 345.053532 152.994996 
Q 343.905407 154.170621 341.904782 154.170621 
Q 339.907595 154.170621 338.752595 152.994996 
Q 337.597595 151.815934 337.597595 149.787809 
Q 337.597595 147.766559 338.752595 146.601246 
Q 339.907595 145.435934 341.904782 145.435934 
z
M 332.056345 154.170621 
L 329.681032 154.170621 
L 339.704782 137.529684 
L 342.090407 137.529684 
z
M 329.852907 137.529684 
Q 331.850095 137.529684 332.994782 138.694996 
Q 334.13947 139.860309 334.13947 141.891871 
Q 334.13947 143.919996 332.994782 145.092184 
Q 331.850095 146.264371 329.852907 146.264371 
Q 327.85572 146.264371 326.711032 145.092184 
Q 325.566345 143.919996 325.566345 141.891871 
Q 325.566345 139.860309 326.711032 138.694996 
Q 327.85572 137.529684 329.852907 137.529684 
z
M 329.852907 139.334371 
Q 329.07947 139.334371 328.660095 140.001246 
Q 328.24072 140.664684 328.24072 141.891871 
Q 328.24072 143.125934 328.660095 143.799684 
Q 329.07947 144.469996 329.852907 144.469996 
Q 330.626345 144.469996 331.038845 143.799684 
Q 331.454782 143.125934 331.454782 141.891871 
Q 331.454782 140.664684 331.035407 140.001246 
Q 330.616032 139.334371 329.852907 139.334371 
z
" style="fill:#ffffff;"/>
   </g>
   <g id="text_3">
    <!-- 0.4.4 -->
    <g style="fill:#808080;" transform="translate(15.019441 414.225527)scale(0.22 -0.22)">
     <use xlink:href="#DejaVuSans-Bold-48"/>
     <use x="69.580078" xlink:href="#DejaVuSans-Bold-46"/>
     <use x="107.568359" xlink:href="#DejaVuSans-Bold-52"/>
     <use x="177.148438" xlink:href="#DejaVuSans-Bold-46"/>
     <use x="215.136719" xlink:href="#DejaVuSans-Bold-52"/>
    </g>
   </g>
   <g id="text_4">
    <path d="M 99.415729 383.138914 
L 106.472916 383.138914 
L 106.472916 386.177664 
L 94.816354 386.177664 
L 94.816354 383.138914 
L 100.670416 377.968914 
Q 101.457604 377.260789 101.832291 376.583601 
Q 102.206979 375.906414 102.206979 375.177664 
Q 102.206979 374.050164 101.450729 373.362664 
Q 100.694479 372.675164 99.436354 372.675164 
Q 98.470416 372.675164 97.318854 373.087664 
Q 96.170729 373.500164 94.861041 374.318289 
L 94.861041 370.794851 
Q 96.256666 370.334226 97.621354 370.093601 
Q 98.986041 369.849539 100.295729 369.849539 
Q 103.176354 369.849539 104.771354 371.117976 
Q 106.366354 372.382976 106.366354 374.651726 
Q 106.366354 375.961414 105.689166 377.095789 
Q 105.011979 378.226726 102.842916 380.131101 
z
M 110.588033 385.823601 
L 110.588033 382.857039 
Q 111.574596 383.321101 112.475221 383.551414 
Q 113.379283 383.781726 114.259283 383.781726 
Q 116.108658 383.781726 117.139908 382.757351 
Q 118.171158 381.729539 118.353346 379.711726 
Q 117.624596 380.247976 116.796158 380.516101 
Q 115.967721 380.784226 115.001783 380.784226 
Q 112.540533 380.784226 111.031471 379.350789 
Q 109.522408 377.917351 109.522408 375.576414 
Q 109.522408 372.984539 111.203346 371.427351 
Q 112.884283 369.870164 115.709908 369.870164 
Q 118.848346 369.870164 120.567096 371.987664 
Q 122.285846 374.101726 122.285846 377.968914 
Q 122.285846 381.946101 120.274908 384.218289 
Q 118.267408 386.490476 114.764596 386.490476 
Q 113.637096 386.490476 112.605846 386.322039 
Q 111.574596 386.157039 110.588033 385.823601 
z
M 115.689283 378.099539 
Q 116.775533 378.099539 117.322096 377.398289 
Q 117.868658 376.693601 117.868658 375.284226 
Q 117.868658 373.888601 117.322096 373.180476 
Q 116.775533 372.468914 115.689283 372.468914 
Q 114.603033 372.468914 114.056471 373.180476 
Q 113.509908 373.888601 113.509908 375.284226 
Q 113.509908 376.693601 114.056471 377.398289 
Q 114.603033 378.099539 115.689283 378.099539 
z
M 125.936901 382.021726 
L 129.804088 382.021726 
L 129.804088 386.177664 
L 125.936901 386.177664 
z
M 134.62776 383.321101 
L 138.281823 383.321101 
L 138.281823 372.953601 
L 134.53151 373.727039 
L 134.53151 370.911726 
L 138.25776 370.138289 
L 142.19026 370.138289 
L 142.19026 383.321101 
L 145.844323 383.321101 
L 145.844323 386.177664 
L 134.62776 386.177664 
z
M 164.403815 379.560476 
Q 163.644127 379.560476 163.224752 380.220476 
Q 162.805377 380.880476 162.805377 382.107664 
Q 162.805377 383.341726 163.217877 384.001726 
Q 163.630377 384.661726 164.403815 384.661726 
Q 165.177252 384.661726 165.586315 384.001726 
Q 165.995377 383.341726 165.995377 382.107664 
Q 165.995377 380.880476 165.57944 380.220476 
Q 165.16694 379.560476 164.403815 379.560476 
z
M 164.403815 377.755789 
Q 166.40444 377.755789 167.552565 378.917664 
Q 168.70069 380.076101 168.70069 382.107664 
Q 168.70069 384.135789 167.552565 385.314851 
Q 166.40444 386.490476 164.403815 386.490476 
Q 162.406627 386.490476 161.251627 385.314851 
Q 160.096627 384.135789 160.096627 382.107664 
Q 160.096627 380.086414 161.251627 378.921101 
Q 162.406627 377.755789 164.403815 377.755789 
z
M 154.555377 386.490476 
L 152.180065 386.490476 
L 162.203815 369.849539 
L 164.58944 369.849539 
z
M 152.35194 369.849539 
Q 154.349127 369.849539 155.493815 371.014851 
Q 156.638502 372.180164 156.638502 374.211726 
Q 156.638502 376.239851 155.493815 377.412039 
Q 154.349127 378.584226 152.35194 378.584226 
Q 150.354752 378.584226 149.210065 377.412039 
Q 148.065377 376.239851 148.065377 374.211726 
Q 148.065377 372.180164 149.210065 371.014851 
Q 150.354752 369.849539 152.35194 369.849539 
z
M 152.35194 371.654226 
Q 151.578502 371.654226 151.159127 372.321101 
Q 150.739752 372.984539 150.739752 374.211726 
Q 150.739752 375.445789 151.159127 376.119539 
Q 151.578502 376.789851 152.35194 376.789851 
Q 153.125377 376.789851 153.537877 376.119539 
Q 153.953815 375.445789 153.953815 374.211726 
Q 153.953815 372.984539 153.53444 372.321101 
Q 153.115065 371.654226 152.35194 371.654226 
z
" style="fill:#ffffff;stroke:#808080;"/>
    <path d="M 99.415729 383.138914 
L 106.472916 383.138914 
L 106.472916 386.177664 
L 94.816354 386.177664 
L 94.816354 383.138914 
L 100.670416 377.968914 
Q 101.457604 377.260789 101.832291 376.583601 
Q 102.206979 375.906414 102.206979 375.177664 
Q 102.206979 374.050164 101.450729 373.362664 
Q 100.694479 372.675164 99.436354 372.675164 
Q 98.470416 372.675164 97.318854 373.087664 
Q 96.170729 373.500164 94.861041 374.318289 
L 94.861041 370.794851 
Q 96.256666 370.334226 97.621354 370.093601 
Q 98.986041 369.849539 100.295729 369.849539 
Q 103.176354 369.849539 104.771354 371.117976 
Q 106.366354 372.382976 106.366354 374.651726 
Q 106.366354 375.961414 105.689166 377.095789 
Q 105.011979 378.226726 102.842916 380.131101 
z
M 110.588033 385.823601 
L 110.588033 382.857039 
Q 111.574596 383.321101 112.475221 383.551414 
Q 113.379283 383.781726 114.259283 383.781726 
Q 116.108658 383.781726 117.139908 382.757351 
Q 118.171158 381.729539 118.353346 379.711726 
Q 117.624596 380.247976 116.796158 380.516101 
Q 115.967721 380.784226 115.001783 380.784226 
Q 112.540533 380.784226 111.031471 379.350789 
Q 109.522408 377.917351 109.522408 375.576414 
Q 109.522408 372.984539 111.203346 371.427351 
Q 112.884283 369.870164 115.709908 369.870164 
Q 118.848346 369.870164 120.567096 371.987664 
Q 122.285846 374.101726 122.285846 377.968914 
Q 122.285846 381.946101 120.274908 384.218289 
Q 118.267408 386.490476 114.764596 386.490476 
Q 113.637096 386.490476 112.605846 386.322039 
Q 111.574596 386.157039 110.588033 385.823601 
z
M 115.689283 378.099539 
Q 116.775533 378.099539 117.322096 377.398289 
Q 117.868658 376.693601 117.868658 375.284226 
Q 117.868658 373.888601 117.322096 373.180476 
Q 116.775533 372.468914 115.689283 372.468914 
Q 114.603033 372.468914 114.056471 373.180476 
Q 113.509908 373.888601 113.509908 375.284226 
Q 113.509908 376.693601 114.056471 377.398289 
Q 114.603033 378.099539 115.689283 378.099539 
z
M 125.936901 382.021726 
L 129.804088 382.021726 
L 129.804088 386.177664 
L 125.936901 386.177664 
z
M 134.62776 383.321101 
L 138.281823 383.321101 
L 138.281823 372.953601 
L 134.53151 373.727039 
L 134.53151 370.911726 
L 138.25776 370.138289 
L 142.19026 370.138289 
L 142.19026 383.321101 
L 145.844323 383.321101 
L 145.844323 386.177664 
L 134.62776 386.177664 
z
M 164.403815 379.560476 
Q 163.644127 379.560476 163.224752 380.220476 
Q 162.805377 380.880476 162.805377 382.107664 
Q 162.805377 383.341726 163.217877 384.001726 
Q 163.630377 384.661726 164.403815 384.661726 
Q 165.177252 384.661726 165.586315 384.001726 
Q 165.995377 383.341726 165.995377 382.107664 
Q 165.995377 380.880476 165.57944 380.220476 
Q 165.16694 379.560476 164.403815 379.560476 
z
M 164.403815 377.755789 
Q 166.40444 377.755789 167.552565 378.917664 
Q 168.70069 380.076101 168.70069 382.107664 
Q 168.70069 384.135789 167.552565 385.314851 
Q 166.40444 386.490476 164.403815 386.490476 
Q 162.406627 386.490476 161.251627 385.314851 
Q 160.096627 384.135789 160.096627 382.107664 
Q 160.096627 380.086414 161.251627 378.921101 
Q 162.406627 377.755789 164.403815 377.755789 
z
M 154.555377 386.490476 
L 152.180065 386.490476 
L 162.203815 369.849539 
L 164.58944 369.849539 
z
M 152.35194 369.849539 
Q 154.349127 369.849539 155.493815 371.014851 
Q 156.638502 372.180164 156.638502 374.211726 
Q 156.638502 376.239851 155.493815 377.412039 
Q 154.349127 378.584226 152.35194 378.584226 
Q 150.354752 378.584226 149.210065 377.412039 
Q 148.065377 376.239851 148.065377 374.211726 
Q 148.065377 372.180164 149.210065 371.014851 
Q 150.354752 369.849539 152.35194 369.849539 
z
M 152.35194 371.654226 
Q 151.578502 371.654226 151.159127 372.321101 
Q 150.739752 372.984539 150.739752 374.211726 
Q 150.739752 375.445789 151.159127 376.119539 
Q 151.578502 376.789851 152.35194 376.789851 
Q 153.125377 376.789851 153.537877 376.119539 
Q 153.953815 375.445789 153.953815 374.211726 
Q 153.953815 372.984539 153.53444 372.321101 
Q 153.115065 371.654226 152.35194 371.654226 
z
" style="fill:#ffffff;"/>
   </g>
   <g id="text_5">
    <!-- 0.4.2 -->
    <defs>
     <path d="M 28.8125 13.8125 
L 60.890625 13.8125 
L 60.890625 0 
L 7.90625 0 
L 7.90625 13.8125 
L 34.515625 37.3125 
Q 38.09375 40.53125 39.796875 43.609375 
Q 41.5 46.6875 41.5 50 
Q 41.5 55.125 38.0625 58.25 
Q 34.625 61.375 28.90625 61.375 
Q 24.515625 61.375 19.28125 59.5 
Q 14.0625 57.625 8.109375 53.90625 
L 8.109375 69.921875 
Q 14.453125 72.015625 20.65625 73.109375 
Q 26.859375 74.21875 32.8125 74.21875 
Q 45.90625 74.21875 53.15625 68.453125 
Q 60.40625 62.703125 60.40625 52.390625 
Q 60.40625 46.4375 57.328125 41.28125 
Q 54.25 36.140625 44.390625 27.484375 
z
" id="DejaVuSans-Bold-50"/>
    </defs>
    <g style="fill:#808080;" transform="translate(323.546873 527.571062)scale(0.22 -0.22)">
     <use xlink:href="#DejaVuSans-Bold-48"/>
     <use x="69.580078" xlink:href="#DejaVuSans-Bold-46"/>
     <use x="107.568359" xlink:href="#DejaVuSans-Bold-52"/>
     <use x="177.148438" xlink:href="#DejaVuSans-Bold-46"/>
     <use x="215.136719" xlink:href="#DejaVuSans-Bold-50"/>
    </g>
   </g>
   <g id="text_6">
    <path d="M 274.486191 465.754218 
L 278.140253 465.754218 
L 278.140253 455.386718 
L 274.389941 456.160155 
L 274.389941 453.344843 
L 278.116191 452.571405 
L 282.048691 452.571405 
L 282.048691 465.754218 
L 285.702753 465.754218 
L 285.702753 468.61078 
L 274.486191 468.61078 
z
M 293.554433 465.57203 
L 300.611621 465.57203 
L 300.611621 468.61078 
L 288.955058 468.61078 
L 288.955058 465.57203 
L 294.809121 460.40203 
Q 295.596308 459.693905 295.970996 459.016718 
Q 296.345683 458.33953 296.345683 457.61078 
Q 296.345683 456.48328 295.589433 455.79578 
Q 294.833183 455.10828 293.575058 455.10828 
Q 292.609121 455.10828 291.457558 455.52078 
Q 290.309433 455.93328 288.999746 456.751405 
L 288.999746 453.227968 
Q 290.395371 452.767343 291.760058 452.526718 
Q 293.124746 452.282655 294.434433 452.282655 
Q 297.315058 452.282655 298.910058 453.551093 
Q 300.505058 454.816093 300.505058 457.084843 
Q 300.505058 458.39453 299.827871 459.528905 
Q 299.150683 460.659843 296.981621 462.564218 
z
M 304.767988 464.454843 
L 308.635175 464.454843 
L 308.635175 468.61078 
L 304.767988 468.61078 
z
M 312.351972 452.571405 
L 324.438222 452.571405 
L 324.438222 454.90203 
L 318.18541 468.61078 
L 314.15666 468.61078 
L 320.076035 455.613593 
L 312.351972 455.613593 
z
M 343.234902 461.993593 
Q 342.475214 461.993593 342.055839 462.653593 
Q 341.636464 463.313593 341.636464 464.54078 
Q 341.636464 465.774843 342.048964 466.434843 
Q 342.461464 467.094843 343.234902 467.094843 
Q 344.008339 467.094843 344.417402 466.434843 
Q 344.826464 465.774843 344.826464 464.54078 
Q 344.826464 463.313593 344.410527 462.653593 
Q 343.998027 461.993593 343.234902 461.993593 
z
M 343.234902 460.188905 
Q 345.235527 460.188905 346.383652 461.35078 
Q 347.531777 462.509218 347.531777 464.54078 
Q 347.531777 466.568905 346.383652 467.747968 
Q 345.235527 468.923593 343.234902 468.923593 
Q 341.237714 468.923593 340.082714 467.747968 
Q 338.927714 466.568905 338.927714 464.54078 
Q 338.927714 462.51953 340.082714 461.354218 
Q 341.237714 460.188905 343.234902 460.188905 
z
M 333.386464 468.923593 
L 331.011152 468.923593 
L 341.034902 452.282655 
L 343.420527 452.282655 
z
M 331.183027 452.282655 
Q 333.180214 452.282655 334.324902 453.447968 
Q 335.469589 454.61328 335.469589 456.644843 
Q 335.469589 458.672968 334.324902 459.845155 
Q 333.180214 461.017343 331.183027 461.017343 
Q 329.185839 461.017343 328.041152 459.845155 
Q 326.896464 458.672968 326.896464 456.644843 
Q 326.896464 454.61328 328.041152 453.447968 
Q 329.185839 452.282655 331.183027 452.282655 
z
M 331.183027 454.087343 
Q 330.409589 454.087343 329.990214 454.754218 
Q 329.570839 455.417655 329.570839 456.644843 
Q 329.570839 457.878905 329.990214 458.552655 
Q 330.409589 459.222968 331.183027 459.222968 
Q 331.956464 459.222968 332.368964 458.552655 
Q 332.784902 457.878905 332.784902 456.644843 
Q 332.784902 455.417655 332.365527 454.754218 
Q 331.946152 454.087343 331.183027 454.087343 
z
" style="fill:#ffffff;stroke:#808080;"/>
    <path d="M 274.486191 465.754218 
L 278.140253 465.754218 
L 278.140253 455.386718 
L 274.389941 456.160155 
L 274.389941 453.344843 
L 278.116191 452.571405 
L 282.048691 452.571405 
L 282.048691 465.754218 
L 285.702753 465.754218 
L 285.702753 468.61078 
L 274.486191 468.61078 
z
M 293.554433 465.57203 
L 300.611621 465.57203 
L 300.611621 468.61078 
L 288.955058 468.61078 
L 288.955058 465.57203 
L 294.809121 460.40203 
Q 295.596308 459.693905 295.970996 459.016718 
Q 296.345683 458.33953 296.345683 457.61078 
Q 296.345683 456.48328 295.589433 455.79578 
Q 294.833183 455.10828 293.575058 455.10828 
Q 292.609121 455.10828 291.457558 455.52078 
Q 290.309433 455.93328 288.999746 456.751405 
L 288.999746 453.227968 
Q 290.395371 452.767343 291.760058 452.526718 
Q 293.124746 452.282655 294.434433 452.282655 
Q 297.315058 452.282655 298.910058 453.551093 
Q 300.505058 454.816093 300.505058 457.084843 
Q 300.505058 458.39453 299.827871 459.528905 
Q 299.150683 460.659843 296.981621 462.564218 
z
M 304.767988 464.454843 
L 308.635175 464.454843 
L 308.635175 468.61078 
L 304.767988 468.61078 
z
M 312.351972 452.571405 
L 324.438222 452.571405 
L 324.438222 454.90203 
L 318.18541 468.61078 
L 314.15666 468.61078 
L 320.076035 455.613593 
L 312.351972 455.613593 
z
M 343.234902 461.993593 
Q 342.475214 461.993593 342.055839 462.653593 
Q 341.636464 463.313593 341.636464 464.54078 
Q 341.636464 465.774843 342.048964 466.434843 
Q 342.461464 467.094843 343.234902 467.094843 
Q 344.008339 467.094843 344.417402 466.434843 
Q 344.826464 465.774843 344.826464 464.54078 
Q 344.826464 463.313593 344.410527 462.653593 
Q 343.998027 461.993593 343.234902 461.993593 
z
M 343.234902 460.188905 
Q 345.235527 460.188905 346.383652 461.35078 
Q 347.531777 462.509218 347.531777 464.54078 
Q 347.531777 466.568905 346.383652 467.747968 
Q 345.235527 468.923593 343.234902 468.923593 
Q 341.237714 468.923593 340.082714 467.747968 
Q 338.927714 466.568905 338.927714 464.54078 
Q 338.927714 462.51953 340.082714 461.354218 
Q 341.237714 460.188905 343.234902 460.188905 
z
M 333.386464 468.923593 
L 331.011152 468.923593 
L 341.034902 452.282655 
L 343.420527 452.282655 
z
M 331.183027 452.282655 
Q 333.180214 452.282655 334.324902 453.447968 
Q 335.469589 454.61328 335.469589 456.644843 
Q 335.469589 458.672968 334.324902 459.845155 
Q 333.180214 461.017343 331.183027 461.017343 
Q 329.185839 461.017343 328.041152 459.845155 
Q 326.896464 458.672968 326.896464 456.644843 
Q 326.896464 454.61328 328.041152 453.447968 
Q 329.185839 452.282655 331.183027 452.282655 
z
M 331.183027 454.087343 
Q 330.409589 454.087343 329.990214 454.754218 
Q 329.570839 455.417655 329.570839 456.644843 
Q 329.570839 457.878905 329.990214 458.552655 
Q 330.409589 459.222968 331.183027 459.222968 
Q 331.956464 459.222968 332.368964 458.552655 
Q 332.784902 457.878905 332.784902 456.644843 
Q 332.784902 455.417655 332.365527 454.754218 
Q 331.946152 454.087343 331.183027 454.087343 
z
" style="fill:#ffffff;"/>
   </g>
   <g id="text_7">
    <!-- 0.3.5 -->
    <defs>
     <path d="M 10.59375 72.90625 
L 57.328125 72.90625 
L 57.328125 59.078125 
L 25.59375 59.078125 
L 25.59375 47.796875 
Q 27.734375 48.390625 29.90625 48.703125 
Q 32.078125 49.03125 34.421875 49.03125 
Q 47.75 49.03125 55.171875 42.359375 
Q 62.59375 35.6875 62.59375 23.78125 
Q 62.59375 11.96875 54.515625 5.265625 
Q 46.4375 -1.421875 32.078125 -1.421875 
Q 25.875 -1.421875 19.796875 -0.21875 
Q 13.71875 0.984375 7.71875 3.421875 
L 7.71875 18.21875 
Q 13.671875 14.796875 19.015625 13.078125 
Q 24.359375 11.375 29.109375 11.375 
Q 35.9375 11.375 39.859375 14.71875 
Q 43.796875 18.0625 43.796875 23.78125 
Q 43.796875 29.546875 39.859375 32.859375 
Q 35.9375 36.1875 29.109375 36.1875 
Q 25.046875 36.1875 20.453125 35.125 
Q 15.875 34.078125 10.59375 31.890625 
z
" id="DejaVuSans-Bold-53"/>
    </defs>
    <g style="fill:#808080;" transform="translate(459.184157 433.588256)scale(0.22 -0.22)">
     <use xlink:href="#DejaVuSans-Bold-48"/>
     <use x="69.580078" xlink:href="#DejaVuSans-Bold-46"/>
     <use x="107.568359" xlink:href="#DejaVuSans-Bold-51"/>
     <use x="177.148438" xlink:href="#DejaVuSans-Bold-46"/>
     <use x="215.136719" xlink:href="#DejaVuSans-Bold-53"/>
    </g>
   </g>
   <g id="text_8">
    <path d="M 373.131488 397.403086 
L 376.785551 397.403086 
L 376.785551 387.035586 
L 373.035238 387.809024 
L 373.035238 384.993711 
L 376.761488 384.220274 
L 380.693988 384.220274 
L 380.693988 397.403086 
L 384.348051 397.403086 
L 384.348051 400.259649 
L 373.131488 400.259649 
z
M 388.439106 397.403086 
L 392.093168 397.403086 
L 392.093168 387.035586 
L 388.342856 387.809024 
L 388.342856 384.993711 
L 392.069106 384.220274 
L 396.001606 384.220274 
L 396.001606 397.403086 
L 399.655668 397.403086 
L 399.655668 400.259649 
L 388.439106 400.259649 
z
M 403.413285 396.103711 
L 407.280473 396.103711 
L 407.280473 400.259649 
L 403.413285 400.259649 
z
M 417.48727 392.343086 
Q 416.40102 392.343086 415.857895 393.047774 
Q 415.31477 393.749024 415.31477 395.158399 
Q 415.31477 396.564336 415.857895 397.269024 
Q 416.40102 397.970274 417.48727 397.970274 
Q 418.580395 397.970274 419.12352 397.269024 
Q 419.666645 396.564336 419.666645 395.158399 
Q 419.666645 393.749024 419.12352 393.047774 
Q 418.580395 392.343086 417.48727 392.343086 
z
M 422.598832 384.639649 
L 422.598832 387.606211 
Q 421.577895 387.121524 420.673832 386.891211 
Q 419.773207 386.660899 418.913832 386.660899 
Q 417.067895 386.660899 416.036645 387.688711 
Q 415.005395 388.713086 414.83352 390.730899 
Q 415.541645 390.204961 416.366645 389.943711 
Q 417.195082 389.679024 418.17477 389.679024 
Q 420.632582 389.679024 422.141645 391.119336 
Q 423.650707 392.556211 423.650707 394.886836 
Q 423.650707 397.464961 421.962895 399.018711 
Q 420.27852 400.572461 417.442582 400.572461 
Q 414.317895 400.572461 412.602582 398.461836 
Q 410.890707 396.347774 410.890707 392.470274 
Q 410.890707 388.496524 412.89477 386.224336 
Q 414.898832 383.952149 418.387895 383.952149 
Q 419.49477 383.952149 420.536332 384.124024 
Q 421.577895 384.295899 422.598832 384.639649 
z
M 441.880199 393.642461 
Q 441.120512 393.642461 440.701137 394.302461 
Q 440.281762 394.962461 440.281762 396.189649 
Q 440.281762 397.423711 440.694262 398.083711 
Q 441.106762 398.743711 441.880199 398.743711 
Q 442.653637 398.743711 443.062699 398.083711 
Q 443.471762 397.423711 443.471762 396.189649 
Q 443.471762 394.962461 443.055824 394.302461 
Q 442.643324 393.642461 441.880199 393.642461 
z
M 441.880199 391.837774 
Q 443.880824 391.837774 445.028949 392.999649 
Q 446.177074 394.158086 446.177074 396.189649 
Q 446.177074 398.217774 445.028949 399.396836 
Q 443.880824 400.572461 441.880199 400.572461 
Q 439.883012 400.572461 438.728012 399.396836 
Q 437.573012 398.217774 437.573012 396.189649 
Q 437.573012 394.168399 438.728012 393.003086 
Q 439.883012 391.837774 441.880199 391.837774 
z
M 432.031762 400.572461 
L 429.656449 400.572461 
L 439.680199 383.931524 
L 442.065824 383.931524 
z
M 429.828324 383.931524 
Q 431.825512 383.931524 432.970199 385.096836 
Q 434.114887 386.262149 434.114887 388.293711 
Q 434.114887 390.321836 432.970199 391.494024 
Q 431.825512 392.666211 429.828324 392.666211 
Q 427.831137 392.666211 426.686449 391.494024 
Q 425.541762 390.321836 425.541762 388.293711 
Q 425.541762 386.262149 426.686449 385.096836 
Q 427.831137 383.931524 429.828324 383.931524 
z
M 429.828324 385.736211 
Q 429.054887 385.736211 428.635512 386.403086 
Q 428.216137 387.066524 428.216137 388.293711 
Q 428.216137 389.527774 428.635512 390.201524 
Q 429.054887 390.871836 429.828324 390.871836 
Q 430.601762 390.871836 431.014262 390.201524 
Q 431.430199 389.527774 431.430199 388.293711 
Q 431.430199 387.066524 431.010824 386.403086 
Q 430.591449 385.736211 429.828324 385.736211 
z
" style="fill:#ffffff;stroke:#808080;"/>
    <path d="M 373.131488 397.403086 
L 376.785551 397.403086 
L 376.785551 387.035586 
L 373.035238 387.809024 
L 373.035238 384.993711 
L 376.761488 384.220274 
L 380.693988 384.220274 
L 380.693988 397.403086 
L 384.348051 397.403086 
L 384.348051 400.259649 
L 373.131488 400.259649 
z
M 388.439106 397.403086 
L 392.093168 397.403086 
L 392.093168 387.035586 
L 388.342856 387.809024 
L 388.342856 384.993711 
L 392.069106 384.220274 
L 396.001606 384.220274 
L 396.001606 397.403086 
L 399.655668 397.403086 
L 399.655668 400.259649 
L 388.439106 400.259649 
z
M 403.413285 396.103711 
L 407.280473 396.103711 
L 407.280473 400.259649 
L 403.413285 400.259649 
z
M 417.48727 392.343086 
Q 416.40102 392.343086 415.857895 393.047774 
Q 415.31477 393.749024 415.31477 395.158399 
Q 415.31477 396.564336 415.857895 397.269024 
Q 416.40102 397.970274 417.48727 397.970274 
Q 418.580395 397.970274 419.12352 397.269024 
Q 419.666645 396.564336 419.666645 395.158399 
Q 419.666645 393.749024 419.12352 393.047774 
Q 418.580395 392.343086 417.48727 392.343086 
z
M 422.598832 384.639649 
L 422.598832 387.606211 
Q 421.577895 387.121524 420.673832 386.891211 
Q 419.773207 386.660899 418.913832 386.660899 
Q 417.067895 386.660899 416.036645 387.688711 
Q 415.005395 388.713086 414.83352 390.730899 
Q 415.541645 390.204961 416.366645 389.943711 
Q 417.195082 389.679024 418.17477 389.679024 
Q 420.632582 389.679024 422.141645 391.119336 
Q 423.650707 392.556211 423.650707 394.886836 
Q 423.650707 397.464961 421.962895 399.018711 
Q 420.27852 400.572461 417.442582 400.572461 
Q 414.317895 400.572461 412.602582 398.461836 
Q 410.890707 396.347774 410.890707 392.470274 
Q 410.890707 388.496524 412.89477 386.224336 
Q 414.898832 383.952149 418.387895 383.952149 
Q 419.49477 383.952149 420.536332 384.124024 
Q 421.577895 384.295899 422.598832 384.639649 
z
M 441.880199 393.642461 
Q 441.120512 393.642461 440.701137 394.302461 
Q 440.281762 394.962461 440.281762 396.189649 
Q 440.281762 397.423711 440.694262 398.083711 
Q 441.106762 398.743711 441.880199 398.743711 
Q 442.653637 398.743711 443.062699 398.083711 
Q 443.471762 397.423711 443.471762 396.189649 
Q 443.471762 394.962461 443.055824 394.302461 
Q 442.643324 393.642461 441.880199 393.642461 
z
M 441.880199 391.837774 
Q 443.880824 391.837774 445.028949 392.999649 
Q 446.177074 394.158086 446.177074 396.189649 
Q 446.177074 398.217774 445.028949 399.396836 
Q 443.880824 400.572461 441.880199 400.572461 
Q 439.883012 400.572461 438.728012 399.396836 
Q 437.573012 398.217774 437.573012 396.189649 
Q 437.573012 394.168399 438.728012 393.003086 
Q 439.883012 391.837774 441.880199 391.837774 
z
M 432.031762 400.572461 
L 429.656449 400.572461 
L 439.680199 383.931524 
L 442.065824 383.931524 
z
M 429.828324 383.931524 
Q 431.825512 383.931524 432.970199 385.096836 
Q 434.114887 386.262149 434.114887 388.293711 
Q 434.114887 390.321836 432.970199 391.494024 
Q 431.825512 392.666211 429.828324 392.666211 
Q 427.831137 392.666211 426.686449 391.494024 
Q 425.541762 390.321836 425.541762 388.293711 
Q 425.541762 386.262149 426.686449 385.096836 
Q 427.831137 383.931524 429.828324 383.931524 
z
M 429.828324 385.736211 
Q 429.054887 385.736211 428.635512 386.403086 
Q 428.216137 387.066524 428.216137 388.293711 
Q 428.216137 389.527774 428.635512 390.201524 
Q 429.054887 390.871836 429.828324 390.871836 
Q 430.601762 390.871836 431.014262 390.201524 
Q 431.430199 389.527774 431.430199 388.293711 
Q 431.430199 387.066524 431.010824 386.403086 
Q 430.591449 385.736211 429.828324 385.736211 
z
" style="fill:#ffffff;"/>
   </g>
   <g id="text_9">
    <!-- Other -->
    <defs>
     <path d="M 42.484375 60.59375 
Q 33.890625 60.59375 29.15625 54.25 
Q 24.421875 47.90625 24.421875 36.375 
Q 24.421875 24.90625 29.15625 18.546875 
Q 33.890625 12.203125 42.484375 12.203125 
Q 51.125 12.203125 55.859375 18.546875 
Q 60.59375 24.90625 60.59375 36.375 
Q 60.59375 47.90625 55.859375 54.25 
Q 51.125 60.59375 42.484375 60.59375 
z
M 42.484375 74.21875 
Q 60.0625 74.21875 70.015625 64.15625 
Q 79.984375 54.109375 79.984375 36.375 
Q 79.984375 18.703125 70.015625 8.640625 
Q 60.0625 -1.421875 42.484375 -1.421875 
Q 24.953125 -1.421875 14.96875 8.640625 
Q 4.984375 18.703125 4.984375 36.375 
Q 4.984375 54.109375 14.96875 64.15625 
Q 24.953125 74.21875 42.484375 74.21875 
z
" id="DejaVuSans-Bold-79"/>
     <path d="M 27.484375 70.21875 
L 27.484375 54.6875 
L 45.515625 54.6875 
L 45.515625 42.1875 
L 27.484375 42.1875 
L 27.484375 19 
Q 27.484375 15.1875 29 13.84375 
Q 30.515625 12.5 35.015625 12.5 
L 44 12.5 
L 44 0 
L 29 0 
Q 18.65625 0 14.328125 4.3125 
Q 10.015625 8.640625 10.015625 19 
L 10.015625 42.1875 
L 1.3125 42.1875 
L 1.3125 54.6875 
L 10.015625 54.6875 
L 10.015625 70.21875 
z
" id="DejaVuSans-Bold-116"/>
     <path d="M 63.375 33.296875 
L 63.375 0 
L 45.796875 0 
L 45.796875 5.421875 
L 45.796875 25.390625 
Q 45.796875 32.5625 45.484375 35.25 
Q 45.171875 37.9375 44.390625 39.203125 
Q 43.359375 40.921875 41.59375 41.875 
Q 39.84375 42.828125 37.59375 42.828125 
Q 32.125 42.828125 29 38.59375 
Q 25.875 34.375 25.875 26.90625 
L 25.875 0 
L 8.40625 0 
L 8.40625 75.984375 
L 25.875 75.984375 
L 25.875 46.6875 
Q 29.828125 51.46875 34.265625 53.734375 
Q 38.71875 56 44.09375 56 
Q 53.5625 56 58.46875 50.1875 
Q 63.375 44.390625 63.375 33.296875 
z
" id="DejaVuSans-Bold-104"/>
     <path d="M 62.984375 27.484375 
L 62.984375 22.515625 
L 22.125 22.515625 
Q 22.75 16.359375 26.5625 13.28125 
Q 30.375 10.203125 37.203125 10.203125 
Q 42.71875 10.203125 48.5 11.84375 
Q 54.296875 13.484375 60.40625 16.796875 
L 60.40625 3.328125 
Q 54.203125 0.984375 48 -0.21875 
Q 41.796875 -1.421875 35.59375 -1.421875 
Q 20.75 -1.421875 12.515625 6.125 
Q 4.296875 13.671875 4.296875 27.296875 
Q 4.296875 40.671875 12.375 48.328125 
Q 20.453125 56 34.625 56 
Q 47.515625 56 55.25 48.234375 
Q 62.984375 40.484375 62.984375 27.484375 
z
M 45.015625 33.296875 
Q 45.015625 38.28125 42.109375 41.328125 
Q 39.203125 44.390625 34.515625 44.390625 
Q 29.4375 44.390625 26.265625 41.53125 
Q 23.09375 38.671875 22.3125 33.296875 
z
" id="DejaVuSans-Bold-101"/>
     <path d="M 49.03125 39.796875 
Q 46.734375 40.875 44.453125 41.375 
Q 42.1875 41.890625 39.890625 41.890625 
Q 33.15625 41.890625 29.515625 37.5625 
Q 25.875 33.25 25.875 25.203125 
L 25.875 0 
L 8.40625 0 
L 8.40625 54.6875 
L 25.875 54.6875 
L 25.875 45.703125 
Q 29.25 51.078125 33.609375 53.53125 
Q 37.984375 56 44.09375 56 
Q 44.96875 56 45.984375 55.921875 
Q 47.015625 55.859375 48.96875 55.609375 
z
" id="DejaVuSans-Bold-114"/>
    </defs>
    <g style="fill:#808080;" transform="translate(494.556478 335.698504)scale(0.22 -0.22)">
     <use xlink:href="#DejaVuSans-Bold-79"/>
     <use x="85.009766" xlink:href="#DejaVuSans-Bold-116"/>
     <use x="132.8125" xlink:href="#DejaVuSans-Bold-104"/>
     <use x="204.003906" xlink:href="#DejaVuSans-Bold-101"/>
     <use x="271.826172" xlink:href="#DejaVuSans-Bold-114"/>
    </g>
   </g>
   <g id="text_10">
    <path d="M 414.179469 320.418352 
Q 415.801969 320.837727 416.644156 321.875852 
Q 417.489781 322.910539 417.489781 324.512414 
Q 417.489781 326.898039 415.661031 328.138977 
Q 413.835719 329.379914 410.336344 329.379914 
Q 409.098844 329.379914 407.857906 329.180539 
Q 406.616969 328.981164 405.403531 328.582414 
L 405.403531 325.392414 
Q 406.565406 325.973352 407.706656 326.268977 
Q 408.851344 326.564602 409.958219 326.564602 
Q 411.601344 326.564602 412.477906 325.997414 
Q 413.354469 325.426789 413.354469 324.361164 
Q 413.354469 323.264602 412.457281 322.700852 
Q 411.560094 322.137102 409.806969 322.137102 
L 408.153531 322.137102 
L 408.153531 319.473039 
L 409.892906 319.473039 
Q 411.453531 319.473039 412.213219 318.984914 
Q 412.976344 318.496789 412.976344 317.496477 
Q 412.976344 316.575227 412.233844 316.069914 
Q 411.494781 315.564602 410.140406 315.564602 
Q 409.143531 315.564602 408.122594 315.791477 
Q 407.101656 316.014914 406.091031 316.454914 
L 406.091031 313.426477 
Q 407.314781 313.082727 408.517906 312.910852 
Q 409.721031 312.738977 410.882906 312.738977 
Q 414.007594 312.738977 415.557906 313.766789 
Q 417.111656 314.791164 417.111656 316.853664 
Q 417.111656 318.259602 416.369156 319.156789 
Q 415.630094 320.053977 414.179469 320.418352 
z
M 421.484586 324.911164 
L 425.351774 324.911164 
L 425.351774 329.067102 
L 421.484586 329.067102 
z
M 429.927946 313.027727 
L 440.209508 313.027727 
L 440.209508 316.069914 
L 433.227946 316.069914 
L 433.227946 318.551789 
Q 433.698883 318.421164 434.176696 318.352414 
Q 434.654508 318.280227 435.170133 318.280227 
Q 438.102321 318.280227 439.735133 319.748039 
Q 441.367946 321.215852 441.367946 323.835227 
Q 441.367946 326.433977 439.590758 327.908664 
Q 437.813571 329.379914 434.654508 329.379914 
Q 433.289821 329.379914 431.952633 329.115227 
Q 430.615446 328.850539 429.295446 328.314289 
L 429.295446 325.058977 
Q 430.605133 325.811789 431.780758 326.189914 
Q 432.956383 326.564602 434.001383 326.564602 
Q 435.503571 326.564602 436.366383 325.828977 
Q 437.232633 325.093352 437.232633 323.835227 
Q 437.232633 322.566789 436.366383 321.838039 
Q 435.503571 321.105852 434.001383 321.105852 
Q 433.107633 321.105852 432.097008 321.339602 
Q 431.089821 321.569914 429.927946 322.051164 
z
M 459.9515 322.449914 
Q 459.191813 322.449914 458.772438 323.109914 
Q 458.353063 323.769914 458.353063 324.997102 
Q 458.353063 326.231164 458.765563 326.891164 
Q 459.178063 327.551164 459.9515 327.551164 
Q 460.724938 327.551164 461.134 326.891164 
Q 461.543063 326.231164 461.543063 324.997102 
Q 461.543063 323.769914 461.127125 323.109914 
Q 460.714625 322.449914 459.9515 322.449914 
z
M 459.9515 320.645227 
Q 461.952125 320.645227 463.10025 321.807102 
Q 464.248375 322.965539 464.248375 324.997102 
Q 464.248375 327.025227 463.10025 328.204289 
Q 461.952125 329.379914 459.9515 329.379914 
Q 457.954313 329.379914 456.799313 328.204289 
Q 455.644313 327.025227 455.644313 324.997102 
Q 455.644313 322.975852 456.799313 321.810539 
Q 457.954313 320.645227 459.9515 320.645227 
z
M 450.103063 329.379914 
L 447.72775 329.379914 
L 457.7515 312.738977 
L 460.137125 312.738977 
z
M 447.899625 312.738977 
Q 449.896813 312.738977 451.0415 313.904289 
Q 452.186188 315.069602 452.186188 317.101164 
Q 452.186188 319.129289 451.0415 320.301477 
Q 449.896813 321.473664 447.899625 321.473664 
Q 445.902438 321.473664 444.75775 320.301477 
Q 443.613063 319.129289 443.613063 317.101164 
Q 443.613063 315.069602 444.75775 313.904289 
Q 445.902438 312.738977 447.899625 312.738977 
z
M 447.899625 314.543664 
Q 447.126188 314.543664 446.706813 315.210539 
Q 446.287438 315.873977 446.287438 317.101164 
Q 446.287438 318.335227 446.706813 319.008977 
Q 447.126188 319.679289 447.899625 319.679289 
Q 448.673063 319.679289 449.085563 319.008977 
Q 449.5015 318.335227 449.5015 317.101164 
Q 449.5015 315.873977 449.082125 315.210539 
Q 448.66275 314.543664 447.899625 314.543664 
z
" style="fill:#ffffff;stroke:#808080;"/>
    <path d="M 414.179469 320.418352 
Q 415.801969 320.837727 416.644156 321.875852 
Q 417.489781 322.910539 417.489781 324.512414 
Q 417.489781 326.898039 415.661031 328.138977 
Q 413.835719 329.379914 410.336344 329.379914 
Q 409.098844 329.379914 407.857906 329.180539 
Q 406.616969 328.981164 405.403531 328.582414 
L 405.403531 325.392414 
Q 406.565406 325.973352 407.706656 326.268977 
Q 408.851344 326.564602 409.958219 326.564602 
Q 411.601344 326.564602 412.477906 325.997414 
Q 413.354469 325.426789 413.354469 324.361164 
Q 413.354469 323.264602 412.457281 322.700852 
Q 411.560094 322.137102 409.806969 322.137102 
L 408.153531 322.137102 
L 408.153531 319.473039 
L 409.892906 319.473039 
Q 411.453531 319.473039 412.213219 318.984914 
Q 412.976344 318.496789 412.976344 317.496477 
Q 412.976344 316.575227 412.233844 316.069914 
Q 411.494781 315.564602 410.140406 315.564602 
Q 409.143531 315.564602 408.122594 315.791477 
Q 407.101656 316.014914 406.091031 316.454914 
L 406.091031 313.426477 
Q 407.314781 313.082727 408.517906 312.910852 
Q 409.721031 312.738977 410.882906 312.738977 
Q 414.007594 312.738977 415.557906 313.766789 
Q 417.111656 314.791164 417.111656 316.853664 
Q 417.111656 318.259602 416.369156 319.156789 
Q 415.630094 320.053977 414.179469 320.418352 
z
M 421.484586 324.911164 
L 425.351774 324.911164 
L 425.351774 329.067102 
L 421.484586 329.067102 
z
M 429.927946 313.027727 
L 440.209508 313.027727 
L 440.209508 316.069914 
L 433.227946 316.069914 
L 433.227946 318.551789 
Q 433.698883 318.421164 434.176696 318.352414 
Q 434.654508 318.280227 435.170133 318.280227 
Q 438.102321 318.280227 439.735133 319.748039 
Q 441.367946 321.215852 441.367946 323.835227 
Q 441.367946 326.433977 439.590758 327.908664 
Q 437.813571 329.379914 434.654508 329.379914 
Q 433.289821 329.379914 431.952633 329.115227 
Q 430.615446 328.850539 429.295446 328.314289 
L 429.295446 325.058977 
Q 430.605133 325.811789 431.780758 326.189914 
Q 432.956383 326.564602 434.001383 326.564602 
Q 435.503571 326.564602 436.366383 325.828977 
Q 437.232633 325.093352 437.232633 323.835227 
Q 437.232633 322.566789 436.366383 321.838039 
Q 435.503571 321.105852 434.001383 321.105852 
Q 433.107633 321.105852 432.097008 321.339602 
Q 431.089821 321.569914 429.927946 322.051164 
z
M 459.9515 322.449914 
Q 459.191813 322.449914 458.772438 323.109914 
Q 458.353063 323.769914 458.353063 324.997102 
Q 458.353063 326.231164 458.765563 326.891164 
Q 459.178063 327.551164 459.9515 327.551164 
Q 460.724938 327.551164 461.134 326.891164 
Q 461.543063 326.231164 461.543063 324.997102 
Q 461.543063 323.769914 461.127125 323.109914 
Q 460.714625 322.449914 459.9515 322.449914 
z
M 459.9515 320.645227 
Q 461.952125 320.645227 463.10025 321.807102 
Q 464.248375 322.965539 464.248375 324.997102 
Q 464.248375 327.025227 463.10025 328.204289 
Q 461.952125 329.379914 459.9515 329.379914 
Q 457.954313 329.379914 456.799313 328.204289 
Q 455.644313 327.025227 455.644313 324.997102 
Q 455.644313 322.975852 456.799313 321.810539 
Q 457.954313 320.645227 459.9515 320.645227 
z
M 450.103063 329.379914 
L 447.72775 329.379914 
L 457.7515 312.738977 
L 460.137125 312.738977 
z
M 447.899625 312.738977 
Q 449.896813 312.738977 451.0415 313.904289 
Q 452.186188 315.069602 452.186188 317.101164 
Q 452.186188 319.129289 451.0415 320.301477 
Q 449.896813 321.473664 447.899625 321.473664 
Q 445.902438 321.473664 444.75775 320.301477 
Q 443.613063 319.129289 443.613063 317.101164 
Q 443.613063 315.069602 444.75775 313.904289 
Q 445.902438 312.738977 447.899625 312.738977 
z
M 447.899625 314.543664 
Q 447.126188 314.543664 446.706813 315.210539 
Q 446.287438 315.873977 446.287438 317.101164 
Q 446.287438 318.335227 446.706813 319.008977 
Q 447.126188 319.679289 447.899625 319.679289 
Q 448.673063 319.679289 449.085563 319.008977 
Q 449.5015 318.335227 449.5015 317.101164 
Q 449.5015 315.873977 449.082125 315.210539 
Q 448.66275 314.543664 447.899625 314.543664 
z
" style="fill:#ffffff;"/>
   </g>
   <g id="text_11">
    <!-- Total Bandwidth of Relays by Version -->
    <defs>
     <path d="M 0.484375 72.90625 
L 67.671875 72.90625 
L 67.671875 58.6875 
L 43.5 58.6875 
L 43.5 0 
L 24.703125 0 
L 24.703125 58.6875 
L 0.484375 58.6875 
z
" id="DejaVuSans-Bold-84"/>
     <path d="M 34.421875 43.5 
Q 28.609375 43.5 25.5625 39.328125 
Q 22.515625 35.15625 22.515625 27.296875 
Q 22.515625 19.4375 25.5625 15.25 
Q 28.609375 11.078125 34.421875 11.078125 
Q 40.140625 11.078125 43.15625 15.25 
Q 46.1875 19.4375 46.1875 27.296875 
Q 46.1875 35.15625 43.15625 39.328125 
Q 40.140625 43.5 34.421875 43.5 
z
M 34.421875 56 
Q 48.53125 56 56.46875 48.375 
Q 64.40625 40.765625 64.40625 27.296875 
Q 64.40625 13.8125 56.46875 6.1875 
Q 48.53125 -1.421875 34.421875 -1.421875 
Q 20.265625 -1.421875 12.28125 6.1875 
Q 4.296875 13.8125 4.296875 27.296875 
Q 4.296875 40.765625 12.28125 48.375 
Q 20.265625 56 34.421875 56 
z
" id="DejaVuSans-Bold-111"/>
     <path d="M 32.90625 24.609375 
Q 27.4375 24.609375 24.671875 22.75 
Q 21.921875 20.90625 21.921875 17.28125 
Q 21.921875 13.96875 24.140625 12.078125 
Q 26.375 10.203125 30.328125 10.203125 
Q 35.25 10.203125 38.625 13.734375 
Q 42 17.28125 42 22.609375 
L 42 24.609375 
z
M 59.625 31.203125 
L 59.625 0 
L 42 0 
L 42 8.109375 
Q 38.484375 3.125 34.078125 0.84375 
Q 29.6875 -1.421875 23.390625 -1.421875 
Q 14.890625 -1.421875 9.59375 3.53125 
Q 4.296875 8.5 4.296875 16.40625 
Q 4.296875 26.03125 10.90625 30.515625 
Q 17.53125 35.015625 31.6875 35.015625 
L 42 35.015625 
L 42 36.375 
Q 42 40.53125 38.71875 42.453125 
Q 35.453125 44.390625 28.515625 44.390625 
Q 22.90625 44.390625 18.0625 43.265625 
Q 13.234375 42.140625 9.078125 39.890625 
L 9.078125 53.21875 
Q 14.703125 54.59375 20.359375 55.296875 
Q 26.03125 56 31.6875 56 
Q 46.484375 56 53.046875 50.171875 
Q 59.625 44.34375 59.625 31.203125 
z
" id="DejaVuSans-Bold-97"/>
     <path d="M 8.40625 75.984375 
L 25.875 75.984375 
L 25.875 0 
L 8.40625 0 
z
" id="DejaVuSans-Bold-108"/>
     <path id="DejaVuSans-Bold-32"/>
     <path d="M 38.375 44.671875 
Q 42.828125 44.671875 45.109375 46.625 
Q 47.40625 48.578125 47.40625 52.390625 
Q 47.40625 56.15625 45.109375 58.125 
Q 42.828125 60.109375 38.375 60.109375 
L 27.984375 60.109375 
L 27.984375 44.671875 
z
M 39.015625 12.796875 
Q 44.671875 12.796875 47.53125 15.1875 
Q 50.390625 17.578125 50.390625 22.40625 
Q 50.390625 27.15625 47.5625 29.515625 
Q 44.734375 31.890625 39.015625 31.890625 
L 27.984375 31.890625 
L 27.984375 12.796875 
z
M 56.5 39.015625 
Q 62.546875 37.25 65.859375 32.515625 
Q 69.1875 27.78125 69.1875 20.90625 
Q 69.1875 10.359375 62.0625 5.171875 
Q 54.9375 0 40.375 0 
L 9.1875 0 
L 9.1875 72.90625 
L 37.40625 72.90625 
Q 52.59375 72.90625 59.40625 68.3125 
Q 66.21875 63.71875 66.21875 53.609375 
Q 66.21875 48.296875 63.71875 44.5625 
Q 61.234375 40.828125 56.5 39.015625 
z
" id="DejaVuSans-Bold-66"/>
     <path d="M 63.375 33.296875 
L 63.375 0 
L 45.796875 0 
L 45.796875 5.421875 
L 45.796875 25.484375 
Q 45.796875 32.5625 45.484375 35.25 
Q 45.171875 37.9375 44.390625 39.203125 
Q 43.359375 40.921875 41.59375 41.875 
Q 39.84375 42.828125 37.59375 42.828125 
Q 32.125 42.828125 29 38.59375 
Q 25.875 34.375 25.875 26.90625 
L 25.875 0 
L 8.40625 0 
L 8.40625 54.6875 
L 25.875 54.6875 
L 25.875 46.6875 
Q 29.828125 51.46875 34.265625 53.734375 
Q 38.71875 56 44.09375 56 
Q 53.5625 56 58.46875 50.1875 
Q 63.375 44.390625 63.375 33.296875 
z
" id="DejaVuSans-Bold-110"/>
     <path d="M 45.609375 46.6875 
L 45.609375 75.984375 
L 63.1875 75.984375 
L 63.1875 0 
L 45.609375 0 
L 45.609375 7.90625 
Q 42 3.078125 37.640625 0.828125 
Q 33.296875 -1.421875 27.59375 -1.421875 
Q 17.484375 -1.421875 10.984375 6.609375 
Q 4.5 14.65625 4.5 27.296875 
Q 4.5 39.9375 10.984375 47.96875 
Q 17.484375 56 27.59375 56 
Q 33.25 56 37.625 53.734375 
Q 42 51.46875 45.609375 46.6875 
z
M 34.078125 11.28125 
Q 39.703125 11.28125 42.65625 15.375 
Q 45.609375 19.484375 45.609375 27.296875 
Q 45.609375 35.109375 42.65625 39.203125 
Q 39.703125 43.3125 34.078125 43.3125 
Q 28.515625 43.3125 25.5625 39.203125 
Q 22.609375 35.109375 22.609375 27.296875 
Q 22.609375 19.484375 25.5625 15.375 
Q 28.515625 11.28125 34.078125 11.28125 
z
" id="DejaVuSans-Bold-100"/>
     <path d="M 3.515625 54.6875 
L 20.515625 54.6875 
L 29.6875 17 
L 38.921875 54.6875 
L 53.515625 54.6875 
L 62.703125 17.390625 
L 71.921875 54.6875 
L 88.921875 54.6875 
L 74.515625 0 
L 55.421875 0 
L 46.1875 37.59375 
L 37.015625 0 
L 17.921875 0 
z
" id="DejaVuSans-Bold-119"/>
     <path d="M 8.40625 54.6875 
L 25.875 54.6875 
L 25.875 0 
L 8.40625 0 
z
M 8.40625 75.984375 
L 25.875 75.984375 
L 25.875 61.71875 
L 8.40625 61.71875 
z
" id="DejaVuSans-Bold-105"/>
     <path d="M 44.390625 75.984375 
L 44.390625 64.5 
L 34.71875 64.5 
Q 31 64.5 29.53125 63.15625 
Q 28.078125 61.8125 28.078125 58.5 
L 28.078125 54.6875 
L 43.015625 54.6875 
L 43.015625 42.1875 
L 28.078125 42.1875 
L 28.078125 0 
L 10.59375 0 
L 10.59375 42.1875 
L 1.90625 42.1875 
L 1.90625 54.6875 
L 10.59375 54.6875 
L 10.59375 58.5 
Q 10.59375 67.4375 15.578125 71.703125 
Q 20.5625 75.984375 31 75.984375 
z
" id="DejaVuSans-Bold-102"/>
     <path d="M 35.890625 40.578125 
Q 41.796875 40.578125 44.359375 42.765625 
Q 46.921875 44.96875 46.921875 50 
Q 46.921875 54.984375 44.359375 57.125 
Q 41.796875 59.28125 35.890625 59.28125 
L 27.984375 59.28125 
L 27.984375 40.578125 
z
M 27.984375 27.59375 
L 27.984375 0 
L 9.1875 0 
L 9.1875 72.90625 
L 37.890625 72.90625 
Q 52.296875 72.90625 59 68.0625 
Q 65.71875 63.234375 65.71875 52.78125 
Q 65.71875 45.5625 62.21875 40.921875 
Q 58.734375 36.28125 51.703125 34.078125 
Q 55.5625 33.203125 58.609375 30.09375 
Q 61.671875 27 64.796875 20.703125 
L 75 0 
L 54.984375 0 
L 46.09375 18.109375 
Q 43.40625 23.578125 40.640625 25.578125 
Q 37.890625 27.59375 33.296875 27.59375 
z
" id="DejaVuSans-Bold-82"/>
     <path d="M 1.21875 54.6875 
L 18.703125 54.6875 
L 33.40625 17.578125 
L 45.90625 54.6875 
L 63.375 54.6875 
L 40.375 -5.171875 
Q 36.921875 -14.3125 32.296875 -17.9375 
Q 27.6875 -21.578125 20.125 -21.578125 
L 10.015625 -21.578125 
L 10.015625 -10.109375 
L 15.484375 -10.109375 
Q 19.921875 -10.109375 21.9375 -8.6875 
Q 23.96875 -7.28125 25.09375 -3.609375 
L 25.59375 -2.09375 
z
" id="DejaVuSans-Bold-121"/>
     <path d="M 51.125 52.984375 
L 51.125 39.703125 
Q 45.515625 42.046875 40.28125 43.21875 
Q 35.0625 44.390625 30.421875 44.390625 
Q 25.4375 44.390625 23.015625 43.140625 
Q 20.609375 41.890625 20.609375 39.3125 
Q 20.609375 37.203125 22.4375 36.078125 
Q 24.265625 34.96875 29 34.421875 
L 32.078125 33.984375 
Q 45.515625 32.28125 50.140625 28.375 
Q 54.78125 24.46875 54.78125 16.109375 
Q 54.78125 7.375 48.328125 2.96875 
Q 41.890625 -1.421875 29.109375 -1.421875 
Q 23.6875 -1.421875 17.890625 -0.5625 
Q 12.109375 0.296875 6 2 
L 6 15.28125 
Q 11.234375 12.75 16.71875 11.46875 
Q 22.21875 10.203125 27.875 10.203125 
Q 33.015625 10.203125 35.59375 11.609375 
Q 38.1875 13.03125 38.1875 15.828125 
Q 38.1875 18.171875 36.40625 19.3125 
Q 34.625 20.453125 29.296875 21.09375 
L 26.21875 21.484375 
Q 14.546875 22.953125 9.859375 26.90625 
Q 5.171875 30.859375 5.171875 38.921875 
Q 5.171875 47.609375 11.125 51.796875 
Q 17.09375 56 29.390625 56 
Q 34.234375 56 39.546875 55.265625 
Q 44.875 54.546875 51.125 52.984375 
z
" id="DejaVuSans-Bold-115"/>
     <path d="M 37.5 11.28125 
Q 43.109375 11.28125 46.0625 15.375 
Q 49.03125 19.484375 49.03125 27.296875 
Q 49.03125 35.109375 46.0625 39.203125 
Q 43.109375 43.3125 37.5 43.3125 
Q 31.890625 43.3125 28.875 39.1875 
Q 25.875 35.0625 25.875 27.296875 
Q 25.875 19.53125 28.875 15.40625 
Q 31.890625 11.28125 37.5 11.28125 
z
M 25.875 46.6875 
Q 29.5 51.46875 33.890625 53.734375 
Q 38.28125 56 44 56 
Q 54.109375 56 60.59375 47.96875 
Q 67.09375 39.9375 67.09375 27.296875 
Q 67.09375 14.65625 60.59375 6.609375 
Q 54.109375 -1.421875 44 -1.421875 
Q 38.28125 -1.421875 33.890625 0.84375 
Q 29.5 3.125 25.875 7.90625 
L 25.875 0 
L 8.40625 0 
L 8.40625 75.984375 
L 25.875 75.984375 
z
" id="DejaVuSans-Bold-98"/>
     <path d="M 0.484375 72.90625 
L 19.390625 72.90625 
L 38.71875 19.09375 
L 58.015625 72.90625 
L 76.90625 72.90625 
L 49.90625 0 
L 27.484375 0 
z
" id="DejaVuSans-Bold-86"/>
    </defs>
    <g style="fill:#808080;" transform="translate(9.726715 28.306166)scale(0.25 -0.25)">
     <use xlink:href="#DejaVuSans-Bold-84"/>
     <use x="68.009766" xlink:href="#DejaVuSans-Bold-111"/>
     <use x="136.710938" xlink:href="#DejaVuSans-Bold-116"/>
     <use x="184.513672" xlink:href="#DejaVuSans-Bold-97"/>
     <use x="251.994141" xlink:href="#DejaVuSans-Bold-108"/>
     <use x="286.271484" xlink:href="#DejaVuSans-Bold-32"/>
     <use x="321.085938" xlink:href="#DejaVuSans-Bold-66"/>
     <use x="397.306641" xlink:href="#DejaVuSans-Bold-97"/>
     <use x="464.787109" xlink:href="#DejaVuSans-Bold-110"/>
     <use x="535.978516" xlink:href="#DejaVuSans-Bold-100"/>
     <use x="607.560547" xlink:href="#DejaVuSans-Bold-119"/>
     <use x="699.943359" xlink:href="#DejaVuSans-Bold-105"/>
     <use x="734.220703" xlink:href="#DejaVuSans-Bold-100"/>
     <use x="805.802734" xlink:href="#DejaVuSans-Bold-116"/>
     <use x="853.605469" xlink:href="#DejaVuSans-Bold-104"/>
     <use x="924.796875" xlink:href="#DejaVuSans-Bold-32"/>
     <use x="959.611328" xlink:href="#DejaVuSans-Bold-111"/>
     <use x="1028.3125" xlink:href="#DejaVuSans-Bold-102"/>
     <use x="1071.818359" xlink:href="#DejaVuSans-Bold-32"/>
     <use x="1106.632812" xlink:href="#DejaVuSans-Bold-82"/>
     <use x="1183.634766" xlink:href="#DejaVuSans-Bold-101"/>
     <use x="1251.457031" xlink:href="#DejaVuSans-Bold-108"/>
     <use x="1285.734375" xlink:href="#DejaVuSans-Bold-97"/>
     <use x="1353.167969" xlink:href="#DejaVuSans-Bold-121"/>
     <use x="1418.353516" xlink:href="#DejaVuSans-Bold-115"/>
     <use x="1477.875" xlink:href="#DejaVuSans-Bold-32"/>
     <use x="1512.689453" xlink:href="#DejaVuSans-Bold-98"/>
     <use x="1584.271484" xlink:href="#DejaVuSans-Bold-121"/>
     <use x="1649.457031" xlink:href="#DejaVuSans-Bold-32"/>
     <use x="1684.271484" xlink:href="#DejaVuSans-Bold-86"/>
     <use x="1761.585938" xlink:href="#DejaVuSans-Bold-101"/>
     <use x="1829.408203" xlink:href="#DejaVuSans-Bold-114"/>
     <use x="1878.724609" xlink:href="#DejaVuSans-Bold-115"/>
     <use x="1938.246094" xlink:href="#DejaVuSans-Bold-105"/>
     <use x="1972.523438" xlink:href="#DejaVuSans-Bold-111"/>
     <use x="2041.224609" xlink:href="#DejaVuSans-Bold-110"/>
    </g>
   </g>
  </g>
  <g id="text_12">
   <!-- AceLewis.com - Date: 2020-09-25 -->
   <defs>
    <path d="M 53.421875 13.28125 
L 24.03125 13.28125 
L 19.390625 0 
L 0.484375 0 
L 27.484375 72.90625 
L 49.90625 72.90625 
L 76.90625 0 
L 58.015625 0 
z
M 28.71875 26.8125 
L 48.6875 26.8125 
L 38.71875 55.8125 
z
" id="DejaVuSans-Bold-65"/>
    <path d="M 52.59375 52.984375 
L 52.59375 38.71875 
Q 49.03125 41.15625 45.4375 42.328125 
Q 41.84375 43.5 37.984375 43.5 
Q 30.671875 43.5 26.59375 39.234375 
Q 22.515625 34.96875 22.515625 27.296875 
Q 22.515625 19.625 26.59375 15.34375 
Q 30.671875 11.078125 37.984375 11.078125 
Q 42.09375 11.078125 45.78125 12.296875 
Q 49.46875 13.53125 52.59375 15.921875 
L 52.59375 1.609375 
Q 48.484375 0.09375 44.265625 -0.65625 
Q 40.046875 -1.421875 35.796875 -1.421875 
Q 21 -1.421875 12.640625 6.171875 
Q 4.296875 13.765625 4.296875 27.296875 
Q 4.296875 40.828125 12.640625 48.40625 
Q 21 56 35.796875 56 
Q 40.09375 56 44.265625 55.25 
Q 48.4375 54.5 52.59375 52.984375 
z
" id="DejaVuSans-Bold-99"/>
    <path d="M 9.1875 72.90625 
L 27.984375 72.90625 
L 27.984375 14.203125 
L 60.984375 14.203125 
L 60.984375 0 
L 9.1875 0 
z
" id="DejaVuSans-Bold-76"/>
    <path d="M 59.078125 45.609375 
Q 62.40625 50.6875 66.96875 53.34375 
Q 71.53125 56 77 56 
Q 86.421875 56 91.359375 50.1875 
Q 96.296875 44.390625 96.296875 33.296875 
L 96.296875 0 
L 78.71875 0 
L 78.71875 28.515625 
Q 78.765625 29.15625 78.78125 29.828125 
Q 78.8125 30.515625 78.8125 31.78125 
Q 78.8125 37.59375 77.09375 40.203125 
Q 75.390625 42.828125 71.578125 42.828125 
Q 66.609375 42.828125 63.890625 38.71875 
Q 61.1875 34.625 61.078125 26.859375 
L 61.078125 0 
L 43.5 0 
L 43.5 28.515625 
Q 43.5 37.59375 41.9375 40.203125 
Q 40.375 42.828125 36.375 42.828125 
Q 31.34375 42.828125 28.609375 38.703125 
Q 25.875 34.578125 25.875 26.90625 
L 25.875 0 
L 8.296875 0 
L 8.296875 54.6875 
L 25.875 54.6875 
L 25.875 46.6875 
Q 29.109375 51.3125 33.28125 53.65625 
Q 37.453125 56 42.484375 56 
Q 48.140625 56 52.484375 53.265625 
Q 56.84375 50.53125 59.078125 45.609375 
z
" id="DejaVuSans-Bold-109"/>
    <path d="M 5.421875 35.890625 
L 36.078125 35.890625 
L 36.078125 21.6875 
L 5.421875 21.6875 
z
" id="DejaVuSans-Bold-45"/>
    <path d="M 27.984375 58.6875 
L 27.984375 14.203125 
L 34.71875 14.203125 
Q 46.234375 14.203125 52.3125 19.921875 
Q 58.40625 25.640625 58.40625 36.53125 
Q 58.40625 47.359375 52.34375 53.015625 
Q 46.296875 58.6875 34.71875 58.6875 
z
M 9.1875 72.90625 
L 29 72.90625 
Q 45.609375 72.90625 53.734375 70.53125 
Q 61.859375 68.171875 67.671875 62.5 
Q 72.796875 57.5625 75.28125 51.109375 
Q 77.78125 44.671875 77.78125 36.53125 
Q 77.78125 28.265625 75.28125 21.796875 
Q 72.796875 15.328125 67.671875 10.40625 
Q 61.8125 4.734375 53.609375 2.359375 
Q 45.40625 0 29 0 
L 9.1875 0 
z
" id="DejaVuSans-Bold-68"/>
    <path d="M 11.1875 54.6875 
L 28.8125 54.6875 
L 28.8125 35.796875 
L 11.1875 35.796875 
z
M 11.1875 18.890625 
L 28.8125 18.890625 
L 28.8125 0 
L 11.1875 0 
z
" id="DejaVuSans-Bold-58"/>
    <path d="M 10.015625 1.609375 
L 10.015625 15.09375 
Q 14.5 12.984375 18.59375 11.9375 
Q 22.703125 10.890625 26.703125 10.890625 
Q 35.109375 10.890625 39.796875 15.546875 
Q 44.484375 20.21875 45.3125 29.390625 
Q 42 26.953125 38.234375 25.734375 
Q 34.46875 24.515625 30.078125 24.515625 
Q 18.890625 24.515625 12.03125 31.03125 
Q 5.171875 37.546875 5.171875 48.1875 
Q 5.171875 59.96875 12.8125 67.046875 
Q 20.453125 74.125 33.296875 74.125 
Q 47.5625 74.125 55.375 64.5 
Q 63.1875 54.890625 63.1875 37.3125 
Q 63.1875 19.234375 54.046875 8.90625 
Q 44.921875 -1.421875 29 -1.421875 
Q 23.875 -1.421875 19.1875 -0.65625 
Q 14.5 0.09375 10.015625 1.609375 
z
M 33.203125 36.71875 
Q 38.140625 36.71875 40.625 39.90625 
Q 43.109375 43.109375 43.109375 49.515625 
Q 43.109375 55.859375 40.625 59.078125 
Q 38.140625 62.3125 33.203125 62.3125 
Q 28.265625 62.3125 25.78125 59.078125 
Q 23.296875 55.859375 23.296875 49.515625 
Q 23.296875 43.109375 25.78125 39.90625 
Q 28.265625 36.71875 33.203125 36.71875 
z
" id="DejaVuSans-Bold-57"/>
   </defs>
   <g style="fill:#808080;" transform="translate(0 575.8848)scale(0.1 -0.1)">
    <use xlink:href="#DejaVuSans-Bold-65"/>
    <use x="77.392578" xlink:href="#DejaVuSans-Bold-99"/>
    <use x="136.669922" xlink:href="#DejaVuSans-Bold-101"/>
    <use x="204.492188" xlink:href="#DejaVuSans-Bold-76"/>
    <use x="268.212891" xlink:href="#DejaVuSans-Bold-101"/>
    <use x="336.035156" xlink:href="#DejaVuSans-Bold-119"/>
    <use x="428.417969" xlink:href="#DejaVuSans-Bold-105"/>
    <use x="462.695312" xlink:href="#DejaVuSans-Bold-115"/>
    <use x="522.216797" xlink:href="#DejaVuSans-Bold-46"/>
    <use x="560.205078" xlink:href="#DejaVuSans-Bold-99"/>
    <use x="619.482422" xlink:href="#DejaVuSans-Bold-111"/>
    <use x="688.183594" xlink:href="#DejaVuSans-Bold-109"/>
    <use x="792.382812" xlink:href="#DejaVuSans-Bold-32"/>
    <use x="827.197266" xlink:href="#DejaVuSans-Bold-45"/>
    <use x="868.701172" xlink:href="#DejaVuSans-Bold-32"/>
    <use x="903.515625" xlink:href="#DejaVuSans-Bold-68"/>
    <use x="986.523438" xlink:href="#DejaVuSans-Bold-97"/>
    <use x="1054.003906" xlink:href="#DejaVuSans-Bold-116"/>
    <use x="1101.806641" xlink:href="#DejaVuSans-Bold-101"/>
    <use x="1169.628906" xlink:href="#DejaVuSans-Bold-58"/>
    <use x="1209.619141" xlink:href="#DejaVuSans-Bold-32"/>
    <use x="1244.433594" xlink:href="#DejaVuSans-Bold-50"/>
    <use x="1314.013672" xlink:href="#DejaVuSans-Bold-48"/>
    <use x="1383.59375" xlink:href="#DejaVuSans-Bold-50"/>
    <use x="1453.173828" xlink:href="#DejaVuSans-Bold-48"/>
    <use x="1522.753906" xlink:href="#DejaVuSans-Bold-45"/>
    <use x="1564.257812" xlink:href="#DejaVuSans-Bold-48"/>
    <use x="1633.837891" xlink:href="#DejaVuSans-Bold-57"/>
    <use x="1703.417969" xlink:href="#DejaVuSans-Bold-45"/>
    <use x="1744.921875" xlink:href="#DejaVuSans-Bold-50"/>
    <use x="1814.501953" xlink:href="#DejaVuSans-Bold-53"/>
   </g>
  </g>
 </g>
</svg>
