<?xml version="1.0" encoding="utf-8" standalone="no"?>
<!DOCTYPE svg PUBLIC "-//W3C//DTD SVG 1.1//EN"
  "http://www.w3.org/Graphics/SVG/1.1/DTD/svg11.dtd">
<!-- Created with matplotlib (https://matplotlib.org/) -->
<svg height="576pt" version="1.1" viewBox="0 0 576 576" width="576pt" xmlns="http://www.w3.org/2000/svg" xmlns:xlink="http://www.w3.org/1999/xlink">
 <defs>
  <style type="text/css">
*{stroke-linecap:butt;stroke-linejoin:round;}
  </style>
 </defs>
 <g id="figure_1">
  <g id="patch_1">
   <path d="M 0 576 
L 576 576 
L 576 0 
L 0 0 
z
" style="fill:#ffffff;"/>
  </g>
  <g id="axes_1">
   <g id="patch_2">
    <path d="M 476.359933 302.778541 
C 476.359933 261.819701 463.348701 221.900768 439.212514 188.808909 
C 415.076328 155.717051 381.040777 131.132611 342.040099 118.61967 
C 303.039421 106.106728 261.053997 106.30067 222.170582 119.173377 
C 183.287166 132.046084 149.480187 156.943906 125.650743 190.257329 
L 188.57234 235.265814 
C 202.870007 215.27776 223.154195 200.339067 246.484244 192.615443 
C 269.814293 184.891818 295.005547 184.775454 318.405954 192.283218 
C 341.806361 199.790983 362.227691 214.541647 376.709404 234.396762 
C 391.191116 254.251877 398.997855 278.203237 398.997855 302.778541 
L 476.359933 302.778541 
z
" style="fill:#1f77b4;stroke:#1f77b4;stroke-linejoin:miter;"/>
   </g>
   <g id="patch_3">
    <path d="M 125.650743 190.257329 
C 110.747998 211.091278 100.131658 234.679814 94.419566 259.650141 
C 88.707474 284.620467 88.012633 310.478598 92.37548 335.719651 
C 96.738328 360.960704 106.072555 385.085337 119.834931 406.689555 
C 133.597307 428.293772 151.515572 446.950178 172.546926 461.573015 
L 216.710051 398.055226 
C 204.091238 389.281523 193.340279 378.08768 185.082854 365.125149 
C 176.825428 352.162619 171.224892 337.687839 168.607183 322.543207 
C 165.989474 307.398575 166.406379 291.883697 169.833634 276.901501 
C 173.26089 261.919305 179.630694 247.766183 188.57234 235.265814 
L 125.650743 190.257329 
z
" style="fill:#aec7e8;stroke:#aec7e8;stroke-linejoin:miter;"/>
   </g>
   <g id="patch_4">
    <path d="M 172.546926 461.573015 
C 198.932833 479.918806 229.479952 491.401979 261.417021 494.98077 
C 293.354091 498.55956 325.685207 494.12237 355.477263 482.071746 
L 326.468253 410.354464 
C 308.593019 417.584839 289.194349 420.247153 270.032108 418.099878 
C 250.869866 415.952604 232.541595 409.0627 216.710051 398.055226 
L 172.546926 461.573015 
z
" style="fill:#ff7f0e;stroke:#ff7f0e;stroke-linejoin:miter;"/>
   </g>
   <g id="patch_5">
    <path d="M 355.477263 482.071746 
C 385.003834 470.128507 411.127962 451.074373 431.520601 426.608077 
C 451.91324 402.141781 465.949808 373.012674 472.3789 341.817705 
L 396.609235 326.202039 
C 392.75178 344.919021 384.329839 362.396485 372.094256 377.076263 
C 359.858672 391.75604 344.184195 403.188521 326.468253 410.354464 
L 355.477263 482.071746 
z
" style="fill:#ffbb78;stroke:#ffbb78;stroke-linejoin:miter;"/>
   </g>
   <g id="patch_6">
    <path d="M 472.3789 341.817705 
C 473.701624 335.399642 474.697308 328.9185 475.3621 322.399361 
C 476.026892 315.880222 476.359933 309.331507 476.359933 302.778559 
L 398.997855 302.778552 
C 398.997855 306.710321 398.79803 310.63955 398.399155 314.551033 
C 398.00028 318.462517 397.402869 322.351202 396.609235 326.202039 
L 472.3789 341.817705 
z
" style="fill:#2ca02c;stroke:#2ca02c;stroke-linejoin:miter;"/>
   </g>
   <g id="matplotlib.axis_1"/>
   <g id="matplotlib.axis_2"/>
   <g id="text_1">
    <!-- 0.4.3 -->
    <defs>
     <path d="M 46 36.53125 
Q 46 50.203125 43.4375 55.78125 
Q 40.875 61.375 34.8125 61.375 
Q 28.765625 61.375 26.171875 55.78125 
Q 23.578125 50.203125 23.578125 36.53125 
Q 23.578125 22.703125 26.171875 17.03125 
Q 28.765625 11.375 34.8125 11.375 
Q 40.828125 11.375 43.40625 17.03125 
Q 46 22.703125 46 36.53125 
z
M 64.796875 36.375 
Q 64.796875 18.265625 56.984375 8.421875 
Q 49.171875 -1.421875 34.8125 -1.421875 
Q 20.40625 -1.421875 12.59375 8.421875 
Q 4.78125 18.265625 4.78125 36.375 
Q 4.78125 54.546875 12.59375 64.375 
Q 20.40625 74.21875 34.8125 74.21875 
Q 49.171875 74.21875 56.984375 64.375 
Q 64.796875 54.546875 64.796875 36.375 
z
" id="DejaVuSans-Bold-48"/>
     <path d="M 10.203125 18.890625 
L 27.78125 18.890625 
L 27.78125 0 
L 10.203125 0 
z
" id="DejaVuSans-Bold-46"/>
     <path d="M 36.8125 57.421875 
L 16.21875 26.90625 
L 36.8125 26.90625 
z
M 33.6875 72.90625 
L 54.59375 72.90625 
L 54.59375 26.90625 
L 64.984375 26.90625 
L 64.984375 13.28125 
L 54.59375 13.28125 
L 54.59375 0 
L 36.8125 0 
L 36.8125 13.28125 
L 4.5 13.28125 
L 4.5 29.390625 
z
" id="DejaVuSans-Bold-52"/>
     <path d="M 46.578125 39.3125 
Q 53.953125 37.40625 57.78125 32.6875 
Q 61.625 27.984375 61.625 20.703125 
Q 61.625 9.859375 53.3125 4.21875 
Q 45.015625 -1.421875 29.109375 -1.421875 
Q 23.484375 -1.421875 17.84375 -0.515625 
Q 12.203125 0.390625 6.6875 2.203125 
L 6.6875 16.703125 
Q 11.96875 14.0625 17.15625 12.71875 
Q 22.359375 11.375 27.390625 11.375 
Q 34.859375 11.375 38.84375 13.953125 
Q 42.828125 16.546875 42.828125 21.390625 
Q 42.828125 26.375 38.75 28.9375 
Q 34.671875 31.5 26.703125 31.5 
L 19.1875 31.5 
L 19.1875 43.609375 
L 27.09375 43.609375 
Q 34.1875 43.609375 37.640625 45.828125 
Q 41.109375 48.046875 41.109375 52.59375 
Q 41.109375 56.78125 37.734375 59.078125 
Q 34.375 61.375 28.21875 61.375 
Q 23.6875 61.375 19.046875 60.34375 
Q 14.40625 59.328125 9.8125 57.328125 
L 9.8125 71.09375 
Q 15.375 72.65625 20.84375 73.4375 
Q 26.3125 74.21875 31.59375 74.21875 
Q 45.796875 74.21875 52.84375 69.546875 
Q 59.90625 64.890625 59.90625 55.515625 
Q 59.90625 49.125 56.53125 45.046875 
Q 53.171875 40.96875 46.578125 39.3125 
z
" id="DejaVuSans-Bold-51"/>
    </defs>
    <g style="fill:#808080;" transform="translate(347.948635 106.274408)scale(0.22 -0.22)">
     <use xlink:href="#DejaVuSans-Bold-48"/>
     <use x="69.580078" xlink:href="#DejaVuSans-Bold-46"/>
     <use x="107.568359" xlink:href="#DejaVuSans-Bold-52"/>
     <use x="177.148438" xlink:href="#DejaVuSans-Bold-46"/>
     <use x="215.136719" xlink:href="#DejaVuSans-Bold-51"/>
    </g>
   </g>
   <g id="text_2">
    <path d="M 300.16037 148.889257 
L 295.629745 155.602694 
L 300.16037 155.602694 
z
M 299.47287 145.482694 
L 304.072245 145.482694 
L 304.072245 155.602694 
L 306.358183 155.602694 
L 306.358183 158.600194 
L 304.072245 158.600194 
L 304.072245 161.522069 
L 300.16037 161.522069 
L 300.16037 158.600194 
L 293.05162 158.600194 
L 293.05162 155.056132 
z
M 317.489238 153.485194 
Q 317.489238 150.477382 316.925488 149.250194 
Q 316.361738 148.019569 315.027988 148.019569 
Q 313.697675 148.019569 313.12705 149.250194 
Q 312.556425 150.477382 312.556425 153.485194 
Q 312.556425 156.527382 313.12705 157.775194 
Q 313.697675 159.019569 315.027988 159.019569 
Q 316.351425 159.019569 316.918613 157.775194 
Q 317.489238 156.527382 317.489238 153.485194 
z
M 321.62455 153.519569 
Q 321.62455 157.503632 319.9058 159.669257 
Q 318.18705 161.834882 315.027988 161.834882 
Q 311.858613 161.834882 310.139863 159.669257 
Q 308.421113 157.503632 308.421113 153.519569 
Q 308.421113 149.521757 310.139863 147.359569 
Q 311.858613 145.193944 315.027988 145.193944 
Q 318.18705 145.193944 319.9058 147.359569 
Q 321.62455 149.521757 321.62455 153.519569 
z
M 324.921542 157.366132 
L 328.78873 157.366132 
L 328.78873 161.522069 
L 324.921542 161.522069 
z
M 333.612402 158.665507 
L 337.266464 158.665507 
L 337.266464 148.298007 
L 333.516152 149.071444 
L 333.516152 146.256132 
L 337.242402 145.482694 
L 341.174902 145.482694 
L 341.174902 158.665507 
L 344.828964 158.665507 
L 344.828964 161.522069 
L 333.612402 161.522069 
z
M 363.388456 154.904882 
Q 362.628769 154.904882 362.209394 155.564882 
Q 361.790019 156.224882 361.790019 157.452069 
Q 361.790019 158.686132 362.202519 159.346132 
Q 362.615019 160.006132 363.388456 160.006132 
Q 364.161894 160.006132 364.570956 159.346132 
Q 364.980019 158.686132 364.980019 157.452069 
Q 364.980019 156.224882 364.564081 155.564882 
Q 364.151581 154.904882 363.388456 154.904882 
z
M 363.388456 153.100194 
Q 365.389081 153.100194 366.537206 154.262069 
Q 367.685331 155.420507 367.685331 157.452069 
Q 367.685331 159.480194 366.537206 160.659257 
Q 365.389081 161.834882 363.388456 161.834882 
Q 361.391269 161.834882 360.236269 160.659257 
Q 359.081269 159.480194 359.081269 157.452069 
Q 359.081269 155.430819 360.236269 154.265507 
Q 361.391269 153.100194 363.388456 153.100194 
z
M 353.540019 161.834882 
L 351.164706 161.834882 
L 361.188456 145.193944 
L 363.574081 145.193944 
z
M 351.336581 145.193944 
Q 353.333769 145.193944 354.478456 146.359257 
Q 355.623144 147.524569 355.623144 149.556132 
Q 355.623144 151.584257 354.478456 152.756444 
Q 353.333769 153.928632 351.336581 153.928632 
Q 349.339394 153.928632 348.194706 152.756444 
Q 347.050019 151.584257 347.050019 149.556132 
Q 347.050019 147.524569 348.194706 146.359257 
Q 349.339394 145.193944 351.336581 145.193944 
z
M 351.336581 146.998632 
Q 350.563144 146.998632 350.143769 147.665507 
Q 349.724394 148.328944 349.724394 149.556132 
Q 349.724394 150.790194 350.143769 151.463944 
Q 350.563144 152.134257 351.336581 152.134257 
Q 352.110019 152.134257 352.522519 151.463944 
Q 352.938456 150.790194 352.938456 149.556132 
Q 352.938456 148.328944 352.519081 147.665507 
Q 352.099706 146.998632 351.336581 146.998632 
z
" style="fill:#ffffff;stroke:#808080;"/>
    <path d="M 300.16037 148.889257 
L 295.629745 155.602694 
L 300.16037 155.602694 
z
M 299.47287 145.482694 
L 304.072245 145.482694 
L 304.072245 155.602694 
L 306.358183 155.602694 
L 306.358183 158.600194 
L 304.072245 158.600194 
L 304.072245 161.522069 
L 300.16037 161.522069 
L 300.16037 158.600194 
L 293.05162 158.600194 
L 293.05162 155.056132 
z
M 317.489238 153.485194 
Q 317.489238 150.477382 316.925488 149.250194 
Q 316.361738 148.019569 315.027988 148.019569 
Q 313.697675 148.019569 313.12705 149.250194 
Q 312.556425 150.477382 312.556425 153.485194 
Q 312.556425 156.527382 313.12705 157.775194 
Q 313.697675 159.019569 315.027988 159.019569 
Q 316.351425 159.019569 316.918613 157.775194 
Q 317.489238 156.527382 317.489238 153.485194 
z
M 321.62455 153.519569 
Q 321.62455 157.503632 319.9058 159.669257 
Q 318.18705 161.834882 315.027988 161.834882 
Q 311.858613 161.834882 310.139863 159.669257 
Q 308.421113 157.503632 308.421113 153.519569 
Q 308.421113 149.521757 310.139863 147.359569 
Q 311.858613 145.193944 315.027988 145.193944 
Q 318.18705 145.193944 319.9058 147.359569 
Q 321.62455 149.521757 321.62455 153.519569 
z
M 324.921542 157.366132 
L 328.78873 157.366132 
L 328.78873 161.522069 
L 324.921542 161.522069 
z
M 333.612402 158.665507 
L 337.266464 158.665507 
L 337.266464 148.298007 
L 333.516152 149.071444 
L 333.516152 146.256132 
L 337.242402 145.482694 
L 341.174902 145.482694 
L 341.174902 158.665507 
L 344.828964 158.665507 
L 344.828964 161.522069 
L 333.612402 161.522069 
z
M 363.388456 154.904882 
Q 362.628769 154.904882 362.209394 155.564882 
Q 361.790019 156.224882 361.790019 157.452069 
Q 361.790019 158.686132 362.202519 159.346132 
Q 362.615019 160.006132 363.388456 160.006132 
Q 364.161894 160.006132 364.570956 159.346132 
Q 364.980019 158.686132 364.980019 157.452069 
Q 364.980019 156.224882 364.564081 155.564882 
Q 364.151581 154.904882 363.388456 154.904882 
z
M 363.388456 153.100194 
Q 365.389081 153.100194 366.537206 154.262069 
Q 367.685331 155.420507 367.685331 157.452069 
Q 367.685331 159.480194 366.537206 160.659257 
Q 365.389081 161.834882 363.388456 161.834882 
Q 361.391269 161.834882 360.236269 160.659257 
Q 359.081269 159.480194 359.081269 157.452069 
Q 359.081269 155.430819 360.236269 154.265507 
Q 361.391269 153.100194 363.388456 153.100194 
z
M 353.540019 161.834882 
L 351.164706 161.834882 
L 361.188456 145.193944 
L 363.574081 145.193944 
z
M 351.336581 145.193944 
Q 353.333769 145.193944 354.478456 146.359257 
Q 355.623144 147.524569 355.623144 149.556132 
Q 355.623144 151.584257 354.478456 152.756444 
Q 353.333769 153.928632 351.336581 153.928632 
Q 349.339394 153.928632 348.194706 152.756444 
Q 347.050019 151.584257 347.050019 149.556132 
Q 347.050019 147.524569 348.194706 146.359257 
Q 349.339394 145.193944 351.336581 145.193944 
z
M 351.336581 146.998632 
Q 350.563144 146.998632 350.143769 147.665507 
Q 349.724394 148.328944 349.724394 149.556132 
Q 349.724394 150.790194 350.143769 151.463944 
Q 350.563144 152.134257 351.336581 152.134257 
Q 352.110019 152.134257 352.522519 151.463944 
Q 352.938456 150.790194 352.938456 149.556132 
Q 352.938456 148.328944 352.519081 147.665507 
Q 352.099706 146.998632 351.336581 146.998632 
z
" style="fill:#ffffff;"/>
   </g>
   <g id="text_3">
    <!-- 0.4.4 -->
    <g style="fill:#808080;" transform="translate(10.682867 345.084387)scale(0.22 -0.22)">
     <use xlink:href="#DejaVuSans-Bold-48"/>
     <use x="69.580078" xlink:href="#DejaVuSans-Bold-46"/>
     <use x="107.568359" xlink:href="#DejaVuSans-Bold-52"/>
     <use x="177.148438" xlink:href="#DejaVuSans-Bold-46"/>
     <use x="215.136719" xlink:href="#DejaVuSans-Bold-52"/>
    </g>
   </g>
   <g id="text_4">
    <path d="M 98.668676 332.163304 
L 105.725863 332.163304 
L 105.725863 335.202054 
L 94.069301 335.202054 
L 94.069301 332.163304 
L 99.923363 326.993304 
Q 100.710551 326.285179 101.085238 325.607991 
Q 101.459926 324.930804 101.459926 324.202054 
Q 101.459926 323.074554 100.703676 322.387054 
Q 99.947426 321.699554 98.689301 321.699554 
Q 97.723363 321.699554 96.571801 322.112054 
Q 95.423676 322.524554 94.113988 323.342679 
L 94.113988 319.819241 
Q 95.509613 319.358616 96.874301 319.117991 
Q 98.238988 318.873929 99.548676 318.873929 
Q 102.429301 318.873929 104.024301 320.142366 
Q 105.619301 321.407366 105.619301 323.676116 
Q 105.619301 324.985804 104.942113 326.120179 
Q 104.264926 327.251116 102.095863 329.155491 
z
M 109.968168 319.162679 
L 120.24973 319.162679 
L 120.24973 322.204866 
L 113.268168 322.204866 
L 113.268168 324.686741 
Q 113.739105 324.556116 114.216918 324.487366 
Q 114.69473 324.415179 115.210355 324.415179 
Q 118.142543 324.415179 119.775355 325.882991 
Q 121.408168 327.350804 121.408168 329.970179 
Q 121.408168 332.568929 119.63098 334.043616 
Q 117.853793 335.514866 114.69473 335.514866 
Q 113.330043 335.514866 111.992855 335.250179 
Q 110.655668 334.985491 109.335668 334.449241 
L 109.335668 331.193929 
Q 110.645355 331.946741 111.82098 332.324866 
Q 112.996605 332.699554 114.041605 332.699554 
Q 115.543793 332.699554 116.406605 331.963929 
Q 117.272855 331.228304 117.272855 329.970179 
Q 117.272855 328.701741 116.406605 327.972991 
Q 115.543793 327.240804 114.041605 327.240804 
Q 113.147855 327.240804 112.13723 327.474554 
Q 111.130043 327.704866 109.968168 328.186116 
z
M 125.189847 331.046116 
L 129.057035 331.046116 
L 129.057035 335.202054 
L 125.189847 335.202054 
z
M 137.641332 332.163304 
L 144.698519 332.163304 
L 144.698519 335.202054 
L 133.041957 335.202054 
L 133.041957 332.163304 
L 138.896019 326.993304 
Q 139.683207 326.285179 140.057894 325.607991 
Q 140.432582 324.930804 140.432582 324.202054 
Q 140.432582 323.074554 139.676332 322.387054 
Q 138.920082 321.699554 137.661957 321.699554 
Q 136.696019 321.699554 135.544457 322.112054 
Q 134.396332 322.524554 133.086644 323.342679 
L 133.086644 319.819241 
Q 134.482269 319.358616 135.846957 319.117991 
Q 137.211644 318.873929 138.521332 318.873929 
Q 141.401957 318.873929 142.996957 320.142366 
Q 144.591957 321.407366 144.591957 323.676116 
Q 144.591957 324.985804 143.914769 326.120179 
Q 143.237582 327.251116 141.068519 329.155491 
z
M 163.656762 328.584866 
Q 162.897074 328.584866 162.477699 329.244866 
Q 162.058324 329.904866 162.058324 331.132054 
Q 162.058324 332.366116 162.470824 333.026116 
Q 162.883324 333.686116 163.656762 333.686116 
Q 164.430199 333.686116 164.839262 333.026116 
Q 165.248324 332.366116 165.248324 331.132054 
Q 165.248324 329.904866 164.832387 329.244866 
Q 164.419887 328.584866 163.656762 328.584866 
z
M 163.656762 326.780179 
Q 165.657387 326.780179 166.805512 327.942054 
Q 167.953637 329.100491 167.953637 331.132054 
Q 167.953637 333.160179 166.805512 334.339241 
Q 165.657387 335.514866 163.656762 335.514866 
Q 161.659574 335.514866 160.504574 334.339241 
Q 159.349574 333.160179 159.349574 331.132054 
Q 159.349574 329.110804 160.504574 327.945491 
Q 161.659574 326.780179 163.656762 326.780179 
z
M 153.808324 335.514866 
L 151.433012 335.514866 
L 161.456762 318.873929 
L 163.842387 318.873929 
z
M 151.604887 318.873929 
Q 153.602074 318.873929 154.746762 320.039241 
Q 155.891449 321.204554 155.891449 323.236116 
Q 155.891449 325.264241 154.746762 326.436429 
Q 153.602074 327.608616 151.604887 327.608616 
Q 149.607699 327.608616 148.463012 326.436429 
Q 147.318324 325.264241 147.318324 323.236116 
Q 147.318324 321.204554 148.463012 320.039241 
Q 149.607699 318.873929 151.604887 318.873929 
z
M 151.604887 320.678616 
Q 150.831449 320.678616 150.412074 321.345491 
Q 149.992699 322.008929 149.992699 323.236116 
Q 149.992699 324.470179 150.412074 325.143929 
Q 150.831449 325.814241 151.604887 325.814241 
Q 152.378324 325.814241 152.790824 325.143929 
Q 153.206762 324.470179 153.206762 323.236116 
Q 153.206762 322.008929 152.787387 321.345491 
Q 152.368012 320.678616 151.604887 320.678616 
z
" style="fill:#ffffff;stroke:#808080;"/>
    <path d="M 98.668676 332.163304 
L 105.725863 332.163304 
L 105.725863 335.202054 
L 94.069301 335.202054 
L 94.069301 332.163304 
L 99.923363 326.993304 
Q 100.710551 326.285179 101.085238 325.607991 
Q 101.459926 324.930804 101.459926 324.202054 
Q 101.459926 323.074554 100.703676 322.387054 
Q 99.947426 321.699554 98.689301 321.699554 
Q 97.723363 321.699554 96.571801 322.112054 
Q 95.423676 322.524554 94.113988 323.342679 
L 94.113988 319.819241 
Q 95.509613 319.358616 96.874301 319.117991 
Q 98.238988 318.873929 99.548676 318.873929 
Q 102.429301 318.873929 104.024301 320.142366 
Q 105.619301 321.407366 105.619301 323.676116 
Q 105.619301 324.985804 104.942113 326.120179 
Q 104.264926 327.251116 102.095863 329.155491 
z
M 109.968168 319.162679 
L 120.24973 319.162679 
L 120.24973 322.204866 
L 113.268168 322.204866 
L 113.268168 324.686741 
Q 113.739105 324.556116 114.216918 324.487366 
Q 114.69473 324.415179 115.210355 324.415179 
Q 118.142543 324.415179 119.775355 325.882991 
Q 121.408168 327.350804 121.408168 329.970179 
Q 121.408168 332.568929 119.63098 334.043616 
Q 117.853793 335.514866 114.69473 335.514866 
Q 113.330043 335.514866 111.992855 335.250179 
Q 110.655668 334.985491 109.335668 334.449241 
L 109.335668 331.193929 
Q 110.645355 331.946741 111.82098 332.324866 
Q 112.996605 332.699554 114.041605 332.699554 
Q 115.543793 332.699554 116.406605 331.963929 
Q 117.272855 331.228304 117.272855 329.970179 
Q 117.272855 328.701741 116.406605 327.972991 
Q 115.543793 327.240804 114.041605 327.240804 
Q 113.147855 327.240804 112.13723 327.474554 
Q 111.130043 327.704866 109.968168 328.186116 
z
M 125.189847 331.046116 
L 129.057035 331.046116 
L 129.057035 335.202054 
L 125.189847 335.202054 
z
M 137.641332 332.163304 
L 144.698519 332.163304 
L 144.698519 335.202054 
L 133.041957 335.202054 
L 133.041957 332.163304 
L 138.896019 326.993304 
Q 139.683207 326.285179 140.057894 325.607991 
Q 140.432582 324.930804 140.432582 324.202054 
Q 140.432582 323.074554 139.676332 322.387054 
Q 138.920082 321.699554 137.661957 321.699554 
Q 136.696019 321.699554 135.544457 322.112054 
Q 134.396332 322.524554 133.086644 323.342679 
L 133.086644 319.819241 
Q 134.482269 319.358616 135.846957 319.117991 
Q 137.211644 318.873929 138.521332 318.873929 
Q 141.401957 318.873929 142.996957 320.142366 
Q 144.591957 321.407366 144.591957 323.676116 
Q 144.591957 324.985804 143.914769 326.120179 
Q 143.237582 327.251116 141.068519 329.155491 
z
M 163.656762 328.584866 
Q 162.897074 328.584866 162.477699 329.244866 
Q 162.058324 329.904866 162.058324 331.132054 
Q 162.058324 332.366116 162.470824 333.026116 
Q 162.883324 333.686116 163.656762 333.686116 
Q 164.430199 333.686116 164.839262 333.026116 
Q 165.248324 332.366116 165.248324 331.132054 
Q 165.248324 329.904866 164.832387 329.244866 
Q 164.419887 328.584866 163.656762 328.584866 
z
M 163.656762 326.780179 
Q 165.657387 326.780179 166.805512 327.942054 
Q 167.953637 329.100491 167.953637 331.132054 
Q 167.953637 333.160179 166.805512 334.339241 
Q 165.657387 335.514866 163.656762 335.514866 
Q 161.659574 335.514866 160.504574 334.339241 
Q 159.349574 333.160179 159.349574 331.132054 
Q 159.349574 329.110804 160.504574 327.945491 
Q 161.659574 326.780179 163.656762 326.780179 
z
M 153.808324 335.514866 
L 151.433012 335.514866 
L 161.456762 318.873929 
L 163.842387 318.873929 
z
M 151.604887 318.873929 
Q 153.602074 318.873929 154.746762 320.039241 
Q 155.891449 321.204554 155.891449 323.236116 
Q 155.891449 325.264241 154.746762 326.436429 
Q 153.602074 327.608616 151.604887 327.608616 
Q 149.607699 327.608616 148.463012 326.436429 
Q 147.318324 325.264241 147.318324 323.236116 
Q 147.318324 321.204554 148.463012 320.039241 
Q 149.607699 318.873929 151.604887 318.873929 
z
M 151.604887 320.678616 
Q 150.831449 320.678616 150.412074 321.345491 
Q 149.992699 322.008929 149.992699 323.236116 
Q 149.992699 324.470179 150.412074 325.143929 
Q 150.831449 325.814241 151.604887 325.814241 
Q 152.378324 325.814241 152.790824 325.143929 
Q 153.206762 324.470179 153.206762 323.236116 
Q 153.206762 322.008929 152.787387 321.345491 
Q 152.368012 320.678616 151.604887 320.678616 
z
" style="fill:#ffffff;"/>
   </g>
   <g id="text_5">
    <!-- 0.4.2 -->
    <defs>
     <path d="M 28.8125 13.8125 
L 60.890625 13.8125 
L 60.890625 0 
L 7.90625 0 
L 7.90625 13.8125 
L 34.515625 37.3125 
Q 38.09375 40.53125 39.796875 43.609375 
Q 41.5 46.6875 41.5 50 
Q 41.5 55.125 38.0625 58.25 
Q 34.625 61.375 28.90625 61.375 
Q 24.515625 61.375 19.28125 59.5 
Q 14.0625 57.625 8.109375 53.90625 
L 8.109375 69.921875 
Q 14.453125 72.015625 20.65625 73.109375 
Q 26.859375 74.21875 32.8125 74.21875 
Q 45.90625 74.21875 53.15625 68.453125 
Q 60.40625 62.703125 60.40625 52.390625 
Q 60.40625 46.4375 57.328125 41.28125 
Q 54.25 36.140625 44.390625 27.484375 
z
" id="DejaVuSans-Bold-50"/>
    </defs>
    <g style="fill:#808080;" transform="translate(196.628562 520.271618)scale(0.22 -0.22)">
     <use xlink:href="#DejaVuSans-Bold-48"/>
     <use x="69.580078" xlink:href="#DejaVuSans-Bold-46"/>
     <use x="107.568359" xlink:href="#DejaVuSans-Bold-52"/>
     <use x="177.148438" xlink:href="#DejaVuSans-Bold-46"/>
     <use x="215.136719" xlink:href="#DejaVuSans-Bold-50"/>
    </g>
   </g>
   <g id="text_6">
    <path d="M 230.141283 459.754386 
L 233.795346 459.754386 
L 233.795346 449.386886 
L 230.045033 450.160324 
L 230.045033 447.345011 
L 233.771283 446.571574 
L 237.703783 446.571574 
L 237.703783 459.754386 
L 241.357846 459.754386 
L 241.357846 462.610949 
L 230.141283 462.610949 
z
M 245.201401 446.571574 
L 255.482963 446.571574 
L 255.482963 449.613761 
L 248.501401 449.613761 
L 248.501401 452.095636 
Q 248.972338 451.965011 249.450151 451.896261 
Q 249.927963 451.824074 250.443588 451.824074 
Q 253.375776 451.824074 255.008588 453.291886 
Q 256.641401 454.759699 256.641401 457.379074 
Q 256.641401 459.977824 254.864213 461.452511 
Q 253.087026 462.923761 249.927963 462.923761 
Q 248.563276 462.923761 247.226088 462.659074 
Q 245.888901 462.394386 244.568901 461.858136 
L 244.568901 458.602824 
Q 245.878588 459.355636 247.054213 459.733761 
Q 248.229838 460.108449 249.274838 460.108449 
Q 250.777026 460.108449 251.639838 459.372824 
Q 252.506088 458.637199 252.506088 457.379074 
Q 252.506088 456.110636 251.639838 455.381886 
Q 250.777026 454.649699 249.274838 454.649699 
Q 248.381088 454.649699 247.370463 454.883449 
Q 246.363276 455.113761 245.201401 455.595011 
z
M 260.42308 458.455011 
L 264.290268 458.455011 
L 264.290268 462.610949 
L 260.42308 462.610949 
z
M 274.194565 455.433449 
Q 273.036127 455.433449 272.410502 456.069386 
Q 271.788315 456.701886 271.788315 457.884386 
Q 271.788315 459.066886 272.410502 459.695949 
Q 273.036127 460.321574 274.194565 460.321574 
Q 275.346127 460.321574 275.958002 459.695949 
Q 276.569877 459.066886 276.569877 457.884386 
Q 276.569877 456.691574 275.958002 456.062511 
Q 275.346127 455.433449 274.194565 455.433449 
z
M 271.17644 454.072199 
Q 269.715502 453.628761 268.973002 452.717824 
Q 268.23394 451.803449 268.23394 450.438761 
Q 268.23394 448.410636 269.74644 447.348449 
Q 271.262377 446.282824 274.194565 446.282824 
Q 277.106127 446.282824 278.618627 447.341574 
Q 280.134565 448.400324 280.134565 450.438761 
Q 280.134565 451.803449 279.388627 452.717824 
Q 278.64269 453.628761 277.181752 454.072199 
Q 278.814565 454.522511 279.64644 455.536574 
Q 280.478315 456.550636 280.478315 458.097511 
Q 280.478315 460.483136 278.893627 461.703449 
Q 277.30894 462.923761 274.194565 462.923761 
Q 271.069877 462.923761 269.474877 461.703449 
Q 267.879877 460.483136 267.879877 458.097511 
Q 267.879877 456.550636 268.711752 455.536574 
Q 269.543627 454.522511 271.17644 454.072199 
z
M 272.142377 450.858136 
Q 272.142377 451.813761 272.67519 452.329386 
Q 273.208002 452.845011 274.194565 452.845011 
Q 275.160502 452.845011 275.68644 452.329386 
Q 276.215815 451.813761 276.215815 450.858136 
Q 276.215815 449.902511 275.68644 449.393761 
Q 275.160502 448.881574 274.194565 448.881574 
Q 273.208002 448.881574 272.67519 449.397199 
Q 272.142377 449.912824 272.142377 450.858136 
z
M 298.889994 455.993761 
Q 298.130307 455.993761 297.710932 456.653761 
Q 297.291557 457.313761 297.291557 458.540949 
Q 297.291557 459.775011 297.704057 460.435011 
Q 298.116557 461.095011 298.889994 461.095011 
Q 299.663432 461.095011 300.072494 460.435011 
Q 300.481557 459.775011 300.481557 458.540949 
Q 300.481557 457.313761 300.065619 456.653761 
Q 299.653119 455.993761 298.889994 455.993761 
z
M 298.889994 454.189074 
Q 300.890619 454.189074 302.038744 455.350949 
Q 303.186869 456.509386 303.186869 458.540949 
Q 303.186869 460.569074 302.038744 461.748136 
Q 300.890619 462.923761 298.889994 462.923761 
Q 296.892807 462.923761 295.737807 461.748136 
Q 294.582807 460.569074 294.582807 458.540949 
Q 294.582807 456.519699 295.737807 455.354386 
Q 296.892807 454.189074 298.889994 454.189074 
z
M 289.041557 462.923761 
L 286.666244 462.923761 
L 296.689994 446.282824 
L 299.075619 446.282824 
z
M 286.838119 446.282824 
Q 288.835307 446.282824 289.979994 447.448136 
Q 291.124682 448.613449 291.124682 450.645011 
Q 291.124682 452.673136 289.979994 453.845324 
Q 288.835307 455.017511 286.838119 455.017511 
Q 284.840932 455.017511 283.696244 453.845324 
Q 282.551557 452.673136 282.551557 450.645011 
Q 282.551557 448.613449 283.696244 447.448136 
Q 284.840932 446.282824 286.838119 446.282824 
z
M 286.838119 448.087511 
Q 286.064682 448.087511 285.645307 448.754386 
Q 285.225932 449.417824 285.225932 450.645011 
Q 285.225932 451.879074 285.645307 452.552824 
Q 286.064682 453.223136 286.838119 453.223136 
Q 287.611557 453.223136 288.024057 452.552824 
Q 288.439994 451.879074 288.439994 450.645011 
Q 288.439994 449.417824 288.020619 448.754386 
Q 287.601244 448.087511 286.838119 448.087511 
z
" style="fill:#ffffff;stroke:#808080;"/>
    <path d="M 230.141283 459.754386 
L 233.795346 459.754386 
L 233.795346 449.386886 
L 230.045033 450.160324 
L 230.045033 447.345011 
L 233.771283 446.571574 
L 237.703783 446.571574 
L 237.703783 459.754386 
L 241.357846 459.754386 
L 241.357846 462.610949 
L 230.141283 462.610949 
z
M 245.201401 446.571574 
L 255.482963 446.571574 
L 255.482963 449.613761 
L 248.501401 449.613761 
L 248.501401 452.095636 
Q 248.972338 451.965011 249.450151 451.896261 
Q 249.927963 451.824074 250.443588 451.824074 
Q 253.375776 451.824074 255.008588 453.291886 
Q 256.641401 454.759699 256.641401 457.379074 
Q 256.641401 459.977824 254.864213 461.452511 
Q 253.087026 462.923761 249.927963 462.923761 
Q 248.563276 462.923761 247.226088 462.659074 
Q 245.888901 462.394386 244.568901 461.858136 
L 244.568901 458.602824 
Q 245.878588 459.355636 247.054213 459.733761 
Q 248.229838 460.108449 249.274838 460.108449 
Q 250.777026 460.108449 251.639838 459.372824 
Q 252.506088 458.637199 252.506088 457.379074 
Q 252.506088 456.110636 251.639838 455.381886 
Q 250.777026 454.649699 249.274838 454.649699 
Q 248.381088 454.649699 247.370463 454.883449 
Q 246.363276 455.113761 245.201401 455.595011 
z
M 260.42308 458.455011 
L 264.290268 458.455011 
L 264.290268 462.610949 
L 260.42308 462.610949 
z
M 274.194565 455.433449 
Q 273.036127 455.433449 272.410502 456.069386 
Q 271.788315 456.701886 271.788315 457.884386 
Q 271.788315 459.066886 272.410502 459.695949 
Q 273.036127 460.321574 274.194565 460.321574 
Q 275.346127 460.321574 275.958002 459.695949 
Q 276.569877 459.066886 276.569877 457.884386 
Q 276.569877 456.691574 275.958002 456.062511 
Q 275.346127 455.433449 274.194565 455.433449 
z
M 271.17644 454.072199 
Q 269.715502 453.628761 268.973002 452.717824 
Q 268.23394 451.803449 268.23394 450.438761 
Q 268.23394 448.410636 269.74644 447.348449 
Q 271.262377 446.282824 274.194565 446.282824 
Q 277.106127 446.282824 278.618627 447.341574 
Q 280.134565 448.400324 280.134565 450.438761 
Q 280.134565 451.803449 279.388627 452.717824 
Q 278.64269 453.628761 277.181752 454.072199 
Q 278.814565 454.522511 279.64644 455.536574 
Q 280.478315 456.550636 280.478315 458.097511 
Q 280.478315 460.483136 278.893627 461.703449 
Q 277.30894 462.923761 274.194565 462.923761 
Q 271.069877 462.923761 269.474877 461.703449 
Q 267.879877 460.483136 267.879877 458.097511 
Q 267.879877 456.550636 268.711752 455.536574 
Q 269.543627 454.522511 271.17644 454.072199 
z
M 272.142377 450.858136 
Q 272.142377 451.813761 272.67519 452.329386 
Q 273.208002 452.845011 274.194565 452.845011 
Q 275.160502 452.845011 275.68644 452.329386 
Q 276.215815 451.813761 276.215815 450.858136 
Q 276.215815 449.902511 275.68644 449.393761 
Q 275.160502 448.881574 274.194565 448.881574 
Q 273.208002 448.881574 272.67519 449.397199 
Q 272.142377 449.912824 272.142377 450.858136 
z
M 298.889994 455.993761 
Q 298.130307 455.993761 297.710932 456.653761 
Q 297.291557 457.313761 297.291557 458.540949 
Q 297.291557 459.775011 297.704057 460.435011 
Q 298.116557 461.095011 298.889994 461.095011 
Q 299.663432 461.095011 300.072494 460.435011 
Q 300.481557 459.775011 300.481557 458.540949 
Q 300.481557 457.313761 300.065619 456.653761 
Q 299.653119 455.993761 298.889994 455.993761 
z
M 298.889994 454.189074 
Q 300.890619 454.189074 302.038744 455.350949 
Q 303.186869 456.509386 303.186869 458.540949 
Q 303.186869 460.569074 302.038744 461.748136 
Q 300.890619 462.923761 298.889994 462.923761 
Q 296.892807 462.923761 295.737807 461.748136 
Q 294.582807 460.569074 294.582807 458.540949 
Q 294.582807 456.519699 295.737807 455.354386 
Q 296.892807 454.189074 298.889994 454.189074 
z
M 289.041557 462.923761 
L 286.666244 462.923761 
L 296.689994 446.282824 
L 299.075619 446.282824 
z
M 286.838119 446.282824 
Q 288.835307 446.282824 289.979994 447.448136 
Q 291.124682 448.613449 291.124682 450.645011 
Q 291.124682 452.673136 289.979994 453.845324 
Q 288.835307 455.017511 286.838119 455.017511 
Q 284.840932 455.017511 283.696244 453.845324 
Q 282.551557 452.673136 282.551557 450.645011 
Q 282.551557 448.613449 283.696244 447.448136 
Q 284.840932 446.282824 286.838119 446.282824 
z
M 286.838119 448.087511 
Q 286.064682 448.087511 285.645307 448.754386 
Q 285.225932 449.417824 285.225932 450.645011 
Q 285.225932 451.879074 285.645307 452.552824 
Q 286.064682 453.223136 286.838119 453.223136 
Q 287.611557 453.223136 288.024057 452.552824 
Q 288.439994 451.879074 288.439994 450.645011 
Q 288.439994 449.417824 288.020619 448.754386 
Q 287.601244 448.087511 286.838119 448.087511 
z
" style="fill:#ffffff;"/>
   </g>
   <g id="text_7">
    <!-- 0.3.5 -->
    <defs>
     <path d="M 10.59375 72.90625 
L 57.328125 72.90625 
L 57.328125 59.078125 
L 25.59375 59.078125 
L 25.59375 47.796875 
Q 27.734375 48.390625 29.90625 48.703125 
Q 32.078125 49.03125 34.421875 49.03125 
Q 47.75 49.03125 55.171875 42.359375 
Q 62.59375 35.6875 62.59375 23.78125 
Q 62.59375 11.96875 54.515625 5.265625 
Q 46.4375 -1.421875 32.078125 -1.421875 
Q 25.875 -1.421875 19.796875 -0.21875 
Q 13.71875 0.984375 7.71875 3.421875 
L 7.71875 18.21875 
Q 13.671875 14.796875 19.015625 13.078125 
Q 24.359375 11.375 29.109375 11.375 
Q 35.9375 11.375 39.859375 14.71875 
Q 43.796875 18.0625 43.796875 23.78125 
Q 43.796875 29.546875 39.859375 32.859375 
Q 35.9375 36.1875 29.109375 36.1875 
Q 25.046875 36.1875 20.453125 35.125 
Q 15.875 34.078125 10.59375 31.890625 
z
" id="DejaVuSans-Bold-53"/>
    </defs>
    <g style="fill:#808080;" transform="translate(446.377188 445.061655)scale(0.22 -0.22)">
     <use xlink:href="#DejaVuSans-Bold-48"/>
     <use x="69.580078" xlink:href="#DejaVuSans-Bold-46"/>
     <use x="107.568359" xlink:href="#DejaVuSans-Bold-51"/>
     <use x="177.148438" xlink:href="#DejaVuSans-Bold-46"/>
     <use x="215.136719" xlink:href="#DejaVuSans-Bold-53"/>
    </g>
   </g>
   <g id="text_8">
    <path d="M 366.224147 405.056232 
L 369.87821 405.056232 
L 369.87821 394.688732 
L 366.127897 395.46217 
L 366.127897 392.646857 
L 369.854147 391.87342 
L 373.786647 391.87342 
L 373.786647 405.056232 
L 377.44071 405.056232 
L 377.44071 407.912795 
L 366.224147 407.912795 
z
M 381.284264 391.87342 
L 391.565827 391.87342 
L 391.565827 394.915607 
L 384.584264 394.915607 
L 384.584264 397.397482 
Q 385.055202 397.266857 385.533014 397.198107 
Q 386.010827 397.12592 386.526452 397.12592 
Q 389.458639 397.12592 391.091452 398.593732 
Q 392.724264 400.061545 392.724264 402.68092 
Q 392.724264 405.27967 390.947077 406.754357 
Q 389.169889 408.225607 386.010827 408.225607 
Q 384.646139 408.225607 383.308952 407.96092 
Q 381.971764 407.696232 380.651764 407.159982 
L 380.651764 403.90467 
Q 381.961452 404.657482 383.137077 405.035607 
Q 384.312702 405.410295 385.357702 405.410295 
Q 386.859889 405.410295 387.722702 404.67467 
Q 388.588952 403.939045 388.588952 402.68092 
Q 388.588952 401.412482 387.722702 400.683732 
Q 386.859889 399.951545 385.357702 399.951545 
Q 384.463952 399.951545 383.453327 400.185295 
Q 382.446139 400.415607 381.284264 400.896857 
z
M 396.505944 403.756857 
L 400.373132 403.756857 
L 400.373132 407.912795 
L 396.505944 407.912795 
z
M 410.579928 399.996232 
Q 409.493678 399.996232 408.950553 400.70092 
Q 408.407428 401.40217 408.407428 402.811545 
Q 408.407428 404.217482 408.950553 404.92217 
Q 409.493678 405.62342 410.579928 405.62342 
Q 411.673053 405.62342 412.216178 404.92217 
Q 412.759303 404.217482 412.759303 402.811545 
Q 412.759303 401.40217 412.216178 400.70092 
Q 411.673053 399.996232 410.579928 399.996232 
z
M 415.691491 392.292795 
L 415.691491 395.259357 
Q 414.670553 394.77467 413.766491 394.544357 
Q 412.865866 394.314045 412.006491 394.314045 
Q 410.160553 394.314045 409.129303 395.341857 
Q 408.098053 396.366232 407.926178 398.384045 
Q 408.634303 397.858107 409.459303 397.596857 
Q 410.287741 397.33217 411.267428 397.33217 
Q 413.725241 397.33217 415.234303 398.772482 
Q 416.743366 400.209357 416.743366 402.539982 
Q 416.743366 405.118107 415.055553 406.671857 
Q 413.371178 408.225607 410.535241 408.225607 
Q 407.410553 408.225607 405.695241 406.114982 
Q 403.983366 404.00092 403.983366 400.12342 
Q 403.983366 396.14967 405.987428 393.877482 
Q 407.991491 391.605295 411.480553 391.605295 
Q 412.587428 391.605295 413.628991 391.77717 
Q 414.670553 391.949045 415.691491 392.292795 
z
M 434.972858 401.295607 
Q 434.213171 401.295607 433.793796 401.955607 
Q 433.374421 402.615607 433.374421 403.842795 
Q 433.374421 405.076857 433.786921 405.736857 
Q 434.199421 406.396857 434.972858 406.396857 
Q 435.746296 406.396857 436.155358 405.736857 
Q 436.564421 405.076857 436.564421 403.842795 
Q 436.564421 402.615607 436.148483 401.955607 
Q 435.735983 401.295607 434.972858 401.295607 
z
M 434.972858 399.49092 
Q 436.973483 399.49092 438.121608 400.652795 
Q 439.269733 401.811232 439.269733 403.842795 
Q 439.269733 405.87092 438.121608 407.049982 
Q 436.973483 408.225607 434.972858 408.225607 
Q 432.975671 408.225607 431.820671 407.049982 
Q 430.665671 405.87092 430.665671 403.842795 
Q 430.665671 401.821545 431.820671 400.656232 
Q 432.975671 399.49092 434.972858 399.49092 
z
M 425.124421 408.225607 
L 422.749108 408.225607 
L 432.772858 391.58467 
L 435.158483 391.58467 
z
M 422.920983 391.58467 
Q 424.918171 391.58467 426.062858 392.749982 
Q 427.207546 393.915295 427.207546 395.946857 
Q 427.207546 397.974982 426.062858 399.14717 
Q 424.918171 400.319357 422.920983 400.319357 
Q 420.923796 400.319357 419.779108 399.14717 
Q 418.634421 397.974982 418.634421 395.946857 
Q 418.634421 393.915295 419.779108 392.749982 
Q 420.923796 391.58467 422.920983 391.58467 
z
M 422.920983 393.389357 
Q 422.147546 393.389357 421.728171 394.056232 
Q 421.308796 394.71967 421.308796 395.946857 
Q 421.308796 397.18092 421.728171 397.85467 
Q 422.147546 398.524982 422.920983 398.524982 
Q 423.694421 398.524982 424.106921 397.85467 
Q 424.522858 397.18092 424.522858 395.946857 
Q 424.522858 394.71967 424.103483 394.056232 
Q 423.684108 393.389357 422.920983 393.389357 
z
" style="fill:#ffffff;stroke:#808080;"/>
    <path d="M 366.224147 405.056232 
L 369.87821 405.056232 
L 369.87821 394.688732 
L 366.127897 395.46217 
L 366.127897 392.646857 
L 369.854147 391.87342 
L 373.786647 391.87342 
L 373.786647 405.056232 
L 377.44071 405.056232 
L 377.44071 407.912795 
L 366.224147 407.912795 
z
M 381.284264 391.87342 
L 391.565827 391.87342 
L 391.565827 394.915607 
L 384.584264 394.915607 
L 384.584264 397.397482 
Q 385.055202 397.266857 385.533014 397.198107 
Q 386.010827 397.12592 386.526452 397.12592 
Q 389.458639 397.12592 391.091452 398.593732 
Q 392.724264 400.061545 392.724264 402.68092 
Q 392.724264 405.27967 390.947077 406.754357 
Q 389.169889 408.225607 386.010827 408.225607 
Q 384.646139 408.225607 383.308952 407.96092 
Q 381.971764 407.696232 380.651764 407.159982 
L 380.651764 403.90467 
Q 381.961452 404.657482 383.137077 405.035607 
Q 384.312702 405.410295 385.357702 405.410295 
Q 386.859889 405.410295 387.722702 404.67467 
Q 388.588952 403.939045 388.588952 402.68092 
Q 388.588952 401.412482 387.722702 400.683732 
Q 386.859889 399.951545 385.357702 399.951545 
Q 384.463952 399.951545 383.453327 400.185295 
Q 382.446139 400.415607 381.284264 400.896857 
z
M 396.505944 403.756857 
L 400.373132 403.756857 
L 400.373132 407.912795 
L 396.505944 407.912795 
z
M 410.579928 399.996232 
Q 409.493678 399.996232 408.950553 400.70092 
Q 408.407428 401.40217 408.407428 402.811545 
Q 408.407428 404.217482 408.950553 404.92217 
Q 409.493678 405.62342 410.579928 405.62342 
Q 411.673053 405.62342 412.216178 404.92217 
Q 412.759303 404.217482 412.759303 402.811545 
Q 412.759303 401.40217 412.216178 400.70092 
Q 411.673053 399.996232 410.579928 399.996232 
z
M 415.691491 392.292795 
L 415.691491 395.259357 
Q 414.670553 394.77467 413.766491 394.544357 
Q 412.865866 394.314045 412.006491 394.314045 
Q 410.160553 394.314045 409.129303 395.341857 
Q 408.098053 396.366232 407.926178 398.384045 
Q 408.634303 397.858107 409.459303 397.596857 
Q 410.287741 397.33217 411.267428 397.33217 
Q 413.725241 397.33217 415.234303 398.772482 
Q 416.743366 400.209357 416.743366 402.539982 
Q 416.743366 405.118107 415.055553 406.671857 
Q 413.371178 408.225607 410.535241 408.225607 
Q 407.410553 408.225607 405.695241 406.114982 
Q 403.983366 404.00092 403.983366 400.12342 
Q 403.983366 396.14967 405.987428 393.877482 
Q 407.991491 391.605295 411.480553 391.605295 
Q 412.587428 391.605295 413.628991 391.77717 
Q 414.670553 391.949045 415.691491 392.292795 
z
M 434.972858 401.295607 
Q 434.213171 401.295607 433.793796 401.955607 
Q 433.374421 402.615607 433.374421 403.842795 
Q 433.374421 405.076857 433.786921 405.736857 
Q 434.199421 406.396857 434.972858 406.396857 
Q 435.746296 406.396857 436.155358 405.736857 
Q 436.564421 405.076857 436.564421 403.842795 
Q 436.564421 402.615607 436.148483 401.955607 
Q 435.735983 401.295607 434.972858 401.295607 
z
M 434.972858 399.49092 
Q 436.973483 399.49092 438.121608 400.652795 
Q 439.269733 401.811232 439.269733 403.842795 
Q 439.269733 405.87092 438.121608 407.049982 
Q 436.973483 408.225607 434.972858 408.225607 
Q 432.975671 408.225607 431.820671 407.049982 
Q 430.665671 405.87092 430.665671 403.842795 
Q 430.665671 401.821545 431.820671 400.656232 
Q 432.975671 399.49092 434.972858 399.49092 
z
M 425.124421 408.225607 
L 422.749108 408.225607 
L 432.772858 391.58467 
L 435.158483 391.58467 
z
M 422.920983 391.58467 
Q 424.918171 391.58467 426.062858 392.749982 
Q 427.207546 393.915295 427.207546 395.946857 
Q 427.207546 397.974982 426.062858 399.14717 
Q 424.918171 400.319357 422.920983 400.319357 
Q 420.923796 400.319357 419.779108 399.14717 
Q 418.634421 397.974982 418.634421 395.946857 
Q 418.634421 393.915295 419.779108 392.749982 
Q 420.923796 391.58467 422.920983 391.58467 
z
M 422.920983 393.389357 
Q 422.147546 393.389357 421.728171 394.056232 
Q 421.308796 394.71967 421.308796 395.946857 
Q 421.308796 397.18092 421.728171 397.85467 
Q 422.147546 398.524982 422.920983 398.524982 
Q 423.694421 398.524982 424.106921 397.85467 
Q 424.522858 397.18092 424.522858 395.946857 
Q 424.522858 394.71967 424.103483 394.056232 
Q 423.684108 393.389357 422.920983 393.389357 
z
" style="fill:#ffffff;"/>
   </g>
   <g id="text_9">
    <!-- Other -->
    <defs>
     <path d="M 42.484375 60.59375 
Q 33.890625 60.59375 29.15625 54.25 
Q 24.421875 47.90625 24.421875 36.375 
Q 24.421875 24.90625 29.15625 18.546875 
Q 33.890625 12.203125 42.484375 12.203125 
Q 51.125 12.203125 55.859375 18.546875 
Q 60.59375 24.90625 60.59375 36.375 
Q 60.59375 47.90625 55.859375 54.25 
Q 51.125 60.59375 42.484375 60.59375 
z
M 42.484375 74.21875 
Q 60.0625 74.21875 70.015625 64.15625 
Q 79.984375 54.109375 79.984375 36.375 
Q 79.984375 18.703125 70.015625 8.640625 
Q 60.0625 -1.421875 42.484375 -1.421875 
Q 24.953125 -1.421875 14.96875 8.640625 
Q 4.984375 18.703125 4.984375 36.375 
Q 4.984375 54.109375 14.96875 64.15625 
Q 24.953125 74.21875 42.484375 74.21875 
z
" id="DejaVuSans-Bold-79"/>
     <path d="M 27.484375 70.21875 
L 27.484375 54.6875 
L 45.515625 54.6875 
L 45.515625 42.1875 
L 27.484375 42.1875 
L 27.484375 19 
Q 27.484375 15.1875 29 13.84375 
Q 30.515625 12.5 35.015625 12.5 
L 44 12.5 
L 44 0 
L 29 0 
Q 18.65625 0 14.328125 4.3125 
Q 10.015625 8.640625 10.015625 19 
L 10.015625 42.1875 
L 1.3125 42.1875 
L 1.3125 54.6875 
L 10.015625 54.6875 
L 10.015625 70.21875 
z
" id="DejaVuSans-Bold-116"/>
     <path d="M 63.375 33.296875 
L 63.375 0 
L 45.796875 0 
L 45.796875 5.421875 
L 45.796875 25.390625 
Q 45.796875 32.5625 45.484375 35.25 
Q 45.171875 37.9375 44.390625 39.203125 
Q 43.359375 40.921875 41.59375 41.875 
Q 39.84375 42.828125 37.59375 42.828125 
Q 32.125 42.828125 29 38.59375 
Q 25.875 34.375 25.875 26.90625 
L 25.875 0 
L 8.40625 0 
L 8.40625 75.984375 
L 25.875 75.984375 
L 25.875 46.6875 
Q 29.828125 51.46875 34.265625 53.734375 
Q 38.71875 56 44.09375 56 
Q 53.5625 56 58.46875 50.1875 
Q 63.375 44.390625 63.375 33.296875 
z
" id="DejaVuSans-Bold-104"/>
     <path d="M 62.984375 27.484375 
L 62.984375 22.515625 
L 22.125 22.515625 
Q 22.75 16.359375 26.5625 13.28125 
Q 30.375 10.203125 37.203125 10.203125 
Q 42.71875 10.203125 48.5 11.84375 
Q 54.296875 13.484375 60.40625 16.796875 
L 60.40625 3.328125 
Q 54.203125 0.984375 48 -0.21875 
Q 41.796875 -1.421875 35.59375 -1.421875 
Q 20.75 -1.421875 12.515625 6.125 
Q 4.296875 13.671875 4.296875 27.296875 
Q 4.296875 40.671875 12.375 48.328125 
Q 20.453125 56 34.625 56 
Q 47.515625 56 55.25 48.234375 
Q 62.984375 40.484375 62.984375 27.484375 
z
M 45.015625 33.296875 
Q 45.015625 38.28125 42.109375 41.328125 
Q 39.203125 44.390625 34.515625 44.390625 
Q 29.4375 44.390625 26.265625 41.53125 
Q 23.09375 38.671875 22.3125 33.296875 
z
" id="DejaVuSans-Bold-101"/>
     <path d="M 49.03125 39.796875 
Q 46.734375 40.875 44.453125 41.375 
Q 42.1875 41.890625 39.890625 41.890625 
Q 33.15625 41.890625 29.515625 37.5625 
Q 25.875 33.25 25.875 25.203125 
L 25.875 0 
L 8.40625 0 
L 8.40625 54.6875 
L 25.875 54.6875 
L 25.875 45.703125 
Q 29.25 51.078125 33.609375 53.53125 
Q 37.984375 56 44.09375 56 
Q 44.96875 56 45.984375 55.921875 
Q 47.015625 55.859375 48.96875 55.609375 
z
" id="DejaVuSans-Bold-114"/>
    </defs>
    <g style="fill:#808080;" transform="translate(494.602836 330.432068)scale(0.22 -0.22)">
     <use xlink:href="#DejaVuSans-Bold-79"/>
     <use x="85.009766" xlink:href="#DejaVuSans-Bold-116"/>
     <use x="132.8125" xlink:href="#DejaVuSans-Bold-104"/>
     <use x="204.003906" xlink:href="#DejaVuSans-Bold-101"/>
     <use x="271.826172" xlink:href="#DejaVuSans-Bold-114"/>
    </g>
   </g>
   <g id="text_10">
    <path d="M 416.620003 315.897072 
Q 418.242503 316.316447 419.08469 317.354572 
Q 419.930315 318.38926 419.930315 319.991135 
Q 419.930315 322.37676 418.101565 323.617697 
Q 416.276253 324.858635 412.776878 324.858635 
Q 411.539378 324.858635 410.29844 324.65926 
Q 409.057503 324.459885 407.844065 324.061135 
L 407.844065 320.871135 
Q 409.00594 321.452072 410.14719 321.747697 
Q 411.291878 322.043322 412.398753 322.043322 
Q 414.041878 322.043322 414.91844 321.476135 
Q 415.795003 320.90551 415.795003 319.839885 
Q 415.795003 318.743322 414.897815 318.179572 
Q 414.000628 317.615822 412.247503 317.615822 
L 410.594065 317.615822 
L 410.594065 314.95176 
L 412.33344 314.95176 
Q 413.894065 314.95176 414.653753 314.463635 
Q 415.416878 313.97551 415.416878 312.975197 
Q 415.416878 312.053947 414.674378 311.548635 
Q 413.935315 311.043322 412.58094 311.043322 
Q 411.584065 311.043322 410.563128 311.270197 
Q 409.54219 311.493635 408.531565 311.933635 
L 408.531565 308.905197 
Q 409.755315 308.561447 410.95844 308.389572 
Q 412.161565 308.217697 413.32344 308.217697 
Q 416.448128 308.217697 417.99844 309.24551 
Q 419.55219 310.269885 419.55219 312.332385 
Q 419.55219 313.738322 418.80969 314.63551 
Q 418.070628 315.532697 416.620003 315.897072 
z
M 423.92512 320.389885 
L 427.792307 320.389885 
L 427.792307 324.545822 
L 423.92512 324.545822 
z
M 436.376604 321.507072 
L 443.433792 321.507072 
L 443.433792 324.545822 
L 431.777229 324.545822 
L 431.777229 321.507072 
L 437.631292 316.337072 
Q 438.418479 315.628947 438.793167 314.95176 
Q 439.167854 314.274572 439.167854 313.545822 
Q 439.167854 312.418322 438.411604 311.730822 
Q 437.655354 311.043322 436.397229 311.043322 
Q 435.431292 311.043322 434.279729 311.455822 
Q 433.131604 311.868322 431.821917 312.686447 
L 431.821917 309.16301 
Q 433.217542 308.702385 434.582229 308.46176 
Q 435.946917 308.217697 437.256604 308.217697 
Q 440.137229 308.217697 441.732229 309.486135 
Q 443.327229 310.751135 443.327229 313.019885 
Q 443.327229 314.329572 442.650042 315.463947 
Q 441.972854 316.594885 439.803792 318.49926 
z
M 462.392034 317.928635 
Q 461.632346 317.928635 461.212971 318.588635 
Q 460.793596 319.248635 460.793596 320.475822 
Q 460.793596 321.709885 461.206096 322.369885 
Q 461.618596 323.029885 462.392034 323.029885 
Q 463.165471 323.029885 463.574534 322.369885 
Q 463.983596 321.709885 463.983596 320.475822 
Q 463.983596 319.248635 463.567659 318.588635 
Q 463.155159 317.928635 462.392034 317.928635 
z
M 462.392034 316.123947 
Q 464.392659 316.123947 465.540784 317.285822 
Q 466.688909 318.44426 466.688909 320.475822 
Q 466.688909 322.503947 465.540784 323.68301 
Q 464.392659 324.858635 462.392034 324.858635 
Q 460.394846 324.858635 459.239846 323.68301 
Q 458.084846 322.503947 458.084846 320.475822 
Q 458.084846 318.454572 459.239846 317.28926 
Q 460.394846 316.123947 462.392034 316.123947 
z
M 452.543596 324.858635 
L 450.168284 324.858635 
L 460.192034 308.217697 
L 462.577659 308.217697 
z
M 450.340159 308.217697 
Q 452.337346 308.217697 453.482034 309.38301 
Q 454.626721 310.548322 454.626721 312.579885 
Q 454.626721 314.60801 453.482034 315.780197 
Q 452.337346 316.952385 450.340159 316.952385 
Q 448.342971 316.952385 447.198284 315.780197 
Q 446.053596 314.60801 446.053596 312.579885 
Q 446.053596 310.548322 447.198284 309.38301 
Q 448.342971 308.217697 450.340159 308.217697 
z
M 450.340159 310.022385 
Q 449.566721 310.022385 449.147346 310.68926 
Q 448.727971 311.352697 448.727971 312.579885 
Q 448.727971 313.813947 449.147346 314.487697 
Q 449.566721 315.15801 450.340159 315.15801 
Q 451.113596 315.15801 451.526096 314.487697 
Q 451.942034 313.813947 451.942034 312.579885 
Q 451.942034 311.352697 451.522659 310.68926 
Q 451.103284 310.022385 450.340159 310.022385 
z
" style="fill:#ffffff;stroke:#808080;"/>
    <path d="M 416.620003 315.897072 
Q 418.242503 316.316447 419.08469 317.354572 
Q 419.930315 318.38926 419.930315 319.991135 
Q 419.930315 322.37676 418.101565 323.617697 
Q 416.276253 324.858635 412.776878 324.858635 
Q 411.539378 324.858635 410.29844 324.65926 
Q 409.057503 324.459885 407.844065 324.061135 
L 407.844065 320.871135 
Q 409.00594 321.452072 410.14719 321.747697 
Q 411.291878 322.043322 412.398753 322.043322 
Q 414.041878 322.043322 414.91844 321.476135 
Q 415.795003 320.90551 415.795003 319.839885 
Q 415.795003 318.743322 414.897815 318.179572 
Q 414.000628 317.615822 412.247503 317.615822 
L 410.594065 317.615822 
L 410.594065 314.95176 
L 412.33344 314.95176 
Q 413.894065 314.95176 414.653753 314.463635 
Q 415.416878 313.97551 415.416878 312.975197 
Q 415.416878 312.053947 414.674378 311.548635 
Q 413.935315 311.043322 412.58094 311.043322 
Q 411.584065 311.043322 410.563128 311.270197 
Q 409.54219 311.493635 408.531565 311.933635 
L 408.531565 308.905197 
Q 409.755315 308.561447 410.95844 308.389572 
Q 412.161565 308.217697 413.32344 308.217697 
Q 416.448128 308.217697 417.99844 309.24551 
Q 419.55219 310.269885 419.55219 312.332385 
Q 419.55219 313.738322 418.80969 314.63551 
Q 418.070628 315.532697 416.620003 315.897072 
z
M 423.92512 320.389885 
L 427.792307 320.389885 
L 427.792307 324.545822 
L 423.92512 324.545822 
z
M 436.376604 321.507072 
L 443.433792 321.507072 
L 443.433792 324.545822 
L 431.777229 324.545822 
L 431.777229 321.507072 
L 437.631292 316.337072 
Q 438.418479 315.628947 438.793167 314.95176 
Q 439.167854 314.274572 439.167854 313.545822 
Q 439.167854 312.418322 438.411604 311.730822 
Q 437.655354 311.043322 436.397229 311.043322 
Q 435.431292 311.043322 434.279729 311.455822 
Q 433.131604 311.868322 431.821917 312.686447 
L 431.821917 309.16301 
Q 433.217542 308.702385 434.582229 308.46176 
Q 435.946917 308.217697 437.256604 308.217697 
Q 440.137229 308.217697 441.732229 309.486135 
Q 443.327229 310.751135 443.327229 313.019885 
Q 443.327229 314.329572 442.650042 315.463947 
Q 441.972854 316.594885 439.803792 318.49926 
z
M 462.392034 317.928635 
Q 461.632346 317.928635 461.212971 318.588635 
Q 460.793596 319.248635 460.793596 320.475822 
Q 460.793596 321.709885 461.206096 322.369885 
Q 461.618596 323.029885 462.392034 323.029885 
Q 463.165471 323.029885 463.574534 322.369885 
Q 463.983596 321.709885 463.983596 320.475822 
Q 463.983596 319.248635 463.567659 318.588635 
Q 463.155159 317.928635 462.392034 317.928635 
z
M 462.392034 316.123947 
Q 464.392659 316.123947 465.540784 317.285822 
Q 466.688909 318.44426 466.688909 320.475822 
Q 466.688909 322.503947 465.540784 323.68301 
Q 464.392659 324.858635 462.392034 324.858635 
Q 460.394846 324.858635 459.239846 323.68301 
Q 458.084846 322.503947 458.084846 320.475822 
Q 458.084846 318.454572 459.239846 317.28926 
Q 460.394846 316.123947 462.392034 316.123947 
z
M 452.543596 324.858635 
L 450.168284 324.858635 
L 460.192034 308.217697 
L 462.577659 308.217697 
z
M 450.340159 308.217697 
Q 452.337346 308.217697 453.482034 309.38301 
Q 454.626721 310.548322 454.626721 312.579885 
Q 454.626721 314.60801 453.482034 315.780197 
Q 452.337346 316.952385 450.340159 316.952385 
Q 448.342971 316.952385 447.198284 315.780197 
Q 446.053596 314.60801 446.053596 312.579885 
Q 446.053596 310.548322 447.198284 309.38301 
Q 448.342971 308.217697 450.340159 308.217697 
z
M 450.340159 310.022385 
Q 449.566721 310.022385 449.147346 310.68926 
Q 448.727971 311.352697 448.727971 312.579885 
Q 448.727971 313.813947 449.147346 314.487697 
Q 449.566721 315.15801 450.340159 315.15801 
Q 451.113596 315.15801 451.526096 314.487697 
Q 451.942034 313.813947 451.942034 312.579885 
Q 451.942034 311.352697 451.522659 310.68926 
Q 451.103284 310.022385 450.340159 310.022385 
z
" style="fill:#ffffff;"/>
   </g>
   <g id="text_11">
    <!-- Total Number of Relays by Version -->
    <defs>
     <path d="M 0.484375 72.90625 
L 67.671875 72.90625 
L 67.671875 58.6875 
L 43.5 58.6875 
L 43.5 0 
L 24.703125 0 
L 24.703125 58.6875 
L 0.484375 58.6875 
z
" id="DejaVuSans-Bold-84"/>
     <path d="M 34.421875 43.5 
Q 28.609375 43.5 25.5625 39.328125 
Q 22.515625 35.15625 22.515625 27.296875 
Q 22.515625 19.4375 25.5625 15.25 
Q 28.609375 11.078125 34.421875 11.078125 
Q 40.140625 11.078125 43.15625 15.25 
Q 46.1875 19.4375 46.1875 27.296875 
Q 46.1875 35.15625 43.15625 39.328125 
Q 40.140625 43.5 34.421875 43.5 
z
M 34.421875 56 
Q 48.53125 56 56.46875 48.375 
Q 64.40625 40.765625 64.40625 27.296875 
Q 64.40625 13.8125 56.46875 6.1875 
Q 48.53125 -1.421875 34.421875 -1.421875 
Q 20.265625 -1.421875 12.28125 6.1875 
Q 4.296875 13.8125 4.296875 27.296875 
Q 4.296875 40.765625 12.28125 48.375 
Q 20.265625 56 34.421875 56 
z
" id="DejaVuSans-Bold-111"/>
     <path d="M 32.90625 24.609375 
Q 27.4375 24.609375 24.671875 22.75 
Q 21.921875 20.90625 21.921875 17.28125 
Q 21.921875 13.96875 24.140625 12.078125 
Q 26.375 10.203125 30.328125 10.203125 
Q 35.25 10.203125 38.625 13.734375 
Q 42 17.28125 42 22.609375 
L 42 24.609375 
z
M 59.625 31.203125 
L 59.625 0 
L 42 0 
L 42 8.109375 
Q 38.484375 3.125 34.078125 0.84375 
Q 29.6875 -1.421875 23.390625 -1.421875 
Q 14.890625 -1.421875 9.59375 3.53125 
Q 4.296875 8.5 4.296875 16.40625 
Q 4.296875 26.03125 10.90625 30.515625 
Q 17.53125 35.015625 31.6875 35.015625 
L 42 35.015625 
L 42 36.375 
Q 42 40.53125 38.71875 42.453125 
Q 35.453125 44.390625 28.515625 44.390625 
Q 22.90625 44.390625 18.0625 43.265625 
Q 13.234375 42.140625 9.078125 39.890625 
L 9.078125 53.21875 
Q 14.703125 54.59375 20.359375 55.296875 
Q 26.03125 56 31.6875 56 
Q 46.484375 56 53.046875 50.171875 
Q 59.625 44.34375 59.625 31.203125 
z
" id="DejaVuSans-Bold-97"/>
     <path d="M 8.40625 75.984375 
L 25.875 75.984375 
L 25.875 0 
L 8.40625 0 
z
" id="DejaVuSans-Bold-108"/>
     <path id="DejaVuSans-Bold-32"/>
     <path d="M 9.1875 72.90625 
L 30.171875 72.90625 
L 56.6875 22.90625 
L 56.6875 72.90625 
L 74.515625 72.90625 
L 74.515625 0 
L 53.515625 0 
L 27 50 
L 27 0 
L 9.1875 0 
z
" id="DejaVuSans-Bold-78"/>
     <path d="M 7.8125 21.296875 
L 7.8125 54.6875 
L 25.390625 54.6875 
L 25.390625 49.21875 
Q 25.390625 44.78125 25.34375 38.0625 
Q 25.296875 31.34375 25.296875 29.109375 
Q 25.296875 22.515625 25.640625 19.609375 
Q 25.984375 16.703125 26.8125 15.375 
Q 27.875 13.671875 29.609375 12.734375 
Q 31.34375 11.8125 33.59375 11.8125 
Q 39.0625 11.8125 42.1875 16.015625 
Q 45.3125 20.21875 45.3125 27.6875 
L 45.3125 54.6875 
L 62.796875 54.6875 
L 62.796875 0 
L 45.3125 0 
L 45.3125 7.90625 
Q 41.359375 3.125 36.9375 0.84375 
Q 32.515625 -1.421875 27.203125 -1.421875 
Q 17.71875 -1.421875 12.765625 4.390625 
Q 7.8125 10.203125 7.8125 21.296875 
z
" id="DejaVuSans-Bold-117"/>
     <path d="M 59.078125 45.609375 
Q 62.40625 50.6875 66.96875 53.34375 
Q 71.53125 56 77 56 
Q 86.421875 56 91.359375 50.1875 
Q 96.296875 44.390625 96.296875 33.296875 
L 96.296875 0 
L 78.71875 0 
L 78.71875 28.515625 
Q 78.765625 29.15625 78.78125 29.828125 
Q 78.8125 30.515625 78.8125 31.78125 
Q 78.8125 37.59375 77.09375 40.203125 
Q 75.390625 42.828125 71.578125 42.828125 
Q 66.609375 42.828125 63.890625 38.71875 
Q 61.1875 34.625 61.078125 26.859375 
L 61.078125 0 
L 43.5 0 
L 43.5 28.515625 
Q 43.5 37.59375 41.9375 40.203125 
Q 40.375 42.828125 36.375 42.828125 
Q 31.34375 42.828125 28.609375 38.703125 
Q 25.875 34.578125 25.875 26.90625 
L 25.875 0 
L 8.296875 0 
L 8.296875 54.6875 
L 25.875 54.6875 
L 25.875 46.6875 
Q 29.109375 51.3125 33.28125 53.65625 
Q 37.453125 56 42.484375 56 
Q 48.140625 56 52.484375 53.265625 
Q 56.84375 50.53125 59.078125 45.609375 
z
" id="DejaVuSans-Bold-109"/>
     <path d="M 37.5 11.28125 
Q 43.109375 11.28125 46.0625 15.375 
Q 49.03125 19.484375 49.03125 27.296875 
Q 49.03125 35.109375 46.0625 39.203125 
Q 43.109375 43.3125 37.5 43.3125 
Q 31.890625 43.3125 28.875 39.1875 
Q 25.875 35.0625 25.875 27.296875 
Q 25.875 19.53125 28.875 15.40625 
Q 31.890625 11.28125 37.5 11.28125 
z
M 25.875 46.6875 
Q 29.5 51.46875 33.890625 53.734375 
Q 38.28125 56 44 56 
Q 54.109375 56 60.59375 47.96875 
Q 67.09375 39.9375 67.09375 27.296875 
Q 67.09375 14.65625 60.59375 6.609375 
Q 54.109375 -1.421875 44 -1.421875 
Q 38.28125 -1.421875 33.890625 0.84375 
Q 29.5 3.125 25.875 7.90625 
L 25.875 0 
L 8.40625 0 
L 8.40625 75.984375 
L 25.875 75.984375 
z
" id="DejaVuSans-Bold-98"/>
     <path d="M 44.390625 75.984375 
L 44.390625 64.5 
L 34.71875 64.5 
Q 31 64.5 29.53125 63.15625 
Q 28.078125 61.8125 28.078125 58.5 
L 28.078125 54.6875 
L 43.015625 54.6875 
L 43.015625 42.1875 
L 28.078125 42.1875 
L 28.078125 0 
L 10.59375 0 
L 10.59375 42.1875 
L 1.90625 42.1875 
L 1.90625 54.6875 
L 10.59375 54.6875 
L 10.59375 58.5 
Q 10.59375 67.4375 15.578125 71.703125 
Q 20.5625 75.984375 31 75.984375 
z
" id="DejaVuSans-Bold-102"/>
     <path d="M 35.890625 40.578125 
Q 41.796875 40.578125 44.359375 42.765625 
Q 46.921875 44.96875 46.921875 50 
Q 46.921875 54.984375 44.359375 57.125 
Q 41.796875 59.28125 35.890625 59.28125 
L 27.984375 59.28125 
L 27.984375 40.578125 
z
M 27.984375 27.59375 
L 27.984375 0 
L 9.1875 0 
L 9.1875 72.90625 
L 37.890625 72.90625 
Q 52.296875 72.90625 59 68.0625 
Q 65.71875 63.234375 65.71875 52.78125 
Q 65.71875 45.5625 62.21875 40.921875 
Q 58.734375 36.28125 51.703125 34.078125 
Q 55.5625 33.203125 58.609375 30.09375 
Q 61.671875 27 64.796875 20.703125 
L 75 0 
L 54.984375 0 
L 46.09375 18.109375 
Q 43.40625 23.578125 40.640625 25.578125 
Q 37.890625 27.59375 33.296875 27.59375 
z
" id="DejaVuSans-Bold-82"/>
     <path d="M 1.21875 54.6875 
L 18.703125 54.6875 
L 33.40625 17.578125 
L 45.90625 54.6875 
L 63.375 54.6875 
L 40.375 -5.171875 
Q 36.921875 -14.3125 32.296875 -17.9375 
Q 27.6875 -21.578125 20.125 -21.578125 
L 10.015625 -21.578125 
L 10.015625 -10.109375 
L 15.484375 -10.109375 
Q 19.921875 -10.109375 21.9375 -8.6875 
Q 23.96875 -7.28125 25.09375 -3.609375 
L 25.59375 -2.09375 
z
" id="DejaVuSans-Bold-121"/>
     <path d="M 51.125 52.984375 
L 51.125 39.703125 
Q 45.515625 42.046875 40.28125 43.21875 
Q 35.0625 44.390625 30.421875 44.390625 
Q 25.4375 44.390625 23.015625 43.140625 
Q 20.609375 41.890625 20.609375 39.3125 
Q 20.609375 37.203125 22.4375 36.078125 
Q 24.265625 34.96875 29 34.421875 
L 32.078125 33.984375 
Q 45.515625 32.28125 50.140625 28.375 
Q 54.78125 24.46875 54.78125 16.109375 
Q 54.78125 7.375 48.328125 2.96875 
Q 41.890625 -1.421875 29.109375 -1.421875 
Q 23.6875 -1.421875 17.890625 -0.5625 
Q 12.109375 0.296875 6 2 
L 6 15.28125 
Q 11.234375 12.75 16.71875 11.46875 
Q 22.21875 10.203125 27.875 10.203125 
Q 33.015625 10.203125 35.59375 11.609375 
Q 38.1875 13.03125 38.1875 15.828125 
Q 38.1875 18.171875 36.40625 19.3125 
Q 34.625 20.453125 29.296875 21.09375 
L 26.21875 21.484375 
Q 14.546875 22.953125 9.859375 26.90625 
Q 5.171875 30.859375 5.171875 38.921875 
Q 5.171875 47.609375 11.125 51.796875 
Q 17.09375 56 29.390625 56 
Q 34.234375 56 39.546875 55.265625 
Q 44.875 54.546875 51.125 52.984375 
z
" id="DejaVuSans-Bold-115"/>
     <path d="M 0.484375 72.90625 
L 19.390625 72.90625 
L 38.71875 19.09375 
L 58.015625 72.90625 
L 76.90625 72.90625 
L 49.90625 0 
L 27.484375 0 
z
" id="DejaVuSans-Bold-86"/>
     <path d="M 8.40625 54.6875 
L 25.875 54.6875 
L 25.875 0 
L 8.40625 0 
z
M 8.40625 75.984375 
L 25.875 75.984375 
L 25.875 61.71875 
L 8.40625 61.71875 
z
" id="DejaVuSans-Bold-105"/>
     <path d="M 63.375 33.296875 
L 63.375 0 
L 45.796875 0 
L 45.796875 5.421875 
L 45.796875 25.484375 
Q 45.796875 32.5625 45.484375 35.25 
Q 45.171875 37.9375 44.390625 39.203125 
Q 43.359375 40.921875 41.59375 41.875 
Q 39.84375 42.828125 37.59375 42.828125 
Q 32.125 42.828125 29 38.59375 
Q 25.875 34.375 25.875 26.90625 
L 25.875 0 
L 8.40625 0 
L 8.40625 54.6875 
L 25.875 54.6875 
L 25.875 46.6875 
Q 29.828125 51.46875 34.265625 53.734375 
Q 38.71875 56 44.09375 56 
Q 53.5625 56 58.46875 50.1875 
Q 63.375 44.390625 63.375 33.296875 
z
" id="DejaVuSans-Bold-110"/>
    </defs>
    <g style="fill:#808080;" transform="translate(37.623783 28.378347)scale(0.25 -0.25)">
     <use xlink:href="#DejaVuSans-Bold-84"/>
     <use x="68.009766" xlink:href="#DejaVuSans-Bold-111"/>
     <use x="136.710938" xlink:href="#DejaVuSans-Bold-116"/>
     <use x="184.513672" xlink:href="#DejaVuSans-Bold-97"/>
     <use x="251.994141" xlink:href="#DejaVuSans-Bold-108"/>
     <use x="286.271484" xlink:href="#DejaVuSans-Bold-32"/>
     <use x="321.085938" xlink:href="#DejaVuSans-Bold-78"/>
     <use x="404.777344" xlink:href="#DejaVuSans-Bold-117"/>
     <use x="475.96875" xlink:href="#DejaVuSans-Bold-109"/>
     <use x="580.167969" xlink:href="#DejaVuSans-Bold-98"/>
     <use x="651.75" xlink:href="#DejaVuSans-Bold-101"/>
     <use x="719.572266" xlink:href="#DejaVuSans-Bold-114"/>
     <use x="768.888672" xlink:href="#DejaVuSans-Bold-32"/>
     <use x="803.703125" xlink:href="#DejaVuSans-Bold-111"/>
     <use x="872.404297" xlink:href="#DejaVuSans-Bold-102"/>
     <use x="915.910156" xlink:href="#DejaVuSans-Bold-32"/>
     <use x="950.724609" xlink:href="#DejaVuSans-Bold-82"/>
     <use x="1027.726562" xlink:href="#DejaVuSans-Bold-101"/>
     <use x="1095.548828" xlink:href="#DejaVuSans-Bold-108"/>
     <use x="1129.826172" xlink:href="#DejaVuSans-Bold-97"/>
     <use x="1197.259766" xlink:href="#DejaVuSans-Bold-121"/>
     <use x="1262.445312" xlink:href="#DejaVuSans-Bold-115"/>
     <use x="1321.966797" xlink:href="#DejaVuSans-Bold-32"/>
     <use x="1356.78125" xlink:href="#DejaVuSans-Bold-98"/>
     <use x="1428.363281" xlink:href="#DejaVuSans-Bold-121"/>
     <use x="1493.548828" xlink:href="#DejaVuSans-Bold-32"/>
     <use x="1528.363281" xlink:href="#DejaVuSans-Bold-86"/>
     <use x="1605.677734" xlink:href="#DejaVuSans-Bold-101"/>
     <use x="1673.5" xlink:href="#DejaVuSans-Bold-114"/>
     <use x="1722.816406" xlink:href="#DejaVuSans-Bold-115"/>
     <use x="1782.337891" xlink:href="#DejaVuSans-Bold-105"/>
     <use x="1816.615234" xlink:href="#DejaVuSans-Bold-111"/>
     <use x="1885.316406" xlink:href="#DejaVuSans-Bold-110"/>
    </g>
   </g>
  </g>
  <g id="text_12">
   <!-- AceLewis.com - Date: 2020-09-25 -->
   <defs>
    <path d="M 53.421875 13.28125 
L 24.03125 13.28125 
L 19.390625 0 
L 0.484375 0 
L 27.484375 72.90625 
L 49.90625 72.90625 
L 76.90625 0 
L 58.015625 0 
z
M 28.71875 26.8125 
L 48.6875 26.8125 
L 38.71875 55.8125 
z
" id="DejaVuSans-Bold-65"/>
    <path d="M 52.59375 52.984375 
L 52.59375 38.71875 
Q 49.03125 41.15625 45.4375 42.328125 
Q 41.84375 43.5 37.984375 43.5 
Q 30.671875 43.5 26.59375 39.234375 
Q 22.515625 34.96875 22.515625 27.296875 
Q 22.515625 19.625 26.59375 15.34375 
Q 30.671875 11.078125 37.984375 11.078125 
Q 42.09375 11.078125 45.78125 12.296875 
Q 49.46875 13.53125 52.59375 15.921875 
L 52.59375 1.609375 
Q 48.484375 0.09375 44.265625 -0.65625 
Q 40.046875 -1.421875 35.796875 -1.421875 
Q 21 -1.421875 12.640625 6.171875 
Q 4.296875 13.765625 4.296875 27.296875 
Q 4.296875 40.828125 12.640625 48.40625 
Q 21 56 35.796875 56 
Q 40.09375 56 44.265625 55.25 
Q 48.4375 54.5 52.59375 52.984375 
z
" id="DejaVuSans-Bold-99"/>
    <path d="M 9.1875 72.90625 
L 27.984375 72.90625 
L 27.984375 14.203125 
L 60.984375 14.203125 
L 60.984375 0 
L 9.1875 0 
z
" id="DejaVuSans-Bold-76"/>
    <path d="M 3.515625 54.6875 
L 20.515625 54.6875 
L 29.6875 17 
L 38.921875 54.6875 
L 53.515625 54.6875 
L 62.703125 17.390625 
L 71.921875 54.6875 
L 88.921875 54.6875 
L 74.515625 0 
L 55.421875 0 
L 46.1875 37.59375 
L 37.015625 0 
L 17.921875 0 
z
" id="DejaVuSans-Bold-119"/>
    <path d="M 5.421875 35.890625 
L 36.078125 35.890625 
L 36.078125 21.6875 
L 5.421875 21.6875 
z
" id="DejaVuSans-Bold-45"/>
    <path d="M 27.984375 58.6875 
L 27.984375 14.203125 
L 34.71875 14.203125 
Q 46.234375 14.203125 52.3125 19.921875 
Q 58.40625 25.640625 58.40625 36.53125 
Q 58.40625 47.359375 52.34375 53.015625 
Q 46.296875 58.6875 34.71875 58.6875 
z
M 9.1875 72.90625 
L 29 72.90625 
Q 45.609375 72.90625 53.734375 70.53125 
Q 61.859375 68.171875 67.671875 62.5 
Q 72.796875 57.5625 75.28125 51.109375 
Q 77.78125 44.671875 77.78125 36.53125 
Q 77.78125 28.265625 75.28125 21.796875 
Q 72.796875 15.328125 67.671875 10.40625 
Q 61.8125 4.734375 53.609375 2.359375 
Q 45.40625 0 29 0 
L 9.1875 0 
z
" id="DejaVuSans-Bold-68"/>
    <path d="M 11.1875 54.6875 
L 28.8125 54.6875 
L 28.8125 35.796875 
L 11.1875 35.796875 
z
M 11.1875 18.890625 
L 28.8125 18.890625 
L 28.8125 0 
L 11.1875 0 
z
" id="DejaVuSans-Bold-58"/>
    <path d="M 10.015625 1.609375 
L 10.015625 15.09375 
Q 14.5 12.984375 18.59375 11.9375 
Q 22.703125 10.890625 26.703125 10.890625 
Q 35.109375 10.890625 39.796875 15.546875 
Q 44.484375 20.21875 45.3125 29.390625 
Q 42 26.953125 38.234375 25.734375 
Q 34.46875 24.515625 30.078125 24.515625 
Q 18.890625 24.515625 12.03125 31.03125 
Q 5.171875 37.546875 5.171875 48.1875 
Q 5.171875 59.96875 12.8125 67.046875 
Q 20.453125 74.125 33.296875 74.125 
Q 47.5625 74.125 55.375 64.5 
Q 63.1875 54.890625 63.1875 37.3125 
Q 63.1875 19.234375 54.046875 8.90625 
Q 44.921875 -1.421875 29 -1.421875 
Q 23.875 -1.421875 19.1875 -0.65625 
Q 14.5 0.09375 10.015625 1.609375 
z
M 33.203125 36.71875 
Q 38.140625 36.71875 40.625 39.90625 
Q 43.109375 43.109375 43.109375 49.515625 
Q 43.109375 55.859375 40.625 59.078125 
Q 38.140625 62.3125 33.203125 62.3125 
Q 28.265625 62.3125 25.78125 59.078125 
Q 23.296875 55.859375 23.296875 49.515625 
Q 23.296875 43.109375 25.78125 39.90625 
Q 28.265625 36.71875 33.203125 36.71875 
z
" id="DejaVuSans-Bold-57"/>
   </defs>
   <g style="fill:#808080;" transform="translate(0 575.8848)scale(0.1 -0.1)">
    <use xlink:href="#DejaVuSans-Bold-65"/>
    <use x="77.392578" xlink:href="#DejaVuSans-Bold-99"/>
    <use x="136.669922" xlink:href="#DejaVuSans-Bold-101"/>
    <use x="204.492188" xlink:href="#DejaVuSans-Bold-76"/>
    <use x="268.212891" xlink:href="#DejaVuSans-Bold-101"/>
    <use x="336.035156" xlink:href="#DejaVuSans-Bold-119"/>
    <use x="428.417969" xlink:href="#DejaVuSans-Bold-105"/>
    <use x="462.695312" xlink:href="#DejaVuSans-Bold-115"/>
    <use x="522.216797" xlink:href="#DejaVuSans-Bold-46"/>
    <use x="560.205078" xlink:href="#DejaVuSans-Bold-99"/>
    <use x="619.482422" xlink:href="#DejaVuSans-Bold-111"/>
    <use x="688.183594" xlink:href="#DejaVuSans-Bold-109"/>
    <use x="792.382812" xlink:href="#DejaVuSans-Bold-32"/>
    <use x="827.197266" xlink:href="#DejaVuSans-Bold-45"/>
    <use x="868.701172" xlink:href="#DejaVuSans-Bold-32"/>
    <use x="903.515625" xlink:href="#DejaVuSans-Bold-68"/>
    <use x="986.523438" xlink:href="#DejaVuSans-Bold-97"/>
    <use x="1054.003906" xlink:href="#DejaVuSans-Bold-116"/>
    <use x="1101.806641" xlink:href="#DejaVuSans-Bold-101"/>
    <use x="1169.628906" xlink:href="#DejaVuSans-Bold-58"/>
    <use x="1209.619141" xlink:href="#DejaVuSans-Bold-32"/>
    <use x="1244.433594" xlink:href="#DejaVuSans-Bold-50"/>
    <use x="1314.013672" xlink:href="#DejaVuSans-Bold-48"/>
    <use x="1383.59375" xlink:href="#DejaVuSans-Bold-50"/>
    <use x="1453.173828" xlink:href="#DejaVuSans-Bold-48"/>
    <use x="1522.753906" xlink:href="#DejaVuSans-Bold-45"/>
    <use x="1564.257812" xlink:href="#DejaVuSans-Bold-48"/>
    <use x="1633.837891" xlink:href="#DejaVuSans-Bold-57"/>
    <use x="1703.417969" xlink:href="#DejaVuSans-Bold-45"/>
    <use x="1744.921875" xlink:href="#DejaVuSans-Bold-50"/>
    <use x="1814.501953" xlink:href="#DejaVuSans-Bold-53"/>
   </g>
  </g>
 </g>
</svg>
