<?xml version="1.0" encoding="utf-8" standalone="no"?>
<!DOCTYPE svg PUBLIC "-//W3C//DTD SVG 1.1//EN"
  "http://www.w3.org/Graphics/SVG/1.1/DTD/svg11.dtd">
<!-- Created with matplotlib (https://matplotlib.org/) -->
<svg height="576pt" version="1.1" viewBox="0 0 576 576" width="576pt" xmlns="http://www.w3.org/2000/svg" xmlns:xlink="http://www.w3.org/1999/xlink">
 <defs>
  <style type="text/css">
*{stroke-linecap:butt;stroke-linejoin:round;}
  </style>
 </defs>
 <g id="figure_1">
  <g id="patch_1">
   <path d="M 0 576 
L 576 576 
L 576 0 
L 0 0 
z
" style="fill:#ffffff;"/>
  </g>
  <g id="axes_1">
   <g id="patch_2">
    <path d="M 369.211597 85.825937 
C 342.533052 76.115741 314.314519 71.319329 285.925964 71.669559 
C 257.537409 72.01979 229.445794 77.510902 203.014922 87.876311 
C 176.58405 98.24172 152.248681 113.310925 131.190258 132.352342 
C 110.131835 151.393759 92.696748 174.094174 79.731442 199.351521 
C 66.766136 224.608868 58.483877 252.007687 55.286756 280.217812 
C 52.089634 308.427937 54.030239 336.985338 61.014357 364.503601 
C 67.998476 392.021864 79.911226 418.048342 96.174264 441.31949 
C 112.437301 464.590638 132.783115 484.72367 156.22395 500.74116 
C 179.664784 516.75865 205.815061 528.397127 233.405227 535.091562 
C 260.995393 541.785996 289.571618 543.426271 317.746573 539.932755 
C 345.921527 536.439238 373.231762 527.869394 398.351409 514.639276 
C 423.471056 501.409157 445.986923 483.736385 464.805902 462.478945 
C 483.62488 441.221504 498.437416 416.729058 508.524386 390.190676 
C 518.611356 363.652293 523.806839 335.504503 523.858602 307.113835 
C 523.910366 278.723167 518.817559 250.556618 508.827429 223.981629 
C 498.837299 197.406641 484.114173 172.860344 465.372835 151.534421 
L 394.753846 213.594775 
C 405.998648 226.390329 414.832524 241.118107 420.826602 257.063101 
C 426.82068 273.008094 429.876364 289.908023 429.845306 306.942424 
C 429.814247 323.976825 426.696958 340.865499 420.644776 356.788528 
C 414.592594 372.711558 405.705072 387.407025 394.413685 400.16149 
C 383.122298 412.915954 369.612778 423.519617 354.54099 431.457688 
C 339.469201 439.39576 323.083061 444.537666 306.178088 446.633776 
C 289.273115 448.729886 272.12738 447.745721 255.573281 443.72906 
C 239.019181 439.712399 223.329015 432.729313 209.264514 423.118819 
C 195.200013 413.508325 182.992525 401.428506 173.234702 387.465817 
C 163.47688 373.503128 156.32923 357.887242 152.138759 341.376284 
C 147.948288 324.865326 146.783925 307.730885 148.702198 290.80481 
C 150.620471 273.878735 155.589826 257.439443 163.36901 242.285035 
C 171.148193 227.130628 181.609245 213.510378 194.244299 202.085528 
C 206.879353 190.660678 221.480574 181.619155 237.339098 175.399909 
C 253.197621 169.180664 270.05259 165.885997 287.085723 165.675858 
C 304.118856 165.46572 321.049975 168.343567 337.057103 174.169685 
L 369.211597 85.825937 
z
" style="fill:#1f77b4;stroke:#1f77b4;stroke-linejoin:miter;"/>
   </g>
   <g id="patch_3">
    <path d="M 465.372835 151.534421 
C 453.643715 138.187758 440.438857 126.214086 426.011536 115.843064 
C 411.584215 105.472043 396.027266 96.770407 379.63908 89.905057 
L 343.313592 176.617157 
C 353.146504 180.736367 362.480673 185.957349 371.137066 192.179961 
C 379.793458 198.402574 387.716373 205.586778 394.753846 213.594775 
L 465.372835 151.534421 
z
" style="fill:#aec7e8;stroke:#aec7e8;stroke-linejoin:miter;"/>
   </g>
   <g id="patch_4">
    <path d="M 379.63908 89.905057 
C 377.917677 89.183926 376.187745 88.483324 374.449653 87.803401 
C 372.711561 87.123478 370.965432 86.464281 369.211638 85.825952 
L 337.057127 174.169694 
C 338.109404 174.552692 339.157081 174.94821 340.199936 175.356163 
C 341.242791 175.764117 342.28075 176.184478 343.313592 176.617157 
L 379.63908 89.905057 
z
" style="fill:#ff7f0e;stroke:#ff7f0e;stroke-linejoin:miter;"/>
   </g>
   <g id="matplotlib.axis_1"/>
   <g id="matplotlib.axis_2"/>
   <g id="text_1">
    <!-- Linux -->
    <defs>
     <path d="M 9.1875 72.90625 
L 27.984375 72.90625 
L 27.984375 14.203125 
L 60.984375 14.203125 
L 60.984375 0 
L 9.1875 0 
z
" id="DejaVuSans-Bold-76"/>
     <path d="M 8.40625 54.6875 
L 25.875 54.6875 
L 25.875 0 
L 8.40625 0 
z
M 8.40625 75.984375 
L 25.875 75.984375 
L 25.875 61.71875 
L 8.40625 61.71875 
z
" id="DejaVuSans-Bold-105"/>
     <path d="M 63.375 33.296875 
L 63.375 0 
L 45.796875 0 
L 45.796875 5.421875 
L 45.796875 25.484375 
Q 45.796875 32.5625 45.484375 35.25 
Q 45.171875 37.9375 44.390625 39.203125 
Q 43.359375 40.921875 41.59375 41.875 
Q 39.84375 42.828125 37.59375 42.828125 
Q 32.125 42.828125 29 38.59375 
Q 25.875 34.375 25.875 26.90625 
L 25.875 0 
L 8.40625 0 
L 8.40625 54.6875 
L 25.875 54.6875 
L 25.875 46.6875 
Q 29.828125 51.46875 34.265625 53.734375 
Q 38.71875 56 44.09375 56 
Q 53.5625 56 58.46875 50.1875 
Q 63.375 44.390625 63.375 33.296875 
z
" id="DejaVuSans-Bold-110"/>
     <path d="M 7.8125 21.296875 
L 7.8125 54.6875 
L 25.390625 54.6875 
L 25.390625 49.21875 
Q 25.390625 44.78125 25.34375 38.0625 
Q 25.296875 31.34375 25.296875 29.109375 
Q 25.296875 22.515625 25.640625 19.609375 
Q 25.984375 16.703125 26.8125 15.375 
Q 27.875 13.671875 29.609375 12.734375 
Q 31.34375 11.8125 33.59375 11.8125 
Q 39.0625 11.8125 42.1875 16.015625 
Q 45.3125 20.21875 45.3125 27.6875 
L 45.3125 54.6875 
L 62.796875 54.6875 
L 62.796875 0 
L 45.3125 0 
L 45.3125 7.90625 
Q 41.359375 3.125 36.9375 0.84375 
Q 32.515625 -1.421875 27.203125 -1.421875 
Q 17.71875 -1.421875 12.765625 4.390625 
Q 7.8125 10.203125 7.8125 21.296875 
z
" id="DejaVuSans-Bold-117"/>
     <path d="M 22.21875 27.984375 
L 2.484375 54.6875 
L 21 54.6875 
L 32.171875 38.484375 
L 43.5 54.6875 
L 62.015625 54.6875 
L 42.28125 28.078125 
L 62.984375 0 
L 44.484375 0 
L 32.171875 17.28125 
L 20.015625 0 
L 1.515625 0 
z
" id="DejaVuSans-Bold-120"/>
    </defs>
    <g style="fill:#808080;" transform="translate(75.891308 526.21737)scale(0.22 -0.22)">
     <use xlink:href="#DejaVuSans-Bold-76"/>
     <use x="63.720703" xlink:href="#DejaVuSans-Bold-105"/>
     <use x="97.998047" xlink:href="#DejaVuSans-Bold-110"/>
     <use x="169.189453" xlink:href="#DejaVuSans-Bold-117"/>
     <use x="240.380859" xlink:href="#DejaVuSans-Bold-120"/>
    </g>
   </g>
   <g id="text_2">
    <path d="M 146.786263 467.646552 
L 146.786263 464.67999 
Q 147.772826 465.144052 148.673451 465.374365 
Q 149.577513 465.604677 150.457513 465.604677 
Q 152.306888 465.604677 153.338138 464.580302 
Q 154.369388 463.55249 154.551576 461.534677 
Q 153.822826 462.070927 152.994388 462.339052 
Q 152.165951 462.607177 151.200013 462.607177 
Q 148.738763 462.607177 147.229701 461.17374 
Q 145.720638 459.740302 145.720638 457.399365 
Q 145.720638 454.80749 147.401576 453.250302 
Q 149.082513 451.693115 151.908138 451.693115 
Q 155.046576 451.693115 156.765326 453.810615 
Q 158.484076 455.924677 158.484076 459.791865 
Q 158.484076 463.769052 156.473138 466.04124 
Q 154.465638 468.313427 150.962826 468.313427 
Q 149.835326 468.313427 148.804076 468.14499 
Q 147.772826 467.97999 146.786263 467.646552 
z
M 151.887513 459.92249 
Q 152.973763 459.92249 153.520326 459.22124 
Q 154.066888 458.516552 154.066888 457.107177 
Q 154.066888 455.711552 153.520326 455.003427 
Q 152.973763 454.291865 151.887513 454.291865 
Q 150.801263 454.291865 150.254701 455.003427 
Q 149.708138 455.711552 149.708138 457.107177 
Q 149.708138 458.516552 150.254701 459.22124 
Q 150.801263 459.92249 151.887513 459.92249 
z
M 166.229193 464.961865 
L 173.28638 464.961865 
L 173.28638 468.000615 
L 161.629818 468.000615 
L 161.629818 464.961865 
L 167.48388 459.791865 
Q 168.271068 459.08374 168.645755 458.406552 
Q 169.020443 457.729365 169.020443 457.000615 
Q 169.020443 455.873115 168.264193 455.185615 
Q 167.507943 454.498115 166.249818 454.498115 
Q 165.28388 454.498115 164.132318 454.910615 
Q 162.984193 455.323115 161.674505 456.14124 
L 161.674505 452.617802 
Q 163.07013 452.157177 164.434818 451.916552 
Q 165.799505 451.67249 167.109193 451.67249 
Q 169.989818 451.67249 171.584818 452.940927 
Q 173.179818 454.205927 173.179818 456.474677 
Q 173.179818 457.784365 172.50263 458.91874 
Q 171.825443 460.049677 169.65638 461.954052 
z
M 177.442747 463.844677 
L 181.309935 463.844677 
L 181.309935 468.000615 
L 177.442747 468.000615 
z
M 193.675482 459.96374 
Q 193.675482 456.955927 193.111732 455.72874 
Q 192.547982 454.498115 191.214232 454.498115 
Q 189.883919 454.498115 189.313294 455.72874 
Q 188.742669 456.955927 188.742669 459.96374 
Q 188.742669 463.005927 189.313294 464.25374 
Q 189.883919 465.498115 191.214232 465.498115 
Q 192.537669 465.498115 193.104857 464.25374 
Q 193.675482 463.005927 193.675482 459.96374 
z
M 197.810794 459.998115 
Q 197.810794 463.982177 196.092044 466.147802 
Q 194.373294 468.313427 191.214232 468.313427 
Q 188.044857 468.313427 186.326107 466.147802 
Q 184.607357 463.982177 184.607357 459.998115 
Q 184.607357 456.000302 186.326107 453.838115 
Q 188.044857 451.67249 191.214232 451.67249 
Q 194.373294 451.67249 196.092044 453.838115 
Q 197.810794 456.000302 197.810794 459.998115 
z
M 215.909661 461.383427 
Q 215.149974 461.383427 214.730599 462.043427 
Q 214.311224 462.703427 214.311224 463.930615 
Q 214.311224 465.164677 214.723724 465.824677 
Q 215.136224 466.484677 215.909661 466.484677 
Q 216.683099 466.484677 217.092161 465.824677 
Q 217.501224 465.164677 217.501224 463.930615 
Q 217.501224 462.703427 217.085286 462.043427 
Q 216.672786 461.383427 215.909661 461.383427 
z
M 215.909661 459.57874 
Q 217.910286 459.57874 219.058411 460.740615 
Q 220.206536 461.899052 220.206536 463.930615 
Q 220.206536 465.95874 219.058411 467.137802 
Q 217.910286 468.313427 215.909661 468.313427 
Q 213.912474 468.313427 212.757474 467.137802 
Q 211.602474 465.95874 211.602474 463.930615 
Q 211.602474 461.909365 212.757474 460.744052 
Q 213.912474 459.57874 215.909661 459.57874 
z
M 206.061224 468.313427 
L 203.685911 468.313427 
L 213.709661 451.67249 
L 216.095286 451.67249 
z
M 203.857786 451.67249 
Q 205.854974 451.67249 206.999661 452.837802 
Q 208.144349 454.003115 208.144349 456.034677 
Q 208.144349 458.062802 206.999661 459.23499 
Q 205.854974 460.407177 203.857786 460.407177 
Q 201.860599 460.407177 200.715911 459.23499 
Q 199.571224 458.062802 199.571224 456.034677 
Q 199.571224 454.003115 200.715911 452.837802 
Q 201.860599 451.67249 203.857786 451.67249 
z
M 203.857786 453.477177 
Q 203.084349 453.477177 202.664974 454.144052 
Q 202.245599 454.80749 202.245599 456.034677 
Q 202.245599 457.26874 202.664974 457.94249 
Q 203.084349 458.612802 203.857786 458.612802 
Q 204.631224 458.612802 205.043724 457.94249 
Q 205.459661 457.26874 205.459661 456.034677 
Q 205.459661 454.80749 205.040286 454.144052 
Q 204.620911 453.477177 203.857786 453.477177 
z
" style="fill:#ffffff;stroke:#808080;"/>
    <path d="M 146.786263 467.646552 
L 146.786263 464.67999 
Q 147.772826 465.144052 148.673451 465.374365 
Q 149.577513 465.604677 150.457513 465.604677 
Q 152.306888 465.604677 153.338138 464.580302 
Q 154.369388 463.55249 154.551576 461.534677 
Q 153.822826 462.070927 152.994388 462.339052 
Q 152.165951 462.607177 151.200013 462.607177 
Q 148.738763 462.607177 147.229701 461.17374 
Q 145.720638 459.740302 145.720638 457.399365 
Q 145.720638 454.80749 147.401576 453.250302 
Q 149.082513 451.693115 151.908138 451.693115 
Q 155.046576 451.693115 156.765326 453.810615 
Q 158.484076 455.924677 158.484076 459.791865 
Q 158.484076 463.769052 156.473138 466.04124 
Q 154.465638 468.313427 150.962826 468.313427 
Q 149.835326 468.313427 148.804076 468.14499 
Q 147.772826 467.97999 146.786263 467.646552 
z
M 151.887513 459.92249 
Q 152.973763 459.92249 153.520326 459.22124 
Q 154.066888 458.516552 154.066888 457.107177 
Q 154.066888 455.711552 153.520326 455.003427 
Q 152.973763 454.291865 151.887513 454.291865 
Q 150.801263 454.291865 150.254701 455.003427 
Q 149.708138 455.711552 149.708138 457.107177 
Q 149.708138 458.516552 150.254701 459.22124 
Q 150.801263 459.92249 151.887513 459.92249 
z
M 166.229193 464.961865 
L 173.28638 464.961865 
L 173.28638 468.000615 
L 161.629818 468.000615 
L 161.629818 464.961865 
L 167.48388 459.791865 
Q 168.271068 459.08374 168.645755 458.406552 
Q 169.020443 457.729365 169.020443 457.000615 
Q 169.020443 455.873115 168.264193 455.185615 
Q 167.507943 454.498115 166.249818 454.498115 
Q 165.28388 454.498115 164.132318 454.910615 
Q 162.984193 455.323115 161.674505 456.14124 
L 161.674505 452.617802 
Q 163.07013 452.157177 164.434818 451.916552 
Q 165.799505 451.67249 167.109193 451.67249 
Q 169.989818 451.67249 171.584818 452.940927 
Q 173.179818 454.205927 173.179818 456.474677 
Q 173.179818 457.784365 172.50263 458.91874 
Q 171.825443 460.049677 169.65638 461.954052 
z
M 177.442747 463.844677 
L 181.309935 463.844677 
L 181.309935 468.000615 
L 177.442747 468.000615 
z
M 193.675482 459.96374 
Q 193.675482 456.955927 193.111732 455.72874 
Q 192.547982 454.498115 191.214232 454.498115 
Q 189.883919 454.498115 189.313294 455.72874 
Q 188.742669 456.955927 188.742669 459.96374 
Q 188.742669 463.005927 189.313294 464.25374 
Q 189.883919 465.498115 191.214232 465.498115 
Q 192.537669 465.498115 193.104857 464.25374 
Q 193.675482 463.005927 193.675482 459.96374 
z
M 197.810794 459.998115 
Q 197.810794 463.982177 196.092044 466.147802 
Q 194.373294 468.313427 191.214232 468.313427 
Q 188.044857 468.313427 186.326107 466.147802 
Q 184.607357 463.982177 184.607357 459.998115 
Q 184.607357 456.000302 186.326107 453.838115 
Q 188.044857 451.67249 191.214232 451.67249 
Q 194.373294 451.67249 196.092044 453.838115 
Q 197.810794 456.000302 197.810794 459.998115 
z
M 215.909661 461.383427 
Q 215.149974 461.383427 214.730599 462.043427 
Q 214.311224 462.703427 214.311224 463.930615 
Q 214.311224 465.164677 214.723724 465.824677 
Q 215.136224 466.484677 215.909661 466.484677 
Q 216.683099 466.484677 217.092161 465.824677 
Q 217.501224 465.164677 217.501224 463.930615 
Q 217.501224 462.703427 217.085286 462.043427 
Q 216.672786 461.383427 215.909661 461.383427 
z
M 215.909661 459.57874 
Q 217.910286 459.57874 219.058411 460.740615 
Q 220.206536 461.899052 220.206536 463.930615 
Q 220.206536 465.95874 219.058411 467.137802 
Q 217.910286 468.313427 215.909661 468.313427 
Q 213.912474 468.313427 212.757474 467.137802 
Q 211.602474 465.95874 211.602474 463.930615 
Q 211.602474 461.909365 212.757474 460.744052 
Q 213.912474 459.57874 215.909661 459.57874 
z
M 206.061224 468.313427 
L 203.685911 468.313427 
L 213.709661 451.67249 
L 216.095286 451.67249 
z
M 203.857786 451.67249 
Q 205.854974 451.67249 206.999661 452.837802 
Q 208.144349 454.003115 208.144349 456.034677 
Q 208.144349 458.062802 206.999661 459.23499 
Q 205.854974 460.407177 203.857786 460.407177 
Q 201.860599 460.407177 200.715911 459.23499 
Q 199.571224 458.062802 199.571224 456.034677 
Q 199.571224 454.003115 200.715911 452.837802 
Q 201.860599 451.67249 203.857786 451.67249 
z
M 203.857786 453.477177 
Q 203.084349 453.477177 202.664974 454.144052 
Q 202.245599 454.80749 202.245599 456.034677 
Q 202.245599 457.26874 202.664974 457.94249 
Q 203.084349 458.612802 203.857786 458.612802 
Q 204.631224 458.612802 205.043724 457.94249 
Q 205.459661 457.26874 205.459661 456.034677 
Q 205.459661 454.80749 205.040286 454.144052 
Q 204.620911 453.477177 203.857786 453.477177 
z
" style="fill:#ffffff;"/>
   </g>
   <g id="text_3">
    <!-- BSD -->
    <defs>
     <path d="M 38.375 44.671875 
Q 42.828125 44.671875 45.109375 46.625 
Q 47.40625 48.578125 47.40625 52.390625 
Q 47.40625 56.15625 45.109375 58.125 
Q 42.828125 60.109375 38.375 60.109375 
L 27.984375 60.109375 
L 27.984375 44.671875 
z
M 39.015625 12.796875 
Q 44.671875 12.796875 47.53125 15.1875 
Q 50.390625 17.578125 50.390625 22.40625 
Q 50.390625 27.15625 47.5625 29.515625 
Q 44.734375 31.890625 39.015625 31.890625 
L 27.984375 31.890625 
L 27.984375 12.796875 
z
M 56.5 39.015625 
Q 62.546875 37.25 65.859375 32.515625 
Q 69.1875 27.78125 69.1875 20.90625 
Q 69.1875 10.359375 62.0625 5.171875 
Q 54.9375 0 40.375 0 
L 9.1875 0 
L 9.1875 72.90625 
L 37.40625 72.90625 
Q 52.59375 72.90625 59.40625 68.3125 
Q 66.21875 63.71875 66.21875 53.609375 
Q 66.21875 48.296875 63.71875 44.5625 
Q 61.234375 40.828125 56.5 39.015625 
z
" id="DejaVuSans-Bold-66"/>
     <path d="M 59.90625 70.609375 
L 59.90625 55.171875 
Q 53.90625 57.859375 48.1875 59.21875 
Q 42.484375 60.59375 37.40625 60.59375 
Q 30.671875 60.59375 27.4375 58.734375 
Q 24.21875 56.890625 24.21875 52.984375 
Q 24.21875 50.046875 26.390625 48.40625 
Q 28.5625 46.78125 34.28125 45.609375 
L 42.28125 44 
Q 54.4375 41.546875 59.5625 36.5625 
Q 64.703125 31.59375 64.703125 22.40625 
Q 64.703125 10.359375 57.546875 4.46875 
Q 50.390625 -1.421875 35.6875 -1.421875 
Q 28.765625 -1.421875 21.78125 -0.09375 
Q 14.796875 1.21875 7.8125 3.8125 
L 7.8125 19.671875 
Q 14.796875 15.96875 21.3125 14.078125 
Q 27.828125 12.203125 33.890625 12.203125 
Q 40.046875 12.203125 43.3125 14.25 
Q 46.578125 16.3125 46.578125 20.125 
Q 46.578125 23.53125 44.359375 25.390625 
Q 42.140625 27.25 35.5 28.71875 
L 28.21875 30.328125 
Q 17.28125 32.671875 12.21875 37.796875 
Q 7.171875 42.921875 7.171875 51.609375 
Q 7.171875 62.5 14.203125 68.359375 
Q 21.234375 74.21875 34.421875 74.21875 
Q 40.4375 74.21875 46.78125 73.3125 
Q 53.125 72.40625 59.90625 70.609375 
z
" id="DejaVuSans-Bold-83"/>
     <path d="M 27.984375 58.6875 
L 27.984375 14.203125 
L 34.71875 14.203125 
Q 46.234375 14.203125 52.3125 19.921875 
Q 58.40625 25.640625 58.40625 36.53125 
Q 58.40625 47.359375 52.34375 53.015625 
Q 46.296875 58.6875 34.71875 58.6875 
z
M 9.1875 72.90625 
L 29 72.90625 
Q 45.609375 72.90625 53.734375 70.53125 
Q 61.859375 68.171875 67.671875 62.5 
Q 72.796875 57.5625 75.28125 51.109375 
Q 77.78125 44.671875 77.78125 36.53125 
Q 77.78125 28.265625 75.28125 21.796875 
Q 72.796875 15.328125 67.671875 10.40625 
Q 61.8125 4.734375 53.609375 2.359375 
Q 45.40625 0 29 0 
L 9.1875 0 
z
" id="DejaVuSans-Bold-68"/>
    </defs>
    <g style="fill:#808080;" transform="translate(439.730153 102.829465)scale(0.22 -0.22)">
     <use xlink:href="#DejaVuSans-Bold-66"/>
     <use x="76.220703" xlink:href="#DejaVuSans-Bold-83"/>
     <use x="148.242188" xlink:href="#DejaVuSans-Bold-68"/>
    </g>
   </g>
   <g id="text_4">
    <path d="M 369.537738 144.042763 
L 381.623988 144.042763 
L 381.623988 146.373388 
L 375.371176 160.082138 
L 371.342426 160.082138 
L 377.261801 147.08495 
L 369.537738 147.08495 
z
M 385.618793 155.9262 
L 389.48598 155.9262 
L 389.48598 160.082138 
L 385.618793 160.082138 
z
M 398.070277 157.043388 
L 405.127465 157.043388 
L 405.127465 160.082138 
L 393.470902 160.082138 
L 393.470902 157.043388 
L 399.324965 151.873388 
Q 400.112152 151.165263 400.48684 150.488075 
Q 400.861527 149.810888 400.861527 149.082138 
Q 400.861527 147.954638 400.105277 147.267138 
Q 399.349027 146.579638 398.090902 146.579638 
Q 397.124965 146.579638 395.973402 146.992138 
Q 394.825277 147.404638 393.51559 148.222763 
L 393.51559 144.699325 
Q 394.911215 144.2387 396.275902 143.998075 
Q 397.64059 143.754013 398.950277 143.754013 
Q 401.830902 143.754013 403.425902 145.02245 
Q 405.020902 146.28745 405.020902 148.5562 
Q 405.020902 149.865888 404.343715 151.000263 
Q 403.666527 152.1312 401.497465 154.035575 
z
M 424.085707 153.46495 
Q 423.326019 153.46495 422.906644 154.12495 
Q 422.487269 154.78495 422.487269 156.012138 
Q 422.487269 157.2462 422.899769 157.9062 
Q 423.312269 158.5662 424.085707 158.5662 
Q 424.859144 158.5662 425.268207 157.9062 
Q 425.677269 157.2462 425.677269 156.012138 
Q 425.677269 154.78495 425.261332 154.12495 
Q 424.848832 153.46495 424.085707 153.46495 
z
M 424.085707 151.660263 
Q 426.086332 151.660263 427.234457 152.822138 
Q 428.382582 153.980575 428.382582 156.012138 
Q 428.382582 158.040263 427.234457 159.219325 
Q 426.086332 160.39495 424.085707 160.39495 
Q 422.088519 160.39495 420.933519 159.219325 
Q 419.778519 158.040263 419.778519 156.012138 
Q 419.778519 153.990888 420.933519 152.825575 
Q 422.088519 151.660263 424.085707 151.660263 
z
M 414.237269 160.39495 
L 411.861957 160.39495 
L 421.885707 143.754013 
L 424.271332 143.754013 
z
M 412.033832 143.754013 
Q 414.031019 143.754013 415.175707 144.919325 
Q 416.320394 146.084638 416.320394 148.1162 
Q 416.320394 150.144325 415.175707 151.316513 
Q 414.031019 152.4887 412.033832 152.4887 
Q 410.036644 152.4887 408.891957 151.316513 
Q 407.747269 150.144325 407.747269 148.1162 
Q 407.747269 146.084638 408.891957 144.919325 
Q 410.036644 143.754013 412.033832 143.754013 
z
M 412.033832 145.5587 
Q 411.260394 145.5587 410.841019 146.225575 
Q 410.421644 146.889013 410.421644 148.1162 
Q 410.421644 149.350263 410.841019 150.024013 
Q 411.260394 150.694325 412.033832 150.694325 
Q 412.807269 150.694325 413.219769 150.024013 
Q 413.635707 149.350263 413.635707 148.1162 
Q 413.635707 146.889013 413.216332 146.225575 
Q 412.796957 145.5587 412.033832 145.5587 
z
" style="fill:#ffffff;stroke:#808080;"/>
    <path d="M 369.537738 144.042763 
L 381.623988 144.042763 
L 381.623988 146.373388 
L 375.371176 160.082138 
L 371.342426 160.082138 
L 377.261801 147.08495 
L 369.537738 147.08495 
z
M 385.618793 155.9262 
L 389.48598 155.9262 
L 389.48598 160.082138 
L 385.618793 160.082138 
z
M 398.070277 157.043388 
L 405.127465 157.043388 
L 405.127465 160.082138 
L 393.470902 160.082138 
L 393.470902 157.043388 
L 399.324965 151.873388 
Q 400.112152 151.165263 400.48684 150.488075 
Q 400.861527 149.810888 400.861527 149.082138 
Q 400.861527 147.954638 400.105277 147.267138 
Q 399.349027 146.579638 398.090902 146.579638 
Q 397.124965 146.579638 395.973402 146.992138 
Q 394.825277 147.404638 393.51559 148.222763 
L 393.51559 144.699325 
Q 394.911215 144.2387 396.275902 143.998075 
Q 397.64059 143.754013 398.950277 143.754013 
Q 401.830902 143.754013 403.425902 145.02245 
Q 405.020902 146.28745 405.020902 148.5562 
Q 405.020902 149.865888 404.343715 151.000263 
Q 403.666527 152.1312 401.497465 154.035575 
z
M 424.085707 153.46495 
Q 423.326019 153.46495 422.906644 154.12495 
Q 422.487269 154.78495 422.487269 156.012138 
Q 422.487269 157.2462 422.899769 157.9062 
Q 423.312269 158.5662 424.085707 158.5662 
Q 424.859144 158.5662 425.268207 157.9062 
Q 425.677269 157.2462 425.677269 156.012138 
Q 425.677269 154.78495 425.261332 154.12495 
Q 424.848832 153.46495 424.085707 153.46495 
z
M 424.085707 151.660263 
Q 426.086332 151.660263 427.234457 152.822138 
Q 428.382582 153.980575 428.382582 156.012138 
Q 428.382582 158.040263 427.234457 159.219325 
Q 426.086332 160.39495 424.085707 160.39495 
Q 422.088519 160.39495 420.933519 159.219325 
Q 419.778519 158.040263 419.778519 156.012138 
Q 419.778519 153.990888 420.933519 152.825575 
Q 422.088519 151.660263 424.085707 151.660263 
z
M 414.237269 160.39495 
L 411.861957 160.39495 
L 421.885707 143.754013 
L 424.271332 143.754013 
z
M 412.033832 143.754013 
Q 414.031019 143.754013 415.175707 144.919325 
Q 416.320394 146.084638 416.320394 148.1162 
Q 416.320394 150.144325 415.175707 151.316513 
Q 414.031019 152.4887 412.033832 152.4887 
Q 410.036644 152.4887 408.891957 151.316513 
Q 407.747269 150.144325 407.747269 148.1162 
Q 407.747269 146.084638 408.891957 144.919325 
Q 410.036644 143.754013 412.033832 143.754013 
z
M 412.033832 145.5587 
Q 411.260394 145.5587 410.841019 146.225575 
Q 410.421644 146.889013 410.421644 148.1162 
Q 410.421644 149.350263 410.841019 150.024013 
Q 411.260394 150.694325 412.033832 150.694325 
Q 412.807269 150.694325 413.219769 150.024013 
Q 413.635707 149.350263 413.635707 148.1162 
Q 413.635707 146.889013 413.216332 146.225575 
Q 412.796957 145.5587 412.033832 145.5587 
z
" style="fill:#ffffff;"/>
   </g>
   <g id="text_5">
    <!-- Other (0.8%) -->
    <defs>
     <path d="M 42.484375 60.59375 
Q 33.890625 60.59375 29.15625 54.25 
Q 24.421875 47.90625 24.421875 36.375 
Q 24.421875 24.90625 29.15625 18.546875 
Q 33.890625 12.203125 42.484375 12.203125 
Q 51.125 12.203125 55.859375 18.546875 
Q 60.59375 24.90625 60.59375 36.375 
Q 60.59375 47.90625 55.859375 54.25 
Q 51.125 60.59375 42.484375 60.59375 
z
M 42.484375 74.21875 
Q 60.0625 74.21875 70.015625 64.15625 
Q 79.984375 54.109375 79.984375 36.375 
Q 79.984375 18.703125 70.015625 8.640625 
Q 60.0625 -1.421875 42.484375 -1.421875 
Q 24.953125 -1.421875 14.96875 8.640625 
Q 4.984375 18.703125 4.984375 36.375 
Q 4.984375 54.109375 14.96875 64.15625 
Q 24.953125 74.21875 42.484375 74.21875 
z
" id="DejaVuSans-Bold-79"/>
     <path d="M 27.484375 70.21875 
L 27.484375 54.6875 
L 45.515625 54.6875 
L 45.515625 42.1875 
L 27.484375 42.1875 
L 27.484375 19 
Q 27.484375 15.1875 29 13.84375 
Q 30.515625 12.5 35.015625 12.5 
L 44 12.5 
L 44 0 
L 29 0 
Q 18.65625 0 14.328125 4.3125 
Q 10.015625 8.640625 10.015625 19 
L 10.015625 42.1875 
L 1.3125 42.1875 
L 1.3125 54.6875 
L 10.015625 54.6875 
L 10.015625 70.21875 
z
" id="DejaVuSans-Bold-116"/>
     <path d="M 63.375 33.296875 
L 63.375 0 
L 45.796875 0 
L 45.796875 5.421875 
L 45.796875 25.390625 
Q 45.796875 32.5625 45.484375 35.25 
Q 45.171875 37.9375 44.390625 39.203125 
Q 43.359375 40.921875 41.59375 41.875 
Q 39.84375 42.828125 37.59375 42.828125 
Q 32.125 42.828125 29 38.59375 
Q 25.875 34.375 25.875 26.90625 
L 25.875 0 
L 8.40625 0 
L 8.40625 75.984375 
L 25.875 75.984375 
L 25.875 46.6875 
Q 29.828125 51.46875 34.265625 53.734375 
Q 38.71875 56 44.09375 56 
Q 53.5625 56 58.46875 50.1875 
Q 63.375 44.390625 63.375 33.296875 
z
" id="DejaVuSans-Bold-104"/>
     <path d="M 62.984375 27.484375 
L 62.984375 22.515625 
L 22.125 22.515625 
Q 22.75 16.359375 26.5625 13.28125 
Q 30.375 10.203125 37.203125 10.203125 
Q 42.71875 10.203125 48.5 11.84375 
Q 54.296875 13.484375 60.40625 16.796875 
L 60.40625 3.328125 
Q 54.203125 0.984375 48 -0.21875 
Q 41.796875 -1.421875 35.59375 -1.421875 
Q 20.75 -1.421875 12.515625 6.125 
Q 4.296875 13.671875 4.296875 27.296875 
Q 4.296875 40.671875 12.375 48.328125 
Q 20.453125 56 34.625 56 
Q 47.515625 56 55.25 48.234375 
Q 62.984375 40.484375 62.984375 27.484375 
z
M 45.015625 33.296875 
Q 45.015625 38.28125 42.109375 41.328125 
Q 39.203125 44.390625 34.515625 44.390625 
Q 29.4375 44.390625 26.265625 41.53125 
Q 23.09375 38.671875 22.3125 33.296875 
z
" id="DejaVuSans-Bold-101"/>
     <path d="M 49.03125 39.796875 
Q 46.734375 40.875 44.453125 41.375 
Q 42.1875 41.890625 39.890625 41.890625 
Q 33.15625 41.890625 29.515625 37.5625 
Q 25.875 33.25 25.875 25.203125 
L 25.875 0 
L 8.40625 0 
L 8.40625 54.6875 
L 25.875 54.6875 
L 25.875 45.703125 
Q 29.25 51.078125 33.609375 53.53125 
Q 37.984375 56 44.09375 56 
Q 44.96875 56 45.984375 55.921875 
Q 47.015625 55.859375 48.96875 55.609375 
z
" id="DejaVuSans-Bold-114"/>
     <path id="DejaVuSans-Bold-32"/>
     <path d="M 37.703125 -13.1875 
L 23.1875 -13.1875 
Q 15.71875 -1.125 12.15625 9.734375 
Q 8.59375 20.609375 8.59375 31.296875 
Q 8.59375 42 12.171875 52.953125 
Q 15.765625 63.921875 23.1875 75.875 
L 37.703125 75.875 
Q 31.453125 64.3125 28.328125 53.25 
Q 25.203125 42.1875 25.203125 31.390625 
Q 25.203125 20.609375 28.296875 9.515625 
Q 31.390625 -1.5625 37.703125 -13.1875 
z
" id="DejaVuSans-Bold-40"/>
     <path d="M 46 36.53125 
Q 46 50.203125 43.4375 55.78125 
Q 40.875 61.375 34.8125 61.375 
Q 28.765625 61.375 26.171875 55.78125 
Q 23.578125 50.203125 23.578125 36.53125 
Q 23.578125 22.703125 26.171875 17.03125 
Q 28.765625 11.375 34.8125 11.375 
Q 40.828125 11.375 43.40625 17.03125 
Q 46 22.703125 46 36.53125 
z
M 64.796875 36.375 
Q 64.796875 18.265625 56.984375 8.421875 
Q 49.171875 -1.421875 34.8125 -1.421875 
Q 20.40625 -1.421875 12.59375 8.421875 
Q 4.78125 18.265625 4.78125 36.375 
Q 4.78125 54.546875 12.59375 64.375 
Q 20.40625 74.21875 34.8125 74.21875 
Q 49.171875 74.21875 56.984375 64.375 
Q 64.796875 54.546875 64.796875 36.375 
z
" id="DejaVuSans-Bold-48"/>
     <path d="M 10.203125 18.890625 
L 27.78125 18.890625 
L 27.78125 0 
L 10.203125 0 
z
" id="DejaVuSans-Bold-46"/>
     <path d="M 34.8125 32.625 
Q 29.546875 32.625 26.703125 29.734375 
Q 23.875 26.859375 23.875 21.484375 
Q 23.875 16.109375 26.703125 13.25 
Q 29.546875 10.40625 34.8125 10.40625 
Q 40.046875 10.40625 42.828125 13.25 
Q 45.609375 16.109375 45.609375 21.484375 
Q 45.609375 26.90625 42.828125 29.765625 
Q 40.046875 32.625 34.8125 32.625 
z
M 21.09375 38.8125 
Q 14.453125 40.828125 11.078125 44.96875 
Q 7.71875 49.125 7.71875 55.328125 
Q 7.71875 64.546875 14.59375 69.375 
Q 21.484375 74.21875 34.8125 74.21875 
Q 48.046875 74.21875 54.921875 69.40625 
Q 61.8125 64.59375 61.8125 55.328125 
Q 61.8125 49.125 58.421875 44.96875 
Q 55.03125 40.828125 48.390625 38.8125 
Q 55.8125 36.765625 59.59375 32.15625 
Q 63.375 27.546875 63.375 20.515625 
Q 63.375 9.671875 56.171875 4.125 
Q 48.96875 -1.421875 34.8125 -1.421875 
Q 20.609375 -1.421875 13.359375 4.125 
Q 6.109375 9.671875 6.109375 20.515625 
Q 6.109375 27.546875 9.890625 32.15625 
Q 13.671875 36.765625 21.09375 38.8125 
z
M 25.484375 53.421875 
Q 25.484375 49.078125 27.90625 46.734375 
Q 30.328125 44.390625 34.8125 44.390625 
Q 39.203125 44.390625 41.59375 46.734375 
Q 44 49.078125 44 53.421875 
Q 44 57.765625 41.59375 60.078125 
Q 39.203125 62.40625 34.8125 62.40625 
Q 30.328125 62.40625 27.90625 60.0625 
Q 25.484375 57.71875 25.484375 53.421875 
z
" id="DejaVuSans-Bold-56"/>
     <path d="M 77.484375 30.078125 
Q 74.03125 30.078125 72.125 27.078125 
Q 70.21875 24.078125 70.21875 18.5 
Q 70.21875 12.890625 72.09375 9.890625 
Q 73.96875 6.890625 77.484375 6.890625 
Q 81 6.890625 82.859375 9.890625 
Q 84.71875 12.890625 84.71875 18.5 
Q 84.71875 24.078125 82.828125 27.078125 
Q 80.953125 30.078125 77.484375 30.078125 
z
M 77.484375 38.28125 
Q 86.578125 38.28125 91.796875 33 
Q 97.015625 27.734375 97.015625 18.5 
Q 97.015625 9.28125 91.796875 3.921875 
Q 86.578125 -1.421875 77.484375 -1.421875 
Q 68.40625 -1.421875 63.15625 3.921875 
Q 57.90625 9.28125 57.90625 18.5 
Q 57.90625 27.6875 63.15625 32.984375 
Q 68.40625 38.28125 77.484375 38.28125 
z
M 32.71875 -1.421875 
L 21.921875 -1.421875 
L 67.484375 74.21875 
L 78.328125 74.21875 
z
M 22.703125 74.21875 
Q 31.78125 74.21875 36.984375 68.921875 
Q 42.1875 63.625 42.1875 54.390625 
Q 42.1875 45.171875 36.984375 39.84375 
Q 31.78125 34.515625 22.703125 34.515625 
Q 13.625 34.515625 8.421875 39.84375 
Q 3.21875 45.171875 3.21875 54.390625 
Q 3.21875 63.625 8.421875 68.921875 
Q 13.625 74.21875 22.703125 74.21875 
z
M 22.703125 66.015625 
Q 19.1875 66.015625 17.28125 62.984375 
Q 15.375 59.96875 15.375 54.390625 
Q 15.375 48.78125 17.28125 45.71875 
Q 19.1875 42.671875 22.703125 42.671875 
Q 26.21875 42.671875 28.09375 45.71875 
Q 29.984375 48.78125 29.984375 54.390625 
Q 29.984375 59.96875 28.078125 62.984375 
Q 26.171875 66.015625 22.703125 66.015625 
z
" id="DejaVuSans-Bold-37"/>
     <path d="M 8.015625 -13.1875 
Q 14.265625 -1.5625 17.390625 9.515625 
Q 20.515625 20.609375 20.515625 31.390625 
Q 20.515625 42.1875 17.390625 53.25 
Q 14.265625 64.3125 8.015625 75.875 
L 22.515625 75.875 
Q 29.9375 63.921875 33.515625 52.953125 
Q 37.109375 42 37.109375 31.296875 
Q 37.109375 20.609375 33.546875 9.734375 
Q 29.984375 -1.125 22.515625 -13.1875 
z
" id="DejaVuSans-Bold-41"/>
    </defs>
    <g style="fill:#808080;" transform="translate(383.012082 71.985835)scale(0.22 -0.22)">
     <use xlink:href="#DejaVuSans-Bold-79"/>
     <use x="85.009766" xlink:href="#DejaVuSans-Bold-116"/>
     <use x="132.8125" xlink:href="#DejaVuSans-Bold-104"/>
     <use x="204.003906" xlink:href="#DejaVuSans-Bold-101"/>
     <use x="271.826172" xlink:href="#DejaVuSans-Bold-114"/>
     <use x="321.142578" xlink:href="#DejaVuSans-Bold-32"/>
     <use x="355.957031" xlink:href="#DejaVuSans-Bold-40"/>
     <use x="401.660156" xlink:href="#DejaVuSans-Bold-48"/>
     <use x="471.240234" xlink:href="#DejaVuSans-Bold-46"/>
     <use x="509.228516" xlink:href="#DejaVuSans-Bold-56"/>
     <use x="578.808594" xlink:href="#DejaVuSans-Bold-37"/>
     <use x="679.003906" xlink:href="#DejaVuSans-Bold-41"/>
    </g>
   </g>
   <g id="text_6">
    <!-- Total Number of Relays by Platform -->
    <defs>
     <path d="M 0.484375 72.90625 
L 67.671875 72.90625 
L 67.671875 58.6875 
L 43.5 58.6875 
L 43.5 0 
L 24.703125 0 
L 24.703125 58.6875 
L 0.484375 58.6875 
z
" id="DejaVuSans-Bold-84"/>
     <path d="M 34.421875 43.5 
Q 28.609375 43.5 25.5625 39.328125 
Q 22.515625 35.15625 22.515625 27.296875 
Q 22.515625 19.4375 25.5625 15.25 
Q 28.609375 11.078125 34.421875 11.078125 
Q 40.140625 11.078125 43.15625 15.25 
Q 46.1875 19.4375 46.1875 27.296875 
Q 46.1875 35.15625 43.15625 39.328125 
Q 40.140625 43.5 34.421875 43.5 
z
M 34.421875 56 
Q 48.53125 56 56.46875 48.375 
Q 64.40625 40.765625 64.40625 27.296875 
Q 64.40625 13.8125 56.46875 6.1875 
Q 48.53125 -1.421875 34.421875 -1.421875 
Q 20.265625 -1.421875 12.28125 6.1875 
Q 4.296875 13.8125 4.296875 27.296875 
Q 4.296875 40.765625 12.28125 48.375 
Q 20.265625 56 34.421875 56 
z
" id="DejaVuSans-Bold-111"/>
     <path d="M 32.90625 24.609375 
Q 27.4375 24.609375 24.671875 22.75 
Q 21.921875 20.90625 21.921875 17.28125 
Q 21.921875 13.96875 24.140625 12.078125 
Q 26.375 10.203125 30.328125 10.203125 
Q 35.25 10.203125 38.625 13.734375 
Q 42 17.28125 42 22.609375 
L 42 24.609375 
z
M 59.625 31.203125 
L 59.625 0 
L 42 0 
L 42 8.109375 
Q 38.484375 3.125 34.078125 0.84375 
Q 29.6875 -1.421875 23.390625 -1.421875 
Q 14.890625 -1.421875 9.59375 3.53125 
Q 4.296875 8.5 4.296875 16.40625 
Q 4.296875 26.03125 10.90625 30.515625 
Q 17.53125 35.015625 31.6875 35.015625 
L 42 35.015625 
L 42 36.375 
Q 42 40.53125 38.71875 42.453125 
Q 35.453125 44.390625 28.515625 44.390625 
Q 22.90625 44.390625 18.0625 43.265625 
Q 13.234375 42.140625 9.078125 39.890625 
L 9.078125 53.21875 
Q 14.703125 54.59375 20.359375 55.296875 
Q 26.03125 56 31.6875 56 
Q 46.484375 56 53.046875 50.171875 
Q 59.625 44.34375 59.625 31.203125 
z
" id="DejaVuSans-Bold-97"/>
     <path d="M 8.40625 75.984375 
L 25.875 75.984375 
L 25.875 0 
L 8.40625 0 
z
" id="DejaVuSans-Bold-108"/>
     <path d="M 9.1875 72.90625 
L 30.171875 72.90625 
L 56.6875 22.90625 
L 56.6875 72.90625 
L 74.515625 72.90625 
L 74.515625 0 
L 53.515625 0 
L 27 50 
L 27 0 
L 9.1875 0 
z
" id="DejaVuSans-Bold-78"/>
     <path d="M 59.078125 45.609375 
Q 62.40625 50.6875 66.96875 53.34375 
Q 71.53125 56 77 56 
Q 86.421875 56 91.359375 50.1875 
Q 96.296875 44.390625 96.296875 33.296875 
L 96.296875 0 
L 78.71875 0 
L 78.71875 28.515625 
Q 78.765625 29.15625 78.78125 29.828125 
Q 78.8125 30.515625 78.8125 31.78125 
Q 78.8125 37.59375 77.09375 40.203125 
Q 75.390625 42.828125 71.578125 42.828125 
Q 66.609375 42.828125 63.890625 38.71875 
Q 61.1875 34.625 61.078125 26.859375 
L 61.078125 0 
L 43.5 0 
L 43.5 28.515625 
Q 43.5 37.59375 41.9375 40.203125 
Q 40.375 42.828125 36.375 42.828125 
Q 31.34375 42.828125 28.609375 38.703125 
Q 25.875 34.578125 25.875 26.90625 
L 25.875 0 
L 8.296875 0 
L 8.296875 54.6875 
L 25.875 54.6875 
L 25.875 46.6875 
Q 29.109375 51.3125 33.28125 53.65625 
Q 37.453125 56 42.484375 56 
Q 48.140625 56 52.484375 53.265625 
Q 56.84375 50.53125 59.078125 45.609375 
z
" id="DejaVuSans-Bold-109"/>
     <path d="M 37.5 11.28125 
Q 43.109375 11.28125 46.0625 15.375 
Q 49.03125 19.484375 49.03125 27.296875 
Q 49.03125 35.109375 46.0625 39.203125 
Q 43.109375 43.3125 37.5 43.3125 
Q 31.890625 43.3125 28.875 39.1875 
Q 25.875 35.0625 25.875 27.296875 
Q 25.875 19.53125 28.875 15.40625 
Q 31.890625 11.28125 37.5 11.28125 
z
M 25.875 46.6875 
Q 29.5 51.46875 33.890625 53.734375 
Q 38.28125 56 44 56 
Q 54.109375 56 60.59375 47.96875 
Q 67.09375 39.9375 67.09375 27.296875 
Q 67.09375 14.65625 60.59375 6.609375 
Q 54.109375 -1.421875 44 -1.421875 
Q 38.28125 -1.421875 33.890625 0.84375 
Q 29.5 3.125 25.875 7.90625 
L 25.875 0 
L 8.40625 0 
L 8.40625 75.984375 
L 25.875 75.984375 
z
" id="DejaVuSans-Bold-98"/>
     <path d="M 44.390625 75.984375 
L 44.390625 64.5 
L 34.71875 64.5 
Q 31 64.5 29.53125 63.15625 
Q 28.078125 61.8125 28.078125 58.5 
L 28.078125 54.6875 
L 43.015625 54.6875 
L 43.015625 42.1875 
L 28.078125 42.1875 
L 28.078125 0 
L 10.59375 0 
L 10.59375 42.1875 
L 1.90625 42.1875 
L 1.90625 54.6875 
L 10.59375 54.6875 
L 10.59375 58.5 
Q 10.59375 67.4375 15.578125 71.703125 
Q 20.5625 75.984375 31 75.984375 
z
" id="DejaVuSans-Bold-102"/>
     <path d="M 35.890625 40.578125 
Q 41.796875 40.578125 44.359375 42.765625 
Q 46.921875 44.96875 46.921875 50 
Q 46.921875 54.984375 44.359375 57.125 
Q 41.796875 59.28125 35.890625 59.28125 
L 27.984375 59.28125 
L 27.984375 40.578125 
z
M 27.984375 27.59375 
L 27.984375 0 
L 9.1875 0 
L 9.1875 72.90625 
L 37.890625 72.90625 
Q 52.296875 72.90625 59 68.0625 
Q 65.71875 63.234375 65.71875 52.78125 
Q 65.71875 45.5625 62.21875 40.921875 
Q 58.734375 36.28125 51.703125 34.078125 
Q 55.5625 33.203125 58.609375 30.09375 
Q 61.671875 27 64.796875 20.703125 
L 75 0 
L 54.984375 0 
L 46.09375 18.109375 
Q 43.40625 23.578125 40.640625 25.578125 
Q 37.890625 27.59375 33.296875 27.59375 
z
" id="DejaVuSans-Bold-82"/>
     <path d="M 1.21875 54.6875 
L 18.703125 54.6875 
L 33.40625 17.578125 
L 45.90625 54.6875 
L 63.375 54.6875 
L 40.375 -5.171875 
Q 36.921875 -14.3125 32.296875 -17.9375 
Q 27.6875 -21.578125 20.125 -21.578125 
L 10.015625 -21.578125 
L 10.015625 -10.109375 
L 15.484375 -10.109375 
Q 19.921875 -10.109375 21.9375 -8.6875 
Q 23.96875 -7.28125 25.09375 -3.609375 
L 25.59375 -2.09375 
z
" id="DejaVuSans-Bold-121"/>
     <path d="M 51.125 52.984375 
L 51.125 39.703125 
Q 45.515625 42.046875 40.28125 43.21875 
Q 35.0625 44.390625 30.421875 44.390625 
Q 25.4375 44.390625 23.015625 43.140625 
Q 20.609375 41.890625 20.609375 39.3125 
Q 20.609375 37.203125 22.4375 36.078125 
Q 24.265625 34.96875 29 34.421875 
L 32.078125 33.984375 
Q 45.515625 32.28125 50.140625 28.375 
Q 54.78125 24.46875 54.78125 16.109375 
Q 54.78125 7.375 48.328125 2.96875 
Q 41.890625 -1.421875 29.109375 -1.421875 
Q 23.6875 -1.421875 17.890625 -0.5625 
Q 12.109375 0.296875 6 2 
L 6 15.28125 
Q 11.234375 12.75 16.71875 11.46875 
Q 22.21875 10.203125 27.875 10.203125 
Q 33.015625 10.203125 35.59375 11.609375 
Q 38.1875 13.03125 38.1875 15.828125 
Q 38.1875 18.171875 36.40625 19.3125 
Q 34.625 20.453125 29.296875 21.09375 
L 26.21875 21.484375 
Q 14.546875 22.953125 9.859375 26.90625 
Q 5.171875 30.859375 5.171875 38.921875 
Q 5.171875 47.609375 11.125 51.796875 
Q 17.09375 56 29.390625 56 
Q 34.234375 56 39.546875 55.265625 
Q 44.875 54.546875 51.125 52.984375 
z
" id="DejaVuSans-Bold-115"/>
     <path d="M 9.1875 72.90625 
L 40.375 72.90625 
Q 54.296875 72.90625 61.734375 66.71875 
Q 69.1875 60.546875 69.1875 49.125 
Q 69.1875 37.640625 61.734375 31.46875 
Q 54.296875 25.296875 40.375 25.296875 
L 27.984375 25.296875 
L 27.984375 0 
L 9.1875 0 
z
M 27.984375 59.28125 
L 27.984375 38.921875 
L 38.375 38.921875 
Q 43.84375 38.921875 46.828125 41.578125 
Q 49.8125 44.234375 49.8125 49.125 
Q 49.8125 54 46.828125 56.640625 
Q 43.84375 59.28125 38.375 59.28125 
z
" id="DejaVuSans-Bold-80"/>
    </defs>
    <g style="fill:#808080;" transform="translate(35.882812 28.075968)scale(0.25 -0.25)">
     <use xlink:href="#DejaVuSans-Bold-84"/>
     <use x="68.009766" xlink:href="#DejaVuSans-Bold-111"/>
     <use x="136.710938" xlink:href="#DejaVuSans-Bold-116"/>
     <use x="184.513672" xlink:href="#DejaVuSans-Bold-97"/>
     <use x="251.994141" xlink:href="#DejaVuSans-Bold-108"/>
     <use x="286.271484" xlink:href="#DejaVuSans-Bold-32"/>
     <use x="321.085938" xlink:href="#DejaVuSans-Bold-78"/>
     <use x="404.777344" xlink:href="#DejaVuSans-Bold-117"/>
     <use x="475.96875" xlink:href="#DejaVuSans-Bold-109"/>
     <use x="580.167969" xlink:href="#DejaVuSans-Bold-98"/>
     <use x="651.75" xlink:href="#DejaVuSans-Bold-101"/>
     <use x="719.572266" xlink:href="#DejaVuSans-Bold-114"/>
     <use x="768.888672" xlink:href="#DejaVuSans-Bold-32"/>
     <use x="803.703125" xlink:href="#DejaVuSans-Bold-111"/>
     <use x="872.404297" xlink:href="#DejaVuSans-Bold-102"/>
     <use x="915.910156" xlink:href="#DejaVuSans-Bold-32"/>
     <use x="950.724609" xlink:href="#DejaVuSans-Bold-82"/>
     <use x="1027.726562" xlink:href="#DejaVuSans-Bold-101"/>
     <use x="1095.548828" xlink:href="#DejaVuSans-Bold-108"/>
     <use x="1129.826172" xlink:href="#DejaVuSans-Bold-97"/>
     <use x="1197.259766" xlink:href="#DejaVuSans-Bold-121"/>
     <use x="1262.445312" xlink:href="#DejaVuSans-Bold-115"/>
     <use x="1321.966797" xlink:href="#DejaVuSans-Bold-32"/>
     <use x="1356.78125" xlink:href="#DejaVuSans-Bold-98"/>
     <use x="1428.363281" xlink:href="#DejaVuSans-Bold-121"/>
     <use x="1493.548828" xlink:href="#DejaVuSans-Bold-32"/>
     <use x="1528.363281" xlink:href="#DejaVuSans-Bold-80"/>
     <use x="1601.654297" xlink:href="#DejaVuSans-Bold-108"/>
     <use x="1635.931641" xlink:href="#DejaVuSans-Bold-97"/>
     <use x="1703.412109" xlink:href="#DejaVuSans-Bold-116"/>
     <use x="1751.214844" xlink:href="#DejaVuSans-Bold-102"/>
     <use x="1794.720703" xlink:href="#DejaVuSans-Bold-111"/>
     <use x="1863.421875" xlink:href="#DejaVuSans-Bold-114"/>
     <use x="1912.738281" xlink:href="#DejaVuSans-Bold-109"/>
    </g>
   </g>
  </g>
  <g id="text_7">
   <!-- AceLewis.com - Date: 2020-09-25 -->
   <defs>
    <path d="M 53.421875 13.28125 
L 24.03125 13.28125 
L 19.390625 0 
L 0.484375 0 
L 27.484375 72.90625 
L 49.90625 72.90625 
L 76.90625 0 
L 58.015625 0 
z
M 28.71875 26.8125 
L 48.6875 26.8125 
L 38.71875 55.8125 
z
" id="DejaVuSans-Bold-65"/>
    <path d="M 52.59375 52.984375 
L 52.59375 38.71875 
Q 49.03125 41.15625 45.4375 42.328125 
Q 41.84375 43.5 37.984375 43.5 
Q 30.671875 43.5 26.59375 39.234375 
Q 22.515625 34.96875 22.515625 27.296875 
Q 22.515625 19.625 26.59375 15.34375 
Q 30.671875 11.078125 37.984375 11.078125 
Q 42.09375 11.078125 45.78125 12.296875 
Q 49.46875 13.53125 52.59375 15.921875 
L 52.59375 1.609375 
Q 48.484375 0.09375 44.265625 -0.65625 
Q 40.046875 -1.421875 35.796875 -1.421875 
Q 21 -1.421875 12.640625 6.171875 
Q 4.296875 13.765625 4.296875 27.296875 
Q 4.296875 40.828125 12.640625 48.40625 
Q 21 56 35.796875 56 
Q 40.09375 56 44.265625 55.25 
Q 48.4375 54.5 52.59375 52.984375 
z
" id="DejaVuSans-Bold-99"/>
    <path d="M 3.515625 54.6875 
L 20.515625 54.6875 
L 29.6875 17 
L 38.921875 54.6875 
L 53.515625 54.6875 
L 62.703125 17.390625 
L 71.921875 54.6875 
L 88.921875 54.6875 
L 74.515625 0 
L 55.421875 0 
L 46.1875 37.59375 
L 37.015625 0 
L 17.921875 0 
z
" id="DejaVuSans-Bold-119"/>
    <path d="M 5.421875 35.890625 
L 36.078125 35.890625 
L 36.078125 21.6875 
L 5.421875 21.6875 
z
" id="DejaVuSans-Bold-45"/>
    <path d="M 11.1875 54.6875 
L 28.8125 54.6875 
L 28.8125 35.796875 
L 11.1875 35.796875 
z
M 11.1875 18.890625 
L 28.8125 18.890625 
L 28.8125 0 
L 11.1875 0 
z
" id="DejaVuSans-Bold-58"/>
    <path d="M 28.8125 13.8125 
L 60.890625 13.8125 
L 60.890625 0 
L 7.90625 0 
L 7.90625 13.8125 
L 34.515625 37.3125 
Q 38.09375 40.53125 39.796875 43.609375 
Q 41.5 46.6875 41.5 50 
Q 41.5 55.125 38.0625 58.25 
Q 34.625 61.375 28.90625 61.375 
Q 24.515625 61.375 19.28125 59.5 
Q 14.0625 57.625 8.109375 53.90625 
L 8.109375 69.921875 
Q 14.453125 72.015625 20.65625 73.109375 
Q 26.859375 74.21875 32.8125 74.21875 
Q 45.90625 74.21875 53.15625 68.453125 
Q 60.40625 62.703125 60.40625 52.390625 
Q 60.40625 46.4375 57.328125 41.28125 
Q 54.25 36.140625 44.390625 27.484375 
z
" id="DejaVuSans-Bold-50"/>
    <path d="M 10.015625 1.609375 
L 10.015625 15.09375 
Q 14.5 12.984375 18.59375 11.9375 
Q 22.703125 10.890625 26.703125 10.890625 
Q 35.109375 10.890625 39.796875 15.546875 
Q 44.484375 20.21875 45.3125 29.390625 
Q 42 26.953125 38.234375 25.734375 
Q 34.46875 24.515625 30.078125 24.515625 
Q 18.890625 24.515625 12.03125 31.03125 
Q 5.171875 37.546875 5.171875 48.1875 
Q 5.171875 59.96875 12.8125 67.046875 
Q 20.453125 74.125 33.296875 74.125 
Q 47.5625 74.125 55.375 64.5 
Q 63.1875 54.890625 63.1875 37.3125 
Q 63.1875 19.234375 54.046875 8.90625 
Q 44.921875 -1.421875 29 -1.421875 
Q 23.875 -1.421875 19.1875 -0.65625 
Q 14.5 0.09375 10.015625 1.609375 
z
M 33.203125 36.71875 
Q 38.140625 36.71875 40.625 39.90625 
Q 43.109375 43.109375 43.109375 49.515625 
Q 43.109375 55.859375 40.625 59.078125 
Q 38.140625 62.3125 33.203125 62.3125 
Q 28.265625 62.3125 25.78125 59.078125 
Q 23.296875 55.859375 23.296875 49.515625 
Q 23.296875 43.109375 25.78125 39.90625 
Q 28.265625 36.71875 33.203125 36.71875 
z
" id="DejaVuSans-Bold-57"/>
    <path d="M 10.59375 72.90625 
L 57.328125 72.90625 
L 57.328125 59.078125 
L 25.59375 59.078125 
L 25.59375 47.796875 
Q 27.734375 48.390625 29.90625 48.703125 
Q 32.078125 49.03125 34.421875 49.03125 
Q 47.75 49.03125 55.171875 42.359375 
Q 62.59375 35.6875 62.59375 23.78125 
Q 62.59375 11.96875 54.515625 5.265625 
Q 46.4375 -1.421875 32.078125 -1.421875 
Q 25.875 -1.421875 19.796875 -0.21875 
Q 13.71875 0.984375 7.71875 3.421875 
L 7.71875 18.21875 
Q 13.671875 14.796875 19.015625 13.078125 
Q 24.359375 11.375 29.109375 11.375 
Q 35.9375 11.375 39.859375 14.71875 
Q 43.796875 18.0625 43.796875 23.78125 
Q 43.796875 29.546875 39.859375 32.859375 
Q 35.9375 36.1875 29.109375 36.1875 
Q 25.046875 36.1875 20.453125 35.125 
Q 15.875 34.078125 10.59375 31.890625 
z
" id="DejaVuSans-Bold-53"/>
   </defs>
   <g style="fill:#808080;" transform="translate(0 575.8848)scale(0.1 -0.1)">
    <use xlink:href="#DejaVuSans-Bold-65"/>
    <use x="77.392578" xlink:href="#DejaVuSans-Bold-99"/>
    <use x="136.669922" xlink:href="#DejaVuSans-Bold-101"/>
    <use x="204.492188" xlink:href="#DejaVuSans-Bold-76"/>
    <use x="268.212891" xlink:href="#DejaVuSans-Bold-101"/>
    <use x="336.035156" xlink:href="#DejaVuSans-Bold-119"/>
    <use x="428.417969" xlink:href="#DejaVuSans-Bold-105"/>
    <use x="462.695312" xlink:href="#DejaVuSans-Bold-115"/>
    <use x="522.216797" xlink:href="#DejaVuSans-Bold-46"/>
    <use x="560.205078" xlink:href="#DejaVuSans-Bold-99"/>
    <use x="619.482422" xlink:href="#DejaVuSans-Bold-111"/>
    <use x="688.183594" xlink:href="#DejaVuSans-Bold-109"/>
    <use x="792.382812" xlink:href="#DejaVuSans-Bold-32"/>
    <use x="827.197266" xlink:href="#DejaVuSans-Bold-45"/>
    <use x="868.701172" xlink:href="#DejaVuSans-Bold-32"/>
    <use x="903.515625" xlink:href="#DejaVuSans-Bold-68"/>
    <use x="986.523438" xlink:href="#DejaVuSans-Bold-97"/>
    <use x="1054.003906" xlink:href="#DejaVuSans-Bold-116"/>
    <use x="1101.806641" xlink:href="#DejaVuSans-Bold-101"/>
    <use x="1169.628906" xlink:href="#DejaVuSans-Bold-58"/>
    <use x="1209.619141" xlink:href="#DejaVuSans-Bold-32"/>
    <use x="1244.433594" xlink:href="#DejaVuSans-Bold-50"/>
    <use x="1314.013672" xlink:href="#DejaVuSans-Bold-48"/>
    <use x="1383.59375" xlink:href="#DejaVuSans-Bold-50"/>
    <use x="1453.173828" xlink:href="#DejaVuSans-Bold-48"/>
    <use x="1522.753906" xlink:href="#DejaVuSans-Bold-45"/>
    <use x="1564.257812" xlink:href="#DejaVuSans-Bold-48"/>
    <use x="1633.837891" xlink:href="#DejaVuSans-Bold-57"/>
    <use x="1703.417969" xlink:href="#DejaVuSans-Bold-45"/>
    <use x="1744.921875" xlink:href="#DejaVuSans-Bold-50"/>
    <use x="1814.501953" xlink:href="#DejaVuSans-Bold-53"/>
   </g>
  </g>
 </g>
</svg>
