<?xml version="1.0" encoding="utf-8" standalone="no"?>
<!DOCTYPE svg PUBLIC "-//W3C//DTD SVG 1.1//EN"
  "http://www.w3.org/Graphics/SVG/1.1/DTD/svg11.dtd">
<!-- Created with matplotlib (https://matplotlib.org/) -->
<svg height="576pt" version="1.1" viewBox="0 0 576 576" width="576pt" xmlns="http://www.w3.org/2000/svg" xmlns:xlink="http://www.w3.org/1999/xlink">
 <defs>
  <style type="text/css">
*{stroke-linecap:butt;stroke-linejoin:round;}
  </style>
 </defs>
 <g id="figure_1">
  <g id="patch_1">
   <path d="M 0 576 
L 576 576 
L 576 0 
L 0 0 
z
" style="fill:#ffffff;"/>
  </g>
  <g id="axes_1">
   <g id="patch_2">
    <path d="M 369.396227 83.939603 
C 342.554277 74.169932 314.15971 69.356253 285.597594 69.733374 
C 257.035478 70.110494 228.777902 75.672181 202.203253 86.147139 
C 175.628604 96.622097 151.176122 111.83719 130.038583 131.050236 
C 108.901044 150.263282 91.42782 173.156718 78.471244 198.613816 
C 65.514668 224.070914 57.288892 251.670906 54.195166 280.067483 
C 51.10144 308.464059 53.190898 337.187867 60.361617 364.837776 
C 67.532336 392.487686 79.665795 418.606685 96.170132 441.920706 
C 112.674468 465.234727 133.27689 485.358423 156.972425 501.310174 
C 180.667959 517.261925 207.064953 528.778072 234.87578 535.296864 
C 262.686606 541.815656 291.451592 543.229347 319.7676 539.468979 
C 348.083609 535.70861 375.482618 526.836336 400.628121 513.284939 
C 425.773625 499.733541 448.250004 481.727007 466.960877 460.143681 
C 485.67175 438.560356 500.307853 413.75698 510.155246 386.943447 
C 520.002639 360.129914 524.89856 331.749412 524.604188 303.186323 
C 524.309816 274.623234 518.830017 246.349664 508.432092 219.74478 
C 498.034167 193.139895 482.889979 168.643436 463.738251 147.450324 
L 393.727788 210.717168 
C 405.218825 223.433035 414.305338 238.13091 420.544093 254.093841 
C 426.782848 270.056772 430.070727 287.020913 430.247351 304.158767 
C 430.423974 321.29662 427.486421 338.324922 421.577986 354.413041 
C 415.66955 370.501161 406.887888 385.383187 395.661364 398.333182 
C 384.434841 411.283177 370.949013 422.087098 355.861711 430.217936 
C 340.774409 438.348775 324.335003 443.672139 307.345398 445.92836 
C 290.355793 448.184581 273.096801 447.336367 256.410306 443.425092 
C 239.72381 439.513816 223.885613 432.604129 209.668293 423.033078 
C 195.450972 413.462027 183.089519 401.38781 173.186917 387.399397 
C 163.284315 373.410984 156.00424 357.739585 151.701808 341.149639 
C 147.399377 324.559693 146.145702 307.325409 148.001938 290.287463 
C 149.858173 273.249517 154.793638 256.689522 162.567584 241.415263 
C 170.34153 226.141004 180.825464 212.404943 193.507988 200.877115 
C 206.190511 189.349287 220.862001 180.220231 236.80679 173.935257 
C 252.751579 167.650282 269.706125 164.31327 286.843394 164.086997 
C 303.980664 163.860725 321.017404 166.748933 337.122574 172.610735 
L 369.396227 83.939603 
z
" style="fill:#1f77b4;stroke:#1f77b4;stroke-linejoin:miter;"/>
   </g>
   <g id="patch_3">
    <path d="M 463.738251 147.450324 
C 451.353675 133.745676 437.402225 121.54291 422.170851 111.093013 
C 406.939478 100.643116 390.533328 92.018226 373.289844 85.39574 
L 339.458744 173.484417 
C 349.804835 177.457909 359.648525 182.632843 368.787349 188.902781 
C 377.926173 195.172719 386.297043 202.494379 393.727788 210.717168 
L 463.738251 147.450324 
z
" style="fill:#aec7e8;stroke:#aec7e8;stroke-linejoin:miter;"/>
   </g>
   <g id="patch_4">
    <path d="M 373.289844 85.39574 
C 372.643057 85.147337 371.99518 84.901785 371.34623 84.65909 
C 370.69728 84.416395 370.047264 84.176561 369.396202 83.939593 
L 337.122559 172.610729 
C 337.513197 172.75291 337.903206 172.896811 338.292576 173.042427 
C 338.681946 173.188044 339.070672 173.335376 339.458744 173.484417 
L 373.289844 85.39574 
z
" style="fill:#ff7f0e;stroke:#ff7f0e;stroke-linejoin:miter;"/>
   </g>
   <g id="matplotlib.axis_1"/>
   <g id="matplotlib.axis_2"/>
   <g id="text_1">
    <!-- Linux -->
    <defs>
     <path d="M 9.1875 72.90625 
L 27.984375 72.90625 
L 27.984375 14.203125 
L 60.984375 14.203125 
L 60.984375 0 
L 9.1875 0 
z
" id="DejaVuSans-Bold-76"/>
     <path d="M 8.40625 54.6875 
L 25.875 54.6875 
L 25.875 0 
L 8.40625 0 
z
M 8.40625 75.984375 
L 25.875 75.984375 
L 25.875 61.71875 
L 8.40625 61.71875 
z
" id="DejaVuSans-Bold-105"/>
     <path d="M 63.375 33.296875 
L 63.375 0 
L 45.796875 0 
L 45.796875 5.421875 
L 45.796875 25.484375 
Q 45.796875 32.5625 45.484375 35.25 
Q 45.171875 37.9375 44.390625 39.203125 
Q 43.359375 40.921875 41.59375 41.875 
Q 39.84375 42.828125 37.59375 42.828125 
Q 32.125 42.828125 29 38.59375 
Q 25.875 34.375 25.875 26.90625 
L 25.875 0 
L 8.40625 0 
L 8.40625 54.6875 
L 25.875 54.6875 
L 25.875 46.6875 
Q 29.828125 51.46875 34.265625 53.734375 
Q 38.71875 56 44.09375 56 
Q 53.5625 56 58.46875 50.1875 
Q 63.375 44.390625 63.375 33.296875 
z
" id="DejaVuSans-Bold-110"/>
     <path d="M 7.8125 21.296875 
L 7.8125 54.6875 
L 25.390625 54.6875 
L 25.390625 49.21875 
Q 25.390625 44.78125 25.34375 38.0625 
Q 25.296875 31.34375 25.296875 29.109375 
Q 25.296875 22.515625 25.640625 19.609375 
Q 25.984375 16.703125 26.8125 15.375 
Q 27.875 13.671875 29.609375 12.734375 
Q 31.34375 11.8125 33.59375 11.8125 
Q 39.0625 11.8125 42.1875 16.015625 
Q 45.3125 20.21875 45.3125 27.6875 
L 45.3125 54.6875 
L 62.796875 54.6875 
L 62.796875 0 
L 45.3125 0 
L 45.3125 7.90625 
Q 41.359375 3.125 36.9375 0.84375 
Q 32.515625 -1.421875 27.203125 -1.421875 
Q 17.71875 -1.421875 12.765625 4.390625 
Q 7.8125 10.203125 7.8125 21.296875 
z
" id="DejaVuSans-Bold-117"/>
     <path d="M 22.21875 27.984375 
L 2.484375 54.6875 
L 21 54.6875 
L 32.171875 38.484375 
L 43.5 54.6875 
L 62.015625 54.6875 
L 42.28125 28.078125 
L 62.984375 0 
L 44.484375 0 
L 32.171875 17.28125 
L 20.015625 0 
L 1.515625 0 
z
" id="DejaVuSans-Bold-120"/>
    </defs>
    <g style="fill:#808080;" transform="translate(76.725958 526.950074)scale(0.22 -0.22)">
     <use xlink:href="#DejaVuSans-Bold-76"/>
     <use x="63.720703" xlink:href="#DejaVuSans-Bold-105"/>
     <use x="97.998047" xlink:href="#DejaVuSans-Bold-110"/>
     <use x="169.189453" xlink:href="#DejaVuSans-Bold-117"/>
     <use x="240.380859" xlink:href="#DejaVuSans-Bold-120"/>
    </g>
   </g>
   <g id="text_2">
    <path d="M 147.36239 467.888189 
L 147.36239 464.921626 
Q 148.348952 465.385689 149.249577 465.616001 
Q 150.15364 465.846314 151.03364 465.846314 
Q 152.883015 465.846314 153.914265 464.821939 
Q 154.945515 463.794126 155.127702 461.776314 
Q 154.398952 462.312564 153.570515 462.580689 
Q 152.742077 462.848814 151.77614 462.848814 
Q 149.31489 462.848814 147.805827 461.415376 
Q 146.296765 459.981939 146.296765 457.641001 
Q 146.296765 455.049126 147.977702 453.491939 
Q 149.65864 451.934751 152.484265 451.934751 
Q 155.622702 451.934751 157.341452 454.052251 
Q 159.060202 456.166314 159.060202 460.033501 
Q 159.060202 464.010689 157.049265 466.282876 
Q 155.041765 468.555064 151.538952 468.555064 
Q 150.411452 468.555064 149.380202 468.386626 
Q 148.348952 468.221626 147.36239 467.888189 
z
M 152.46364 460.164126 
Q 153.54989 460.164126 154.096452 459.462876 
Q 154.643015 458.758189 154.643015 457.348814 
Q 154.643015 455.953189 154.096452 455.245064 
Q 153.54989 454.533501 152.46364 454.533501 
Q 151.37739 454.533501 150.830827 455.245064 
Q 150.284265 455.953189 150.284265 457.348814 
Q 150.284265 458.758189 150.830827 459.462876 
Q 151.37739 460.164126 152.46364 460.164126 
z
M 166.80532 465.203501 
L 173.862507 465.203501 
L 173.862507 468.242251 
L 162.205945 468.242251 
L 162.205945 465.203501 
L 168.060007 460.033501 
Q 168.847195 459.325376 169.221882 458.648189 
Q 169.59657 457.971001 169.59657 457.242251 
Q 169.59657 456.114751 168.84032 455.427251 
Q 168.08407 454.739751 166.825945 454.739751 
Q 165.860007 454.739751 164.708445 455.152251 
Q 163.56032 455.564751 162.250632 456.382876 
L 162.250632 452.859439 
Q 163.646257 452.398814 165.010945 452.158189 
Q 166.375632 451.914126 167.68532 451.914126 
Q 170.565945 451.914126 172.160945 453.182564 
Q 173.755945 454.447564 173.755945 456.716314 
Q 173.755945 458.026001 173.078757 459.160376 
Q 172.40157 460.291314 170.232507 462.195689 
z
M 178.018874 464.086314 
L 181.886062 464.086314 
L 181.886062 468.242251 
L 178.018874 468.242251 
z
M 194.378796 459.593501 
Q 196.001296 460.012876 196.843484 461.051001 
Q 197.689109 462.085689 197.689109 463.687564 
Q 197.689109 466.073189 195.860359 467.314126 
Q 194.035046 468.555064 190.535671 468.555064 
Q 189.298171 468.555064 188.057234 468.355689 
Q 186.816296 468.156314 185.602859 467.757564 
L 185.602859 464.567564 
Q 186.764734 465.148501 187.905984 465.444126 
Q 189.050671 465.739751 190.157546 465.739751 
Q 191.800671 465.739751 192.677234 465.172564 
Q 193.553796 464.601939 193.553796 463.536314 
Q 193.553796 462.439751 192.656609 461.876001 
Q 191.759421 461.312251 190.006296 461.312251 
L 188.352859 461.312251 
L 188.352859 458.648189 
L 190.092234 458.648189 
Q 191.652859 458.648189 192.412546 458.160064 
Q 193.175671 457.671939 193.175671 456.671626 
Q 193.175671 455.750376 192.433171 455.245064 
Q 191.694109 454.739751 190.339734 454.739751 
Q 189.342859 454.739751 188.321921 454.966626 
Q 187.300984 455.190064 186.290359 455.630064 
L 186.290359 452.601626 
Q 187.514109 452.257876 188.717234 452.086001 
Q 189.920359 451.914126 191.082234 451.914126 
Q 194.206921 451.914126 195.757234 452.941939 
Q 197.310984 453.966314 197.310984 456.028814 
Q 197.310984 457.434751 196.568484 458.331939 
Q 195.829421 459.229126 194.378796 459.593501 
z
M 216.485788 461.625064 
Q 215.726101 461.625064 215.306726 462.285064 
Q 214.887351 462.945064 214.887351 464.172251 
Q 214.887351 465.406314 215.299851 466.066314 
Q 215.712351 466.726314 216.485788 466.726314 
Q 217.259226 466.726314 217.668288 466.066314 
Q 218.077351 465.406314 218.077351 464.172251 
Q 218.077351 462.945064 217.661413 462.285064 
Q 217.248913 461.625064 216.485788 461.625064 
z
M 216.485788 459.820376 
Q 218.486413 459.820376 219.634538 460.982251 
Q 220.782663 462.140689 220.782663 464.172251 
Q 220.782663 466.200376 219.634538 467.379439 
Q 218.486413 468.555064 216.485788 468.555064 
Q 214.488601 468.555064 213.333601 467.379439 
Q 212.178601 466.200376 212.178601 464.172251 
Q 212.178601 462.151001 213.333601 460.985689 
Q 214.488601 459.820376 216.485788 459.820376 
z
M 206.637351 468.555064 
L 204.262038 468.555064 
L 214.285788 451.914126 
L 216.671413 451.914126 
z
M 204.433913 451.914126 
Q 206.431101 451.914126 207.575788 453.079439 
Q 208.720476 454.244751 208.720476 456.276314 
Q 208.720476 458.304439 207.575788 459.476626 
Q 206.431101 460.648814 204.433913 460.648814 
Q 202.436726 460.648814 201.292038 459.476626 
Q 200.147351 458.304439 200.147351 456.276314 
Q 200.147351 454.244751 201.292038 453.079439 
Q 202.436726 451.914126 204.433913 451.914126 
z
M 204.433913 453.718814 
Q 203.660476 453.718814 203.241101 454.385689 
Q 202.821726 455.049126 202.821726 456.276314 
Q 202.821726 457.510376 203.241101 458.184126 
Q 203.660476 458.854439 204.433913 458.854439 
Q 205.207351 458.854439 205.619851 458.184126 
Q 206.035788 457.510376 206.035788 456.276314 
Q 206.035788 455.049126 205.616413 454.385689 
Q 205.197038 453.718814 204.433913 453.718814 
z
" style="fill:#ffffff;stroke:#808080;"/>
    <path d="M 147.36239 467.888189 
L 147.36239 464.921626 
Q 148.348952 465.385689 149.249577 465.616001 
Q 150.15364 465.846314 151.03364 465.846314 
Q 152.883015 465.846314 153.914265 464.821939 
Q 154.945515 463.794126 155.127702 461.776314 
Q 154.398952 462.312564 153.570515 462.580689 
Q 152.742077 462.848814 151.77614 462.848814 
Q 149.31489 462.848814 147.805827 461.415376 
Q 146.296765 459.981939 146.296765 457.641001 
Q 146.296765 455.049126 147.977702 453.491939 
Q 149.65864 451.934751 152.484265 451.934751 
Q 155.622702 451.934751 157.341452 454.052251 
Q 159.060202 456.166314 159.060202 460.033501 
Q 159.060202 464.010689 157.049265 466.282876 
Q 155.041765 468.555064 151.538952 468.555064 
Q 150.411452 468.555064 149.380202 468.386626 
Q 148.348952 468.221626 147.36239 467.888189 
z
M 152.46364 460.164126 
Q 153.54989 460.164126 154.096452 459.462876 
Q 154.643015 458.758189 154.643015 457.348814 
Q 154.643015 455.953189 154.096452 455.245064 
Q 153.54989 454.533501 152.46364 454.533501 
Q 151.37739 454.533501 150.830827 455.245064 
Q 150.284265 455.953189 150.284265 457.348814 
Q 150.284265 458.758189 150.830827 459.462876 
Q 151.37739 460.164126 152.46364 460.164126 
z
M 166.80532 465.203501 
L 173.862507 465.203501 
L 173.862507 468.242251 
L 162.205945 468.242251 
L 162.205945 465.203501 
L 168.060007 460.033501 
Q 168.847195 459.325376 169.221882 458.648189 
Q 169.59657 457.971001 169.59657 457.242251 
Q 169.59657 456.114751 168.84032 455.427251 
Q 168.08407 454.739751 166.825945 454.739751 
Q 165.860007 454.739751 164.708445 455.152251 
Q 163.56032 455.564751 162.250632 456.382876 
L 162.250632 452.859439 
Q 163.646257 452.398814 165.010945 452.158189 
Q 166.375632 451.914126 167.68532 451.914126 
Q 170.565945 451.914126 172.160945 453.182564 
Q 173.755945 454.447564 173.755945 456.716314 
Q 173.755945 458.026001 173.078757 459.160376 
Q 172.40157 460.291314 170.232507 462.195689 
z
M 178.018874 464.086314 
L 181.886062 464.086314 
L 181.886062 468.242251 
L 178.018874 468.242251 
z
M 194.378796 459.593501 
Q 196.001296 460.012876 196.843484 461.051001 
Q 197.689109 462.085689 197.689109 463.687564 
Q 197.689109 466.073189 195.860359 467.314126 
Q 194.035046 468.555064 190.535671 468.555064 
Q 189.298171 468.555064 188.057234 468.355689 
Q 186.816296 468.156314 185.602859 467.757564 
L 185.602859 464.567564 
Q 186.764734 465.148501 187.905984 465.444126 
Q 189.050671 465.739751 190.157546 465.739751 
Q 191.800671 465.739751 192.677234 465.172564 
Q 193.553796 464.601939 193.553796 463.536314 
Q 193.553796 462.439751 192.656609 461.876001 
Q 191.759421 461.312251 190.006296 461.312251 
L 188.352859 461.312251 
L 188.352859 458.648189 
L 190.092234 458.648189 
Q 191.652859 458.648189 192.412546 458.160064 
Q 193.175671 457.671939 193.175671 456.671626 
Q 193.175671 455.750376 192.433171 455.245064 
Q 191.694109 454.739751 190.339734 454.739751 
Q 189.342859 454.739751 188.321921 454.966626 
Q 187.300984 455.190064 186.290359 455.630064 
L 186.290359 452.601626 
Q 187.514109 452.257876 188.717234 452.086001 
Q 189.920359 451.914126 191.082234 451.914126 
Q 194.206921 451.914126 195.757234 452.941939 
Q 197.310984 453.966314 197.310984 456.028814 
Q 197.310984 457.434751 196.568484 458.331939 
Q 195.829421 459.229126 194.378796 459.593501 
z
M 216.485788 461.625064 
Q 215.726101 461.625064 215.306726 462.285064 
Q 214.887351 462.945064 214.887351 464.172251 
Q 214.887351 465.406314 215.299851 466.066314 
Q 215.712351 466.726314 216.485788 466.726314 
Q 217.259226 466.726314 217.668288 466.066314 
Q 218.077351 465.406314 218.077351 464.172251 
Q 218.077351 462.945064 217.661413 462.285064 
Q 217.248913 461.625064 216.485788 461.625064 
z
M 216.485788 459.820376 
Q 218.486413 459.820376 219.634538 460.982251 
Q 220.782663 462.140689 220.782663 464.172251 
Q 220.782663 466.200376 219.634538 467.379439 
Q 218.486413 468.555064 216.485788 468.555064 
Q 214.488601 468.555064 213.333601 467.379439 
Q 212.178601 466.200376 212.178601 464.172251 
Q 212.178601 462.151001 213.333601 460.985689 
Q 214.488601 459.820376 216.485788 459.820376 
z
M 206.637351 468.555064 
L 204.262038 468.555064 
L 214.285788 451.914126 
L 216.671413 451.914126 
z
M 204.433913 451.914126 
Q 206.431101 451.914126 207.575788 453.079439 
Q 208.720476 454.244751 208.720476 456.276314 
Q 208.720476 458.304439 207.575788 459.476626 
Q 206.431101 460.648814 204.433913 460.648814 
Q 202.436726 460.648814 201.292038 459.476626 
Q 200.147351 458.304439 200.147351 456.276314 
Q 200.147351 454.244751 201.292038 453.079439 
Q 202.436726 451.914126 204.433913 451.914126 
z
M 204.433913 453.718814 
Q 203.660476 453.718814 203.241101 454.385689 
Q 202.821726 455.049126 202.821726 456.276314 
Q 202.821726 457.510376 203.241101 458.184126 
Q 203.660476 458.854439 204.433913 458.854439 
Q 205.207351 458.854439 205.619851 458.184126 
Q 206.035788 457.510376 206.035788 456.276314 
Q 206.035788 455.049126 205.616413 454.385689 
Q 205.197038 453.718814 204.433913 453.718814 
z
" style="fill:#ffffff;"/>
   </g>
   <g id="text_3">
    <!-- BSD -->
    <defs>
     <path d="M 38.375 44.671875 
Q 42.828125 44.671875 45.109375 46.625 
Q 47.40625 48.578125 47.40625 52.390625 
Q 47.40625 56.15625 45.109375 58.125 
Q 42.828125 60.109375 38.375 60.109375 
L 27.984375 60.109375 
L 27.984375 44.671875 
z
M 39.015625 12.796875 
Q 44.671875 12.796875 47.53125 15.1875 
Q 50.390625 17.578125 50.390625 22.40625 
Q 50.390625 27.15625 47.5625 29.515625 
Q 44.734375 31.890625 39.015625 31.890625 
L 27.984375 31.890625 
L 27.984375 12.796875 
z
M 56.5 39.015625 
Q 62.546875 37.25 65.859375 32.515625 
Q 69.1875 27.78125 69.1875 20.90625 
Q 69.1875 10.359375 62.0625 5.171875 
Q 54.9375 0 40.375 0 
L 9.1875 0 
L 9.1875 72.90625 
L 37.40625 72.90625 
Q 52.59375 72.90625 59.40625 68.3125 
Q 66.21875 63.71875 66.21875 53.609375 
Q 66.21875 48.296875 63.71875 44.5625 
Q 61.234375 40.828125 56.5 39.015625 
z
" id="DejaVuSans-Bold-66"/>
     <path d="M 59.90625 70.609375 
L 59.90625 55.171875 
Q 53.90625 57.859375 48.1875 59.21875 
Q 42.484375 60.59375 37.40625 60.59375 
Q 30.671875 60.59375 27.4375 58.734375 
Q 24.21875 56.890625 24.21875 52.984375 
Q 24.21875 50.046875 26.390625 48.40625 
Q 28.5625 46.78125 34.28125 45.609375 
L 42.28125 44 
Q 54.4375 41.546875 59.5625 36.5625 
Q 64.703125 31.59375 64.703125 22.40625 
Q 64.703125 10.359375 57.546875 4.46875 
Q 50.390625 -1.421875 35.6875 -1.421875 
Q 28.765625 -1.421875 21.78125 -0.09375 
Q 14.796875 1.21875 7.8125 3.8125 
L 7.8125 19.671875 
Q 14.796875 15.96875 21.3125 14.078125 
Q 27.828125 12.203125 33.890625 12.203125 
Q 40.046875 12.203125 43.3125 14.25 
Q 46.578125 16.3125 46.578125 20.125 
Q 46.578125 23.53125 44.359375 25.390625 
Q 42.140625 27.25 35.5 28.71875 
L 28.21875 30.328125 
Q 17.28125 32.671875 12.21875 37.796875 
Q 7.171875 42.921875 7.171875 51.609375 
Q 7.171875 62.5 14.203125 68.359375 
Q 21.234375 74.21875 34.421875 74.21875 
Q 40.4375 74.21875 46.78125 73.3125 
Q 53.125 72.40625 59.90625 70.609375 
z
" id="DejaVuSans-Bold-83"/>
     <path d="M 27.984375 58.6875 
L 27.984375 14.203125 
L 34.71875 14.203125 
Q 46.234375 14.203125 52.3125 19.921875 
Q 58.40625 25.640625 58.40625 36.53125 
Q 58.40625 47.359375 52.34375 53.015625 
Q 46.296875 58.6875 34.71875 58.6875 
z
M 9.1875 72.90625 
L 29 72.90625 
Q 45.609375 72.90625 53.734375 70.53125 
Q 61.859375 68.171875 67.671875 62.5 
Q 72.796875 57.5625 75.28125 51.109375 
Q 77.78125 44.671875 77.78125 36.53125 
Q 77.78125 28.265625 75.28125 21.796875 
Q 72.796875 15.328125 67.671875 10.40625 
Q 61.8125 4.734375 53.609375 2.359375 
Q 45.40625 0 29 0 
L 9.1875 0 
z
" id="DejaVuSans-Bold-68"/>
    </defs>
    <g style="fill:#808080;" transform="translate(435.516727 97.711196)scale(0.22 -0.22)">
     <use xlink:href="#DejaVuSans-Bold-66"/>
     <use x="76.220703" xlink:href="#DejaVuSans-Bold-83"/>
     <use x="148.242188" xlink:href="#DejaVuSans-Bold-68"/>
    </g>
   </g>
   <g id="text_4">
    <path d="M 366.442538 140.029147 
L 378.528788 140.029147 
L 378.528788 142.359772 
L 372.275975 156.068522 
L 368.247225 156.068522 
L 374.1666 143.071335 
L 366.442538 143.071335 
z
M 382.523592 151.912585 
L 386.39078 151.912585 
L 386.39078 156.068522 
L 382.523592 156.068522 
z
M 390.966952 140.029147 
L 401.248514 140.029147 
L 401.248514 143.071335 
L 394.266952 143.071335 
L 394.266952 145.55321 
Q 394.737889 145.422585 395.215702 145.353835 
Q 395.693514 145.281647 396.209139 145.281647 
Q 399.141327 145.281647 400.774139 146.74946 
Q 402.406952 148.217272 402.406952 150.836647 
Q 402.406952 153.435397 400.629764 154.910085 
Q 398.852577 156.381335 395.693514 156.381335 
Q 394.328827 156.381335 392.991639 156.116647 
Q 391.654452 155.85196 390.334452 155.31571 
L 390.334452 152.060397 
Q 391.644139 152.81321 392.819764 153.191335 
Q 393.995389 153.566022 395.040389 153.566022 
Q 396.542577 153.566022 397.405389 152.830397 
Q 398.271639 152.094772 398.271639 150.836647 
Q 398.271639 149.56821 397.405389 148.83946 
Q 396.542577 148.107272 395.040389 148.107272 
Q 394.146639 148.107272 393.136014 148.341022 
Q 392.128827 148.571335 390.966952 149.052585 
z
M 420.990506 149.451335 
Q 420.230819 149.451335 419.811444 150.111335 
Q 419.392069 150.771335 419.392069 151.998522 
Q 419.392069 153.232585 419.804569 153.892585 
Q 420.217069 154.552585 420.990506 154.552585 
Q 421.763944 154.552585 422.173006 153.892585 
Q 422.582069 153.232585 422.582069 151.998522 
Q 422.582069 150.771335 422.166131 150.111335 
Q 421.753631 149.451335 420.990506 149.451335 
z
M 420.990506 147.646647 
Q 422.991131 147.646647 424.139256 148.808522 
Q 425.287381 149.96696 425.287381 151.998522 
Q 425.287381 154.026647 424.139256 155.20571 
Q 422.991131 156.381335 420.990506 156.381335 
Q 418.993319 156.381335 417.838319 155.20571 
Q 416.683319 154.026647 416.683319 151.998522 
Q 416.683319 149.977272 417.838319 148.81196 
Q 418.993319 147.646647 420.990506 147.646647 
z
M 411.142069 156.381335 
L 408.766756 156.381335 
L 418.790506 139.740397 
L 421.176131 139.740397 
z
M 408.938631 139.740397 
Q 410.935819 139.740397 412.080506 140.90571 
Q 413.225194 142.071022 413.225194 144.102585 
Q 413.225194 146.13071 412.080506 147.302897 
Q 410.935819 148.475085 408.938631 148.475085 
Q 406.941444 148.475085 405.796756 147.302897 
Q 404.652069 146.13071 404.652069 144.102585 
Q 404.652069 142.071022 405.796756 140.90571 
Q 406.941444 139.740397 408.938631 139.740397 
z
M 408.938631 141.545085 
Q 408.165194 141.545085 407.745819 142.21196 
Q 407.326444 142.875397 407.326444 144.102585 
Q 407.326444 145.336647 407.745819 146.010397 
Q 408.165194 146.68071 408.938631 146.68071 
Q 409.712069 146.68071 410.124569 146.010397 
Q 410.540506 145.336647 410.540506 144.102585 
Q 410.540506 142.875397 410.121131 142.21196 
Q 409.701756 141.545085 408.938631 141.545085 
z
" style="fill:#ffffff;stroke:#808080;"/>
    <path d="M 366.442538 140.029147 
L 378.528788 140.029147 
L 378.528788 142.359772 
L 372.275975 156.068522 
L 368.247225 156.068522 
L 374.1666 143.071335 
L 366.442538 143.071335 
z
M 382.523592 151.912585 
L 386.39078 151.912585 
L 386.39078 156.068522 
L 382.523592 156.068522 
z
M 390.966952 140.029147 
L 401.248514 140.029147 
L 401.248514 143.071335 
L 394.266952 143.071335 
L 394.266952 145.55321 
Q 394.737889 145.422585 395.215702 145.353835 
Q 395.693514 145.281647 396.209139 145.281647 
Q 399.141327 145.281647 400.774139 146.74946 
Q 402.406952 148.217272 402.406952 150.836647 
Q 402.406952 153.435397 400.629764 154.910085 
Q 398.852577 156.381335 395.693514 156.381335 
Q 394.328827 156.381335 392.991639 156.116647 
Q 391.654452 155.85196 390.334452 155.31571 
L 390.334452 152.060397 
Q 391.644139 152.81321 392.819764 153.191335 
Q 393.995389 153.566022 395.040389 153.566022 
Q 396.542577 153.566022 397.405389 152.830397 
Q 398.271639 152.094772 398.271639 150.836647 
Q 398.271639 149.56821 397.405389 148.83946 
Q 396.542577 148.107272 395.040389 148.107272 
Q 394.146639 148.107272 393.136014 148.341022 
Q 392.128827 148.571335 390.966952 149.052585 
z
M 420.990506 149.451335 
Q 420.230819 149.451335 419.811444 150.111335 
Q 419.392069 150.771335 419.392069 151.998522 
Q 419.392069 153.232585 419.804569 153.892585 
Q 420.217069 154.552585 420.990506 154.552585 
Q 421.763944 154.552585 422.173006 153.892585 
Q 422.582069 153.232585 422.582069 151.998522 
Q 422.582069 150.771335 422.166131 150.111335 
Q 421.753631 149.451335 420.990506 149.451335 
z
M 420.990506 147.646647 
Q 422.991131 147.646647 424.139256 148.808522 
Q 425.287381 149.96696 425.287381 151.998522 
Q 425.287381 154.026647 424.139256 155.20571 
Q 422.991131 156.381335 420.990506 156.381335 
Q 418.993319 156.381335 417.838319 155.20571 
Q 416.683319 154.026647 416.683319 151.998522 
Q 416.683319 149.977272 417.838319 148.81196 
Q 418.993319 147.646647 420.990506 147.646647 
z
M 411.142069 156.381335 
L 408.766756 156.381335 
L 418.790506 139.740397 
L 421.176131 139.740397 
z
M 408.938631 139.740397 
Q 410.935819 139.740397 412.080506 140.90571 
Q 413.225194 142.071022 413.225194 144.102585 
Q 413.225194 146.13071 412.080506 147.302897 
Q 410.935819 148.475085 408.938631 148.475085 
Q 406.941444 148.475085 405.796756 147.302897 
Q 404.652069 146.13071 404.652069 144.102585 
Q 404.652069 142.071022 405.796756 140.90571 
Q 406.941444 139.740397 408.938631 139.740397 
z
M 408.938631 141.545085 
Q 408.165194 141.545085 407.745819 142.21196 
Q 407.326444 142.875397 407.326444 144.102585 
Q 407.326444 145.336647 407.745819 146.010397 
Q 408.165194 146.68071 408.938631 146.68071 
Q 409.712069 146.68071 410.124569 146.010397 
Q 410.540506 145.336647 410.540506 144.102585 
Q 410.540506 142.875397 410.121131 142.21196 
Q 409.701756 141.545085 408.938631 141.545085 
z
" style="fill:#ffffff;"/>
   </g>
   <g id="text_5">
    <!-- Other (0.3%) -->
    <defs>
     <path d="M 42.484375 60.59375 
Q 33.890625 60.59375 29.15625 54.25 
Q 24.421875 47.90625 24.421875 36.375 
Q 24.421875 24.90625 29.15625 18.546875 
Q 33.890625 12.203125 42.484375 12.203125 
Q 51.125 12.203125 55.859375 18.546875 
Q 60.59375 24.90625 60.59375 36.375 
Q 60.59375 47.90625 55.859375 54.25 
Q 51.125 60.59375 42.484375 60.59375 
z
M 42.484375 74.21875 
Q 60.0625 74.21875 70.015625 64.15625 
Q 79.984375 54.109375 79.984375 36.375 
Q 79.984375 18.703125 70.015625 8.640625 
Q 60.0625 -1.421875 42.484375 -1.421875 
Q 24.953125 -1.421875 14.96875 8.640625 
Q 4.984375 18.703125 4.984375 36.375 
Q 4.984375 54.109375 14.96875 64.15625 
Q 24.953125 74.21875 42.484375 74.21875 
z
" id="DejaVuSans-Bold-79"/>
     <path d="M 27.484375 70.21875 
L 27.484375 54.6875 
L 45.515625 54.6875 
L 45.515625 42.1875 
L 27.484375 42.1875 
L 27.484375 19 
Q 27.484375 15.1875 29 13.84375 
Q 30.515625 12.5 35.015625 12.5 
L 44 12.5 
L 44 0 
L 29 0 
Q 18.65625 0 14.328125 4.3125 
Q 10.015625 8.640625 10.015625 19 
L 10.015625 42.1875 
L 1.3125 42.1875 
L 1.3125 54.6875 
L 10.015625 54.6875 
L 10.015625 70.21875 
z
" id="DejaVuSans-Bold-116"/>
     <path d="M 63.375 33.296875 
L 63.375 0 
L 45.796875 0 
L 45.796875 5.421875 
L 45.796875 25.390625 
Q 45.796875 32.5625 45.484375 35.25 
Q 45.171875 37.9375 44.390625 39.203125 
Q 43.359375 40.921875 41.59375 41.875 
Q 39.84375 42.828125 37.59375 42.828125 
Q 32.125 42.828125 29 38.59375 
Q 25.875 34.375 25.875 26.90625 
L 25.875 0 
L 8.40625 0 
L 8.40625 75.984375 
L 25.875 75.984375 
L 25.875 46.6875 
Q 29.828125 51.46875 34.265625 53.734375 
Q 38.71875 56 44.09375 56 
Q 53.5625 56 58.46875 50.1875 
Q 63.375 44.390625 63.375 33.296875 
z
" id="DejaVuSans-Bold-104"/>
     <path d="M 62.984375 27.484375 
L 62.984375 22.515625 
L 22.125 22.515625 
Q 22.75 16.359375 26.5625 13.28125 
Q 30.375 10.203125 37.203125 10.203125 
Q 42.71875 10.203125 48.5 11.84375 
Q 54.296875 13.484375 60.40625 16.796875 
L 60.40625 3.328125 
Q 54.203125 0.984375 48 -0.21875 
Q 41.796875 -1.421875 35.59375 -1.421875 
Q 20.75 -1.421875 12.515625 6.125 
Q 4.296875 13.671875 4.296875 27.296875 
Q 4.296875 40.671875 12.375 48.328125 
Q 20.453125 56 34.625 56 
Q 47.515625 56 55.25 48.234375 
Q 62.984375 40.484375 62.984375 27.484375 
z
M 45.015625 33.296875 
Q 45.015625 38.28125 42.109375 41.328125 
Q 39.203125 44.390625 34.515625 44.390625 
Q 29.4375 44.390625 26.265625 41.53125 
Q 23.09375 38.671875 22.3125 33.296875 
z
" id="DejaVuSans-Bold-101"/>
     <path d="M 49.03125 39.796875 
Q 46.734375 40.875 44.453125 41.375 
Q 42.1875 41.890625 39.890625 41.890625 
Q 33.15625 41.890625 29.515625 37.5625 
Q 25.875 33.25 25.875 25.203125 
L 25.875 0 
L 8.40625 0 
L 8.40625 54.6875 
L 25.875 54.6875 
L 25.875 45.703125 
Q 29.25 51.078125 33.609375 53.53125 
Q 37.984375 56 44.09375 56 
Q 44.96875 56 45.984375 55.921875 
Q 47.015625 55.859375 48.96875 55.609375 
z
" id="DejaVuSans-Bold-114"/>
     <path id="DejaVuSans-Bold-32"/>
     <path d="M 37.703125 -13.1875 
L 23.1875 -13.1875 
Q 15.71875 -1.125 12.15625 9.734375 
Q 8.59375 20.609375 8.59375 31.296875 
Q 8.59375 42 12.171875 52.953125 
Q 15.765625 63.921875 23.1875 75.875 
L 37.703125 75.875 
Q 31.453125 64.3125 28.328125 53.25 
Q 25.203125 42.1875 25.203125 31.390625 
Q 25.203125 20.609375 28.296875 9.515625 
Q 31.390625 -1.5625 37.703125 -13.1875 
z
" id="DejaVuSans-Bold-40"/>
     <path d="M 46 36.53125 
Q 46 50.203125 43.4375 55.78125 
Q 40.875 61.375 34.8125 61.375 
Q 28.765625 61.375 26.171875 55.78125 
Q 23.578125 50.203125 23.578125 36.53125 
Q 23.578125 22.703125 26.171875 17.03125 
Q 28.765625 11.375 34.8125 11.375 
Q 40.828125 11.375 43.40625 17.03125 
Q 46 22.703125 46 36.53125 
z
M 64.796875 36.375 
Q 64.796875 18.265625 56.984375 8.421875 
Q 49.171875 -1.421875 34.8125 -1.421875 
Q 20.40625 -1.421875 12.59375 8.421875 
Q 4.78125 18.265625 4.78125 36.375 
Q 4.78125 54.546875 12.59375 64.375 
Q 20.40625 74.21875 34.8125 74.21875 
Q 49.171875 74.21875 56.984375 64.375 
Q 64.796875 54.546875 64.796875 36.375 
z
" id="DejaVuSans-Bold-48"/>
     <path d="M 10.203125 18.890625 
L 27.78125 18.890625 
L 27.78125 0 
L 10.203125 0 
z
" id="DejaVuSans-Bold-46"/>
     <path d="M 46.578125 39.3125 
Q 53.953125 37.40625 57.78125 32.6875 
Q 61.625 27.984375 61.625 20.703125 
Q 61.625 9.859375 53.3125 4.21875 
Q 45.015625 -1.421875 29.109375 -1.421875 
Q 23.484375 -1.421875 17.84375 -0.515625 
Q 12.203125 0.390625 6.6875 2.203125 
L 6.6875 16.703125 
Q 11.96875 14.0625 17.15625 12.71875 
Q 22.359375 11.375 27.390625 11.375 
Q 34.859375 11.375 38.84375 13.953125 
Q 42.828125 16.546875 42.828125 21.390625 
Q 42.828125 26.375 38.75 28.9375 
Q 34.671875 31.5 26.703125 31.5 
L 19.1875 31.5 
L 19.1875 43.609375 
L 27.09375 43.609375 
Q 34.1875 43.609375 37.640625 45.828125 
Q 41.109375 48.046875 41.109375 52.59375 
Q 41.109375 56.78125 37.734375 59.078125 
Q 34.375 61.375 28.21875 61.375 
Q 23.6875 61.375 19.046875 60.34375 
Q 14.40625 59.328125 9.8125 57.328125 
L 9.8125 71.09375 
Q 15.375 72.65625 20.84375 73.4375 
Q 26.3125 74.21875 31.59375 74.21875 
Q 45.796875 74.21875 52.84375 69.546875 
Q 59.90625 64.890625 59.90625 55.515625 
Q 59.90625 49.125 56.53125 45.046875 
Q 53.171875 40.96875 46.578125 39.3125 
z
" id="DejaVuSans-Bold-51"/>
     <path d="M 77.484375 30.078125 
Q 74.03125 30.078125 72.125 27.078125 
Q 70.21875 24.078125 70.21875 18.5 
Q 70.21875 12.890625 72.09375 9.890625 
Q 73.96875 6.890625 77.484375 6.890625 
Q 81 6.890625 82.859375 9.890625 
Q 84.71875 12.890625 84.71875 18.5 
Q 84.71875 24.078125 82.828125 27.078125 
Q 80.953125 30.078125 77.484375 30.078125 
z
M 77.484375 38.28125 
Q 86.578125 38.28125 91.796875 33 
Q 97.015625 27.734375 97.015625 18.5 
Q 97.015625 9.28125 91.796875 3.921875 
Q 86.578125 -1.421875 77.484375 -1.421875 
Q 68.40625 -1.421875 63.15625 3.921875 
Q 57.90625 9.28125 57.90625 18.5 
Q 57.90625 27.6875 63.15625 32.984375 
Q 68.40625 38.28125 77.484375 38.28125 
z
M 32.71875 -1.421875 
L 21.921875 -1.421875 
L 67.484375 74.21875 
L 78.328125 74.21875 
z
M 22.703125 74.21875 
Q 31.78125 74.21875 36.984375 68.921875 
Q 42.1875 63.625 42.1875 54.390625 
Q 42.1875 45.171875 36.984375 39.84375 
Q 31.78125 34.515625 22.703125 34.515625 
Q 13.625 34.515625 8.421875 39.84375 
Q 3.21875 45.171875 3.21875 54.390625 
Q 3.21875 63.625 8.421875 68.921875 
Q 13.625 74.21875 22.703125 74.21875 
z
M 22.703125 66.015625 
Q 19.1875 66.015625 17.28125 62.984375 
Q 15.375 59.96875 15.375 54.390625 
Q 15.375 48.78125 17.28125 45.71875 
Q 19.1875 42.671875 22.703125 42.671875 
Q 26.21875 42.671875 28.09375 45.71875 
Q 29.984375 48.78125 29.984375 54.390625 
Q 29.984375 59.96875 28.078125 62.984375 
Q 26.171875 66.015625 22.703125 66.015625 
z
" id="DejaVuSans-Bold-37"/>
     <path d="M 8.015625 -13.1875 
Q 14.265625 -1.5625 17.390625 9.515625 
Q 20.515625 20.609375 20.515625 31.390625 
Q 20.515625 42.1875 17.390625 53.25 
Q 14.265625 64.3125 8.015625 75.875 
L 22.515625 75.875 
Q 29.9375 63.921875 33.515625 52.953125 
Q 37.109375 42 37.109375 31.296875 
Q 37.109375 20.609375 33.546875 9.734375 
Q 29.984375 -1.125 22.515625 -13.1875 
z
" id="DejaVuSans-Bold-41"/>
    </defs>
    <g style="fill:#808080;" transform="translate(379.609644 68.633881)scale(0.22 -0.22)">
     <use xlink:href="#DejaVuSans-Bold-79"/>
     <use x="85.009766" xlink:href="#DejaVuSans-Bold-116"/>
     <use x="132.8125" xlink:href="#DejaVuSans-Bold-104"/>
     <use x="204.003906" xlink:href="#DejaVuSans-Bold-101"/>
     <use x="271.826172" xlink:href="#DejaVuSans-Bold-114"/>
     <use x="321.142578" xlink:href="#DejaVuSans-Bold-32"/>
     <use x="355.957031" xlink:href="#DejaVuSans-Bold-40"/>
     <use x="401.660156" xlink:href="#DejaVuSans-Bold-48"/>
     <use x="471.240234" xlink:href="#DejaVuSans-Bold-46"/>
     <use x="509.228516" xlink:href="#DejaVuSans-Bold-51"/>
     <use x="578.808594" xlink:href="#DejaVuSans-Bold-37"/>
     <use x="679.003906" xlink:href="#DejaVuSans-Bold-41"/>
    </g>
   </g>
   <g id="text_6">
    <!-- Total Bandwidth of Relays by Platform -->
    <defs>
     <path d="M 0.484375 72.90625 
L 67.671875 72.90625 
L 67.671875 58.6875 
L 43.5 58.6875 
L 43.5 0 
L 24.703125 0 
L 24.703125 58.6875 
L 0.484375 58.6875 
z
" id="DejaVuSans-Bold-84"/>
     <path d="M 34.421875 43.5 
Q 28.609375 43.5 25.5625 39.328125 
Q 22.515625 35.15625 22.515625 27.296875 
Q 22.515625 19.4375 25.5625 15.25 
Q 28.609375 11.078125 34.421875 11.078125 
Q 40.140625 11.078125 43.15625 15.25 
Q 46.1875 19.4375 46.1875 27.296875 
Q 46.1875 35.15625 43.15625 39.328125 
Q 40.140625 43.5 34.421875 43.5 
z
M 34.421875 56 
Q 48.53125 56 56.46875 48.375 
Q 64.40625 40.765625 64.40625 27.296875 
Q 64.40625 13.8125 56.46875 6.1875 
Q 48.53125 -1.421875 34.421875 -1.421875 
Q 20.265625 -1.421875 12.28125 6.1875 
Q 4.296875 13.8125 4.296875 27.296875 
Q 4.296875 40.765625 12.28125 48.375 
Q 20.265625 56 34.421875 56 
z
" id="DejaVuSans-Bold-111"/>
     <path d="M 32.90625 24.609375 
Q 27.4375 24.609375 24.671875 22.75 
Q 21.921875 20.90625 21.921875 17.28125 
Q 21.921875 13.96875 24.140625 12.078125 
Q 26.375 10.203125 30.328125 10.203125 
Q 35.25 10.203125 38.625 13.734375 
Q 42 17.28125 42 22.609375 
L 42 24.609375 
z
M 59.625 31.203125 
L 59.625 0 
L 42 0 
L 42 8.109375 
Q 38.484375 3.125 34.078125 0.84375 
Q 29.6875 -1.421875 23.390625 -1.421875 
Q 14.890625 -1.421875 9.59375 3.53125 
Q 4.296875 8.5 4.296875 16.40625 
Q 4.296875 26.03125 10.90625 30.515625 
Q 17.53125 35.015625 31.6875 35.015625 
L 42 35.015625 
L 42 36.375 
Q 42 40.53125 38.71875 42.453125 
Q 35.453125 44.390625 28.515625 44.390625 
Q 22.90625 44.390625 18.0625 43.265625 
Q 13.234375 42.140625 9.078125 39.890625 
L 9.078125 53.21875 
Q 14.703125 54.59375 20.359375 55.296875 
Q 26.03125 56 31.6875 56 
Q 46.484375 56 53.046875 50.171875 
Q 59.625 44.34375 59.625 31.203125 
z
" id="DejaVuSans-Bold-97"/>
     <path d="M 8.40625 75.984375 
L 25.875 75.984375 
L 25.875 0 
L 8.40625 0 
z
" id="DejaVuSans-Bold-108"/>
     <path d="M 45.609375 46.6875 
L 45.609375 75.984375 
L 63.1875 75.984375 
L 63.1875 0 
L 45.609375 0 
L 45.609375 7.90625 
Q 42 3.078125 37.640625 0.828125 
Q 33.296875 -1.421875 27.59375 -1.421875 
Q 17.484375 -1.421875 10.984375 6.609375 
Q 4.5 14.65625 4.5 27.296875 
Q 4.5 39.9375 10.984375 47.96875 
Q 17.484375 56 27.59375 56 
Q 33.25 56 37.625 53.734375 
Q 42 51.46875 45.609375 46.6875 
z
M 34.078125 11.28125 
Q 39.703125 11.28125 42.65625 15.375 
Q 45.609375 19.484375 45.609375 27.296875 
Q 45.609375 35.109375 42.65625 39.203125 
Q 39.703125 43.3125 34.078125 43.3125 
Q 28.515625 43.3125 25.5625 39.203125 
Q 22.609375 35.109375 22.609375 27.296875 
Q 22.609375 19.484375 25.5625 15.375 
Q 28.515625 11.28125 34.078125 11.28125 
z
" id="DejaVuSans-Bold-100"/>
     <path d="M 3.515625 54.6875 
L 20.515625 54.6875 
L 29.6875 17 
L 38.921875 54.6875 
L 53.515625 54.6875 
L 62.703125 17.390625 
L 71.921875 54.6875 
L 88.921875 54.6875 
L 74.515625 0 
L 55.421875 0 
L 46.1875 37.59375 
L 37.015625 0 
L 17.921875 0 
z
" id="DejaVuSans-Bold-119"/>
     <path d="M 44.390625 75.984375 
L 44.390625 64.5 
L 34.71875 64.5 
Q 31 64.5 29.53125 63.15625 
Q 28.078125 61.8125 28.078125 58.5 
L 28.078125 54.6875 
L 43.015625 54.6875 
L 43.015625 42.1875 
L 28.078125 42.1875 
L 28.078125 0 
L 10.59375 0 
L 10.59375 42.1875 
L 1.90625 42.1875 
L 1.90625 54.6875 
L 10.59375 54.6875 
L 10.59375 58.5 
Q 10.59375 67.4375 15.578125 71.703125 
Q 20.5625 75.984375 31 75.984375 
z
" id="DejaVuSans-Bold-102"/>
     <path d="M 35.890625 40.578125 
Q 41.796875 40.578125 44.359375 42.765625 
Q 46.921875 44.96875 46.921875 50 
Q 46.921875 54.984375 44.359375 57.125 
Q 41.796875 59.28125 35.890625 59.28125 
L 27.984375 59.28125 
L 27.984375 40.578125 
z
M 27.984375 27.59375 
L 27.984375 0 
L 9.1875 0 
L 9.1875 72.90625 
L 37.890625 72.90625 
Q 52.296875 72.90625 59 68.0625 
Q 65.71875 63.234375 65.71875 52.78125 
Q 65.71875 45.5625 62.21875 40.921875 
Q 58.734375 36.28125 51.703125 34.078125 
Q 55.5625 33.203125 58.609375 30.09375 
Q 61.671875 27 64.796875 20.703125 
L 75 0 
L 54.984375 0 
L 46.09375 18.109375 
Q 43.40625 23.578125 40.640625 25.578125 
Q 37.890625 27.59375 33.296875 27.59375 
z
" id="DejaVuSans-Bold-82"/>
     <path d="M 1.21875 54.6875 
L 18.703125 54.6875 
L 33.40625 17.578125 
L 45.90625 54.6875 
L 63.375 54.6875 
L 40.375 -5.171875 
Q 36.921875 -14.3125 32.296875 -17.9375 
Q 27.6875 -21.578125 20.125 -21.578125 
L 10.015625 -21.578125 
L 10.015625 -10.109375 
L 15.484375 -10.109375 
Q 19.921875 -10.109375 21.9375 -8.6875 
Q 23.96875 -7.28125 25.09375 -3.609375 
L 25.59375 -2.09375 
z
" id="DejaVuSans-Bold-121"/>
     <path d="M 51.125 52.984375 
L 51.125 39.703125 
Q 45.515625 42.046875 40.28125 43.21875 
Q 35.0625 44.390625 30.421875 44.390625 
Q 25.4375 44.390625 23.015625 43.140625 
Q 20.609375 41.890625 20.609375 39.3125 
Q 20.609375 37.203125 22.4375 36.078125 
Q 24.265625 34.96875 29 34.421875 
L 32.078125 33.984375 
Q 45.515625 32.28125 50.140625 28.375 
Q 54.78125 24.46875 54.78125 16.109375 
Q 54.78125 7.375 48.328125 2.96875 
Q 41.890625 -1.421875 29.109375 -1.421875 
Q 23.6875 -1.421875 17.890625 -0.5625 
Q 12.109375 0.296875 6 2 
L 6 15.28125 
Q 11.234375 12.75 16.71875 11.46875 
Q 22.21875 10.203125 27.875 10.203125 
Q 33.015625 10.203125 35.59375 11.609375 
Q 38.1875 13.03125 38.1875 15.828125 
Q 38.1875 18.171875 36.40625 19.3125 
Q 34.625 20.453125 29.296875 21.09375 
L 26.21875 21.484375 
Q 14.546875 22.953125 9.859375 26.90625 
Q 5.171875 30.859375 5.171875 38.921875 
Q 5.171875 47.609375 11.125 51.796875 
Q 17.09375 56 29.390625 56 
Q 34.234375 56 39.546875 55.265625 
Q 44.875 54.546875 51.125 52.984375 
z
" id="DejaVuSans-Bold-115"/>
     <path d="M 37.5 11.28125 
Q 43.109375 11.28125 46.0625 15.375 
Q 49.03125 19.484375 49.03125 27.296875 
Q 49.03125 35.109375 46.0625 39.203125 
Q 43.109375 43.3125 37.5 43.3125 
Q 31.890625 43.3125 28.875 39.1875 
Q 25.875 35.0625 25.875 27.296875 
Q 25.875 19.53125 28.875 15.40625 
Q 31.890625 11.28125 37.5 11.28125 
z
M 25.875 46.6875 
Q 29.5 51.46875 33.890625 53.734375 
Q 38.28125 56 44 56 
Q 54.109375 56 60.59375 47.96875 
Q 67.09375 39.9375 67.09375 27.296875 
Q 67.09375 14.65625 60.59375 6.609375 
Q 54.109375 -1.421875 44 -1.421875 
Q 38.28125 -1.421875 33.890625 0.84375 
Q 29.5 3.125 25.875 7.90625 
L 25.875 0 
L 8.40625 0 
L 8.40625 75.984375 
L 25.875 75.984375 
z
" id="DejaVuSans-Bold-98"/>
     <path d="M 9.1875 72.90625 
L 40.375 72.90625 
Q 54.296875 72.90625 61.734375 66.71875 
Q 69.1875 60.546875 69.1875 49.125 
Q 69.1875 37.640625 61.734375 31.46875 
Q 54.296875 25.296875 40.375 25.296875 
L 27.984375 25.296875 
L 27.984375 0 
L 9.1875 0 
z
M 27.984375 59.28125 
L 27.984375 38.921875 
L 38.375 38.921875 
Q 43.84375 38.921875 46.828125 41.578125 
Q 49.8125 44.234375 49.8125 49.125 
Q 49.8125 54 46.828125 56.640625 
Q 43.84375 59.28125 38.375 59.28125 
z
" id="DejaVuSans-Bold-80"/>
     <path d="M 59.078125 45.609375 
Q 62.40625 50.6875 66.96875 53.34375 
Q 71.53125 56 77 56 
Q 86.421875 56 91.359375 50.1875 
Q 96.296875 44.390625 96.296875 33.296875 
L 96.296875 0 
L 78.71875 0 
L 78.71875 28.515625 
Q 78.765625 29.15625 78.78125 29.828125 
Q 78.8125 30.515625 78.8125 31.78125 
Q 78.8125 37.59375 77.09375 40.203125 
Q 75.390625 42.828125 71.578125 42.828125 
Q 66.609375 42.828125 63.890625 38.71875 
Q 61.1875 34.625 61.078125 26.859375 
L 61.078125 0 
L 43.5 0 
L 43.5 28.515625 
Q 43.5 37.59375 41.9375 40.203125 
Q 40.375 42.828125 36.375 42.828125 
Q 31.34375 42.828125 28.609375 38.703125 
Q 25.875 34.578125 25.875 26.90625 
L 25.875 0 
L 8.296875 0 
L 8.296875 54.6875 
L 25.875 54.6875 
L 25.875 46.6875 
Q 29.109375 51.3125 33.28125 53.65625 
Q 37.453125 56 42.484375 56 
Q 48.140625 56 52.484375 53.265625 
Q 56.84375 50.53125 59.078125 45.609375 
z
" id="DejaVuSans-Bold-109"/>
    </defs>
    <g style="fill:#808080;" transform="translate(38.122969 25.851168)scale(0.23 -0.23)">
     <use xlink:href="#DejaVuSans-Bold-84"/>
     <use x="68.009766" xlink:href="#DejaVuSans-Bold-111"/>
     <use x="136.710938" xlink:href="#DejaVuSans-Bold-116"/>
     <use x="184.513672" xlink:href="#DejaVuSans-Bold-97"/>
     <use x="251.994141" xlink:href="#DejaVuSans-Bold-108"/>
     <use x="286.271484" xlink:href="#DejaVuSans-Bold-32"/>
     <use x="321.085938" xlink:href="#DejaVuSans-Bold-66"/>
     <use x="397.306641" xlink:href="#DejaVuSans-Bold-97"/>
     <use x="464.787109" xlink:href="#DejaVuSans-Bold-110"/>
     <use x="535.978516" xlink:href="#DejaVuSans-Bold-100"/>
     <use x="607.560547" xlink:href="#DejaVuSans-Bold-119"/>
     <use x="699.943359" xlink:href="#DejaVuSans-Bold-105"/>
     <use x="734.220703" xlink:href="#DejaVuSans-Bold-100"/>
     <use x="805.802734" xlink:href="#DejaVuSans-Bold-116"/>
     <use x="853.605469" xlink:href="#DejaVuSans-Bold-104"/>
     <use x="924.796875" xlink:href="#DejaVuSans-Bold-32"/>
     <use x="959.611328" xlink:href="#DejaVuSans-Bold-111"/>
     <use x="1028.3125" xlink:href="#DejaVuSans-Bold-102"/>
     <use x="1071.818359" xlink:href="#DejaVuSans-Bold-32"/>
     <use x="1106.632812" xlink:href="#DejaVuSans-Bold-82"/>
     <use x="1183.634766" xlink:href="#DejaVuSans-Bold-101"/>
     <use x="1251.457031" xlink:href="#DejaVuSans-Bold-108"/>
     <use x="1285.734375" xlink:href="#DejaVuSans-Bold-97"/>
     <use x="1353.167969" xlink:href="#DejaVuSans-Bold-121"/>
     <use x="1418.353516" xlink:href="#DejaVuSans-Bold-115"/>
     <use x="1477.875" xlink:href="#DejaVuSans-Bold-32"/>
     <use x="1512.689453" xlink:href="#DejaVuSans-Bold-98"/>
     <use x="1584.271484" xlink:href="#DejaVuSans-Bold-121"/>
     <use x="1649.457031" xlink:href="#DejaVuSans-Bold-32"/>
     <use x="1684.271484" xlink:href="#DejaVuSans-Bold-80"/>
     <use x="1757.5625" xlink:href="#DejaVuSans-Bold-108"/>
     <use x="1791.839844" xlink:href="#DejaVuSans-Bold-97"/>
     <use x="1859.320312" xlink:href="#DejaVuSans-Bold-116"/>
     <use x="1907.123047" xlink:href="#DejaVuSans-Bold-102"/>
     <use x="1950.628906" xlink:href="#DejaVuSans-Bold-111"/>
     <use x="2019.330078" xlink:href="#DejaVuSans-Bold-114"/>
     <use x="2068.646484" xlink:href="#DejaVuSans-Bold-109"/>
    </g>
   </g>
  </g>
  <g id="text_7">
   <!-- AceLewis.com - Date: 2020-09-25 -->
   <defs>
    <path d="M 53.421875 13.28125 
L 24.03125 13.28125 
L 19.390625 0 
L 0.484375 0 
L 27.484375 72.90625 
L 49.90625 72.90625 
L 76.90625 0 
L 58.015625 0 
z
M 28.71875 26.8125 
L 48.6875 26.8125 
L 38.71875 55.8125 
z
" id="DejaVuSans-Bold-65"/>
    <path d="M 52.59375 52.984375 
L 52.59375 38.71875 
Q 49.03125 41.15625 45.4375 42.328125 
Q 41.84375 43.5 37.984375 43.5 
Q 30.671875 43.5 26.59375 39.234375 
Q 22.515625 34.96875 22.515625 27.296875 
Q 22.515625 19.625 26.59375 15.34375 
Q 30.671875 11.078125 37.984375 11.078125 
Q 42.09375 11.078125 45.78125 12.296875 
Q 49.46875 13.53125 52.59375 15.921875 
L 52.59375 1.609375 
Q 48.484375 0.09375 44.265625 -0.65625 
Q 40.046875 -1.421875 35.796875 -1.421875 
Q 21 -1.421875 12.640625 6.171875 
Q 4.296875 13.765625 4.296875 27.296875 
Q 4.296875 40.828125 12.640625 48.40625 
Q 21 56 35.796875 56 
Q 40.09375 56 44.265625 55.25 
Q 48.4375 54.5 52.59375 52.984375 
z
" id="DejaVuSans-Bold-99"/>
    <path d="M 5.421875 35.890625 
L 36.078125 35.890625 
L 36.078125 21.6875 
L 5.421875 21.6875 
z
" id="DejaVuSans-Bold-45"/>
    <path d="M 11.1875 54.6875 
L 28.8125 54.6875 
L 28.8125 35.796875 
L 11.1875 35.796875 
z
M 11.1875 18.890625 
L 28.8125 18.890625 
L 28.8125 0 
L 11.1875 0 
z
" id="DejaVuSans-Bold-58"/>
    <path d="M 28.8125 13.8125 
L 60.890625 13.8125 
L 60.890625 0 
L 7.90625 0 
L 7.90625 13.8125 
L 34.515625 37.3125 
Q 38.09375 40.53125 39.796875 43.609375 
Q 41.5 46.6875 41.5 50 
Q 41.5 55.125 38.0625 58.25 
Q 34.625 61.375 28.90625 61.375 
Q 24.515625 61.375 19.28125 59.5 
Q 14.0625 57.625 8.109375 53.90625 
L 8.109375 69.921875 
Q 14.453125 72.015625 20.65625 73.109375 
Q 26.859375 74.21875 32.8125 74.21875 
Q 45.90625 74.21875 53.15625 68.453125 
Q 60.40625 62.703125 60.40625 52.390625 
Q 60.40625 46.4375 57.328125 41.28125 
Q 54.25 36.140625 44.390625 27.484375 
z
" id="DejaVuSans-Bold-50"/>
    <path d="M 10.015625 1.609375 
L 10.015625 15.09375 
Q 14.5 12.984375 18.59375 11.9375 
Q 22.703125 10.890625 26.703125 10.890625 
Q 35.109375 10.890625 39.796875 15.546875 
Q 44.484375 20.21875 45.3125 29.390625 
Q 42 26.953125 38.234375 25.734375 
Q 34.46875 24.515625 30.078125 24.515625 
Q 18.890625 24.515625 12.03125 31.03125 
Q 5.171875 37.546875 5.171875 48.1875 
Q 5.171875 59.96875 12.8125 67.046875 
Q 20.453125 74.125 33.296875 74.125 
Q 47.5625 74.125 55.375 64.5 
Q 63.1875 54.890625 63.1875 37.3125 
Q 63.1875 19.234375 54.046875 8.90625 
Q 44.921875 -1.421875 29 -1.421875 
Q 23.875 -1.421875 19.1875 -0.65625 
Q 14.5 0.09375 10.015625 1.609375 
z
M 33.203125 36.71875 
Q 38.140625 36.71875 40.625 39.90625 
Q 43.109375 43.109375 43.109375 49.515625 
Q 43.109375 55.859375 40.625 59.078125 
Q 38.140625 62.3125 33.203125 62.3125 
Q 28.265625 62.3125 25.78125 59.078125 
Q 23.296875 55.859375 23.296875 49.515625 
Q 23.296875 43.109375 25.78125 39.90625 
Q 28.265625 36.71875 33.203125 36.71875 
z
" id="DejaVuSans-Bold-57"/>
    <path d="M 10.59375 72.90625 
L 57.328125 72.90625 
L 57.328125 59.078125 
L 25.59375 59.078125 
L 25.59375 47.796875 
Q 27.734375 48.390625 29.90625 48.703125 
Q 32.078125 49.03125 34.421875 49.03125 
Q 47.75 49.03125 55.171875 42.359375 
Q 62.59375 35.6875 62.59375 23.78125 
Q 62.59375 11.96875 54.515625 5.265625 
Q 46.4375 -1.421875 32.078125 -1.421875 
Q 25.875 -1.421875 19.796875 -0.21875 
Q 13.71875 0.984375 7.71875 3.421875 
L 7.71875 18.21875 
Q 13.671875 14.796875 19.015625 13.078125 
Q 24.359375 11.375 29.109375 11.375 
Q 35.9375 11.375 39.859375 14.71875 
Q 43.796875 18.0625 43.796875 23.78125 
Q 43.796875 29.546875 39.859375 32.859375 
Q 35.9375 36.1875 29.109375 36.1875 
Q 25.046875 36.1875 20.453125 35.125 
Q 15.875 34.078125 10.59375 31.890625 
z
" id="DejaVuSans-Bold-53"/>
   </defs>
   <g style="fill:#808080;" transform="translate(0 575.8848)scale(0.1 -0.1)">
    <use xlink:href="#DejaVuSans-Bold-65"/>
    <use x="77.392578" xlink:href="#DejaVuSans-Bold-99"/>
    <use x="136.669922" xlink:href="#DejaVuSans-Bold-101"/>
    <use x="204.492188" xlink:href="#DejaVuSans-Bold-76"/>
    <use x="268.212891" xlink:href="#DejaVuSans-Bold-101"/>
    <use x="336.035156" xlink:href="#DejaVuSans-Bold-119"/>
    <use x="428.417969" xlink:href="#DejaVuSans-Bold-105"/>
    <use x="462.695312" xlink:href="#DejaVuSans-Bold-115"/>
    <use x="522.216797" xlink:href="#DejaVuSans-Bold-46"/>
    <use x="560.205078" xlink:href="#DejaVuSans-Bold-99"/>
    <use x="619.482422" xlink:href="#DejaVuSans-Bold-111"/>
    <use x="688.183594" xlink:href="#DejaVuSans-Bold-109"/>
    <use x="792.382812" xlink:href="#DejaVuSans-Bold-32"/>
    <use x="827.197266" xlink:href="#DejaVuSans-Bold-45"/>
    <use x="868.701172" xlink:href="#DejaVuSans-Bold-32"/>
    <use x="903.515625" xlink:href="#DejaVuSans-Bold-68"/>
    <use x="986.523438" xlink:href="#DejaVuSans-Bold-97"/>
    <use x="1054.003906" xlink:href="#DejaVuSans-Bold-116"/>
    <use x="1101.806641" xlink:href="#DejaVuSans-Bold-101"/>
    <use x="1169.628906" xlink:href="#DejaVuSans-Bold-58"/>
    <use x="1209.619141" xlink:href="#DejaVuSans-Bold-32"/>
    <use x="1244.433594" xlink:href="#DejaVuSans-Bold-50"/>
    <use x="1314.013672" xlink:href="#DejaVuSans-Bold-48"/>
    <use x="1383.59375" xlink:href="#DejaVuSans-Bold-50"/>
    <use x="1453.173828" xlink:href="#DejaVuSans-Bold-48"/>
    <use x="1522.753906" xlink:href="#DejaVuSans-Bold-45"/>
    <use x="1564.257812" xlink:href="#DejaVuSans-Bold-48"/>
    <use x="1633.837891" xlink:href="#DejaVuSans-Bold-57"/>
    <use x="1703.417969" xlink:href="#DejaVuSans-Bold-45"/>
    <use x="1744.921875" xlink:href="#DejaVuSans-Bold-50"/>
    <use x="1814.501953" xlink:href="#DejaVuSans-Bold-53"/>
   </g>
  </g>
 </g>
</svg>
